<?xml version="1.0" encoding="utf-8"?>
<!-- Generator: Adobe Illustrator 16.0.0, SVG Export Plug-In . SVG Version: 6.00 Build 0)  -->
<!DOCTYPE svg PUBLIC "-//W3C//DTD SVG 1.1//EN" "http://www.w3.org/Graphics/SVG/1.1/DTD/svg11.dtd">
<svg version="1.1" id="Layer_1" xmlns="http://www.w3.org/2000/svg" xmlns:xlink="http://www.w3.org/1999/xlink" x="0px" y="0px"
	 width="16px" height="17px" viewBox="0 0 16 17" enable-background="new 0 0 16 17" xml:space="preserve">
<g>
	<path fill="none" d="M0.328,13.564l5.049-1.681c-0.148-0.188-0.298-0.383-0.448-0.582C3.09,8.858,2.158,6.964,2.158,5.671
		C2.158,2.544,4.778,0,7.997,0H0v14.01C0,13.809,0.132,13.63,0.328,13.564z"/>
	<path fill="none" d="M14.016,14.01l-4.023-1.345C9.1,13.75,8.397,14.496,8.357,14.539c-0.092,0.099-0.222,0.153-0.358,0.153
		c-0.136,0-0.266-0.057-0.357-0.153c-0.04-0.043-0.74-0.787-1.631-1.869L1.98,14.011l6.005,2.006L14.016,14.01z"/>
	<path fill="none" d="M7.998,0c3.22,0,5.84,2.544,5.84,5.671c0,1.294-0.934,3.188-2.771,5.631c-0.148,0.197-0.297,0.391-0.444,0.578
		l5.046,1.685c0.196,0.065,0.328,0.244,0.328,0.446c0,0.201-0.132,0.38-0.328,0.446l-7.526,2.504
		c-0.051,0.018-0.104,0.024-0.157,0.024c-0.053,0-0.106-0.009-0.158-0.024l-7.5-2.504C0.131,14.39,0,14.211,0,14.01V17h16V0H7.998z"
		/>
	<path fill="#9FA0A0" d="M0.328,14.457l7.5,2.504c0.051,0.018,0.104,0.024,0.158,0.024c0.054,0,0.106-0.007,0.157-0.024l7.526-2.504
		c0.196-0.066,0.328-0.245,0.328-0.446c0-0.202-0.132-0.381-0.328-0.446l-5.046-1.685c0.146-0.187,0.296-0.381,0.445-0.578
		c1.838-2.443,2.771-4.337,2.771-5.631c0-3.126-2.62-5.671-5.84-5.671C4.779,0,2.16,2.544,2.16,5.671
		c0,1.294,0.932,3.188,2.771,5.631c0.15,0.199,0.3,0.394,0.448,0.582L0.33,13.564C0.132,13.63,0,13.809,0,14.01
		S0.131,14.39,0.328,14.457z M7.998,3.355c1.159,0,2.102,0.916,2.102,2.04c0,1.125-0.942,2.04-2.102,2.04
		c-1.158,0-2.101-0.915-2.101-2.04C5.897,4.271,6.839,3.355,7.998,3.355z M6.009,12.67C6.9,13.752,7.6,14.496,7.64,14.539
		c0.092,0.099,0.222,0.153,0.357,0.153c0.137,0,0.267-0.057,0.358-0.153c0.04-0.043,0.743-0.788,1.635-1.874l4.023,1.345
		l-6.03,2.007L1.98,14.011L6.009,12.67z"/>
</g>
</svg>
