<?xml version="1.0" encoding="utf-8"?>
<!-- Generator: Adobe Illustrator 16.0.0, SVG Export Plug-In . SVG Version: 6.00 Build 0)  -->
<!DOCTYPE svg PUBLIC "-//W3C//DTD SVG 1.1//EN" "http://www.w3.org/Graphics/SVG/1.1/DTD/svg11.dtd">
<svg version="1.1" id="Layer_1" xmlns="http://www.w3.org/2000/svg" xmlns:xlink="http://www.w3.org/1999/xlink" x="0px" y="0px"
	 width="21px" height="13px" viewBox="0 0 21 13" enable-background="new 0 0 21 13" xml:space="preserve">
<g>
	<path fill="#5F8C97" d="M2.391,3.924c0-1.067,0.892-1.936,1.988-1.936H8.84c0.693,0,1.305,0.347,1.66,0.873
		c0.355-0.525,0.967-0.873,1.66-0.873h4.461c1.097,0,1.988,0.869,1.988,1.936v0.089h0.498V2.125C19.107,0.953,18.129,0,16.926,0
		H4.074C2.872,0,1.893,0.953,1.893,2.125v1.888h0.498V3.924L2.391,3.924z M2.391,3.924"/>
	<path fill="#5F8C97" d="M20.164,4.916H0.835C0.375,4.916,0,5.281,0,5.73v4.724c0,0.448,0.375,0.812,0.835,0.812h0.348l-0.411,1.131
		c-0.086,0.234,0.041,0.493,0.282,0.576C1.106,12.991,1.158,13,1.209,13c0.191,0,0.37-0.116,0.438-0.302l0.521-1.432h16.664
		l0.521,1.432C19.42,12.884,19.6,13,19.791,13c0.051,0,0.104-0.009,0.154-0.026c0.242-0.083,0.368-0.342,0.282-0.576l-0.411-1.131
		h0.348c0.461,0,0.836-0.364,0.836-0.812V5.73C21,5.281,20.625,4.916,20.164,4.916L20.164,4.916z M20.164,4.916"/>
	<path fill="#5F8C97" d="M12.16,2.892c-0.585,0-1.061,0.463-1.061,1.032v0.089h6.581V3.924c0-0.569-0.476-1.032-1.06-1.032H12.16z
		 M12.16,2.892"/>
	<path fill="#5F8C97" d="M4.378,2.892c-0.584,0-1.06,0.463-1.06,1.032v0.089H9.9V3.924c0-0.569-0.476-1.032-1.061-1.032H4.378z
		 M4.378,2.892"/>
</g>
</svg>
