<?xml version="1.0" encoding="utf-8"?>
<!-- Generator: Adobe Illustrator 16.0.0, SVG Export Plug-In . SVG Version: 6.00 Build 0)  -->
<!DOCTYPE svg PUBLIC "-//W3C//DTD SVG 1.1//EN" "http://www.w3.org/Graphics/SVG/1.1/DTD/svg11.dtd">
<svg version="1.1" id="Layer_1" xmlns="http://www.w3.org/2000/svg" xmlns:xlink="http://www.w3.org/1999/xlink" x="0px" y="0px"
	 width="19px" height="13px" viewBox="-49 141 19 13" enable-background="new -49 141 19 13" xml:space="preserve">
<g>
	<path fill="#FCFCFC" d="M-48.923,142.663c-0.05,0.187-0.076,0.383-0.076,0.584c0,9.121-0.003,8.534,0.006,8.67l5.824-5.426
		L-48.923,142.663z"/>
	<g>
		<path fill="#FCFCFC" d="M-39.504,148.448c-0.889,0-1.307-0.387-2.471-1.162l-6.433,5.995c0.404,0.441,0.98,0.719,1.619,0.719
			h14.569c0.639,0,1.216-0.277,1.619-0.719l-6.433-5.995C-38.197,148.061-38.614,148.448-39.504,148.448z"/>
	</g>
	<path fill="#FCFCFC" d="M-38.929,146.867l8.083-5.379c-0.378-0.305-0.855-0.488-1.374-0.488h-14.569
		c-0.519,0-0.996,0.183-1.374,0.488l8.083,5.379C-39.729,147.1-39.278,147.1-38.929,146.867z"/>
	<path fill="#FCFCFC" d="M-30.084,142.663l-5.754,3.829l5.824,5.426C-30.011,151.871-29.957,143.143-30.084,142.663z"/>
</g>
</svg>
