<?xml version="1.0" encoding="utf-8"?>
<!-- Generator: Adobe Illustrator 16.0.0, SVG Export Plug-In . SVG Version: 6.00 Build 0)  -->
<!DOCTYPE svg PUBLIC "-//W3C//DTD SVG 1.1//EN" "http://www.w3.org/Graphics/SVG/1.1/DTD/svg11.dtd">
<svg version="1.1" id="Layer_1" xmlns="http://www.w3.org/2000/svg" xmlns:xlink="http://www.w3.org/1999/xlink" x="0px" y="0px"
	 width="20px" height="20px" viewBox="-49 141 20 20" enable-background="new -49 141 20 20" xml:space="preserve">
<g>
	<path fill="#FFFFFF" d="M-48.919,145.991c-0.052,0.193-0.08,0.396-0.08,0.605c0,9.443-0.003,8.836,0.007,8.978l6.13-5.618
		L-48.919,145.991z"/>
	<path fill="#FFFFFF" d="M-39.004,151.981c-0.937,0-1.376-0.401-2.602-1.203l-6.771,6.207c0.425,0.458,1.032,0.745,1.704,0.745
		h15.337c0.672,0,1.278-0.287,1.704-0.745l-6.771-6.207C-37.628,151.58-38.068,151.981-39.004,151.981z"/>
	<path fill="#FFFFFF" d="M-38.399,150.345l8.509-5.569c-0.397-0.316-0.899-0.506-1.445-0.506h-15.337
		c-0.546,0-1.048,0.189-1.446,0.506l8.509,5.569C-39.242,150.585-38.767,150.585-38.399,150.345z"/>
	<path fill="#FFFFFF" d="M-29.088,145.991l-6.057,3.965l6.13,5.618C-29.012,155.525-28.955,146.488-29.088,145.991z"/>
</g>
</svg>
