<?xml version="1.0" encoding="utf-8"?>
<!-- Generator: Adobe Illustrator 16.0.0, SVG Export Plug-In . SVG Version: 6.00 Build 0)  -->
<!DOCTYPE svg PUBLIC "-//W3C//DTD SVG 1.1//EN" "http://www.w3.org/Graphics/SVG/1.1/DTD/svg11.dtd">
<svg version="1.1" id="Layer_1" xmlns="http://www.w3.org/2000/svg" xmlns:xlink="http://www.w3.org/1999/xlink" x="0px" y="0px"
	 width="20px" height="20px" viewBox="0 0 20 20" enable-background="new 0 0 20 20" xml:space="preserve">
<g>
	<g>
		<path fill="#35BDB0" d="M15.897,13.688c-0.074,0-0.15-0.027-0.209-0.084l-3.534-3.313c-0.123-0.117-0.129-0.309-0.015-0.435
			c0.117-0.123,0.312-0.129,0.434-0.012l3.536,3.314c0.123,0.117,0.129,0.312,0.012,0.435
			C16.063,13.655,15.982,13.688,15.897,13.688L15.897,13.688z M15.897,13.688"/>
		<path fill="#35BDB0" d="M15.897,14.164c-0.203,0-0.395-0.078-0.541-0.219l-3.527-3.308c-0.315-0.3-0.332-0.784-0.042-1.103
			c0.303-0.319,0.815-0.322,1.116-0.037l3.533,3.311c0.315,0.301,0.328,0.798,0.032,1.11C16.32,14.077,16.117,14.164,15.897,14.164z
			"/>
	</g>
	<g>
		<path fill="#35BDB0" d="M4.103,13.688c-0.084,0-0.165-0.032-0.225-0.096c-0.118-0.124-0.111-0.318,0.012-0.435l3.536-3.314
			C7.551,9.726,7.747,9.731,7.86,9.854c0.118,0.126,0.112,0.318-0.012,0.435l-3.536,3.313C4.252,13.661,4.177,13.688,4.103,13.688
			L4.103,13.688z M4.103,13.688"/>
		<path fill="#35BDB0" d="M4.103,14.164c-0.219,0-0.421-0.087-0.571-0.244c-0.296-0.312-0.284-0.81,0.028-1.108L7.1,9.496
			c0.308-0.288,0.829-0.269,1.11,0.036c0.292,0.312,0.278,0.808-0.033,1.104L4.638,13.95C4.497,14.087,4.305,14.164,4.103,14.164z"
			/>
	</g>
	<g>
		<path fill="#35BDB0" d="M17.988,16.771H2.012c-0.846,0-1.536-0.687-1.536-1.536V4.765c0-0.845,0.689-1.536,1.536-1.536h15.977
			c0.845,0,1.536,0.691,1.536,1.536v10.47C19.524,16.084,18.833,16.771,17.988,16.771L17.988,16.771z M2.012,3.844
			c-0.507,0-0.921,0.414-0.921,0.921v10.47c0,0.51,0.414,0.921,0.921,0.921h15.977c0.51,0,0.921-0.411,0.921-0.921V4.765
			c0-0.507-0.411-0.921-0.921-0.921H2.012z M2.012,3.844"/>
		<path fill="#35BDB0" d="M17.988,17.247H2.012C0.903,17.247,0,16.344,0,15.235V4.765c0-1.109,0.903-2.012,2.012-2.012h15.977
			C19.097,2.753,20,3.656,20,4.765v10.47C20,16.344,19.097,17.247,17.988,17.247z M2.012,4.321c-0.245,0-0.444,0.199-0.444,0.444
			v10.47c0,0.245,0.199,0.444,0.444,0.444h15.977c0.245,0,0.444-0.199,0.444-0.444V4.765c0-0.245-0.199-0.444-0.444-0.444H2.012z"/>
	</g>
	<g>
		<path fill="#35BDB0" d="M10.001,11.544c-0.41,0-0.818-0.135-1.127-0.406l-7.888-6.88c-0.129-0.111-0.141-0.306-0.03-0.435
			c0.111-0.128,0.306-0.138,0.435-0.029l7.885,6.88c0.394,0.341,1.056,0.341,1.449,0L18.6,3.805c0.128-0.11,0.321-0.099,0.435,0.03
			c0.111,0.129,0.1,0.321-0.03,0.433l-7.876,6.868C10.817,11.409,10.41,11.544,10.001,11.544L10.001,11.544z M10.001,11.544"/>
		<path fill="#35BDB0" d="M10.001,12.02c-0.544,0-1.056-0.186-1.441-0.523L0.673,4.617C0.517,4.483,0.422,4.294,0.406,4.085
			c-0.015-0.21,0.052-0.414,0.19-0.573c0.269-0.311,0.783-0.351,1.101-0.083l7.892,6.886c0.203,0.176,0.62,0.176,0.824,0
			l7.875-6.868c0.319-0.274,0.831-0.237,1.104,0.074c0.286,0.331,0.25,0.826-0.076,1.107l-7.874,6.867
			C11.056,11.833,10.544,12.02,10.001,12.02z"/>
	</g>
</g>
</svg>
