<?xml version="1.0" encoding="utf-8"?>
<!-- Generator: Adobe Illustrator 16.0.0, SVG Export Plug-In . SVG Version: 6.00 Build 0)  -->
<!DOCTYPE svg PUBLIC "-//W3C//DTD SVG 1.1//EN" "http://www.w3.org/Graphics/SVG/1.1/DTD/svg11.dtd">
<svg version="1.1" xmlns="http://www.w3.org/2000/svg" xmlns:xlink="http://www.w3.org/1999/xlink" x="0px" y="0px" width="21px"
	 height="20px" viewBox="0 0 21 20" enable-background="new 0 0 21 20" xml:space="preserve">
<g id="Layer_1">
	<g>
		<path fill="#CCCCCC" d="M19.399,1.1C18.666,0.367,17.783,0,16.75,0H4.25C3.217,0,2.334,0.367,1.6,1.1
			C0.867,1.834,0.5,2.717,0.5,3.75v12.5c0,1.033,0.367,1.916,1.1,2.649C2.334,19.633,3.217,20,4.25,20h12.5
			c1.033,0,1.916-0.367,2.649-1.101S20.5,17.283,20.5,16.25V3.75C20.5,2.717,20.133,1.834,19.399,1.1L19.399,1.1z M17.519,10.287
			h-2.279v8.268h-3.411v-8.268h-1.706V7.435h1.706V5.729c0-1.224,0.287-2.148,0.859-2.773c0.573-0.625,1.519-0.937,2.839-0.937
			h2.278V4.87h-1.432c-0.486,0-0.797,0.084-0.932,0.254c-0.135,0.169-0.202,0.466-0.202,0.892v1.419h2.579L17.519,10.287z
			 M17.519,10.287"/>
	</g>
</g>
<g id="Layer_3" display="none">
	<path display="inline" d="M17.187,13.035c-0.994,0-1.886,0.417-2.52,1.083L7.252,10.49c0.027-0.171,0.043-0.343,0.043-0.521
		c0-0.173-0.016-0.343-0.041-0.508l7.402-3.59c0.635,0.672,1.533,1.094,2.53,1.094c1.925,0,3.484-1.559,3.484-3.481
		C20.67,1.56,19.111,0,17.187,0c-1.922,0-3.481,1.56-3.481,3.484c0,0.171,0.016,0.341,0.041,0.506L6.342,7.58
		C5.707,6.908,4.811,6.486,3.813,6.486c-1.925,0-3.484,1.559-3.484,3.483c0,1.922,1.559,3.482,3.484,3.482
		c0.991,0,1.885-0.418,2.52-1.084l7.415,3.629c-0.027,0.169-0.043,0.343-0.043,0.52c0,1.925,1.559,3.484,3.481,3.484
		c1.925,0,3.484-1.559,3.484-3.484C20.67,14.594,19.111,13.035,17.187,13.035L17.187,13.035z M17.187,13.035"/>
</g>
<g id="Layer_2" display="none">
	<g display="inline">
		<path fill="#231F20" d="M0.084,4.742C0.03,4.944,0,5.157,0,5.377c0,9.914-0.004,9.276,0.007,9.426l6.437-5.899L0.084,4.742z"/>
		<path fill="#231F20" d="M10.496,11.031c-0.983,0-1.445-0.421-2.731-1.263l-7.11,6.517c0.446,0.48,1.083,0.782,1.79,0.782h16.103
			c0.706,0,1.343-0.301,1.79-0.782l-7.11-6.517C11.94,10.61,11.479,11.031,10.496,11.031z"/>
		<path fill="#231F20" d="M11.131,9.312l8.935-5.848c-0.417-0.332-0.945-0.531-1.519-0.531H2.444c-0.574,0-1.101,0.199-1.519,0.531
			L9.86,9.312C10.247,9.564,10.745,9.564,11.131,9.312z"/>
		<path fill="#231F20" d="M20.907,4.742l-6.359,4.162l6.437,5.899C20.988,14.752,21.048,5.264,20.907,4.742z"/>
	</g>
</g>
</svg>
