<?xml version="1.0" encoding="utf-8"?>
<!-- Generator: Adobe Illustrator 16.0.0, SVG Export Plug-In . SVG Version: 6.00 Build 0)  -->
<!DOCTYPE svg PUBLIC "-//W3C//DTD SVG 1.1//EN" "http://www.w3.org/Graphics/SVG/1.1/DTD/svg11.dtd">
<svg version="1.1" id="Layer_1" xmlns="http://www.w3.org/2000/svg" xmlns:xlink="http://www.w3.org/1999/xlink" x="0px" y="0px"
	 width="303px" height="52px" viewBox="0 0 303 52" enable-background="new 0 0 303 52" xml:space="preserve">
<g>
	<path fill="#A9A8A8" d="M77.781,22.259c-0.449-0.498-1-0.88-1.654-1.147c-0.654-0.268-1.41-0.401-2.269-0.401
		c-0.857,0-1.651,0.149-2.384,0.453s-1.367,0.728-1.904,1.27c-0.535,0.541-0.956,1.187-1.256,1.937
		c-0.304,0.747-0.455,1.557-0.455,2.426c0,0.892,0.151,1.707,0.455,2.444c0.3,0.737,0.717,1.379,1.244,1.924
		c0.526,0.542,1.146,0.964,1.859,1.268c0.711,0.302,1.475,0.451,2.297,0.451c0.936,0,1.767-0.176,2.486-0.531
		c0.721-0.358,1.318-0.855,1.787-1.497l3.804,2.592c-0.879,1.119-1.991,1.946-3.336,2.482c-1.347,0.531-2.732,0.799-4.157,0.799
		c-1.62,0-3.112-0.231-4.477-0.695c-1.365-0.462-2.548-1.123-3.543-1.986c-0.994-0.865-1.768-1.908-2.327-3.138
		c-0.555-1.227-0.833-2.598-0.833-4.112c0-1.511,0.278-2.882,0.833-4.108c0.559-1.228,1.333-2.274,2.327-3.138
		c0.995-0.863,2.178-1.527,3.543-1.988c1.364-0.462,2.857-0.693,4.477-0.693c0.586,0,1.197,0.048,1.83,0.147
		c0.633,0.096,1.259,0.252,1.875,0.466c0.613,0.214,1.204,0.5,1.769,0.854c0.566,0.357,1.074,0.791,1.523,1.311L77.781,22.259z"/>
	<path fill="#A9A8A8" d="M82.435,26.797c0-1.513,0.279-2.884,0.832-4.11c0.559-1.229,1.333-2.274,2.327-3.136
		c0.995-0.865,2.178-1.526,3.542-1.992c1.365-0.462,2.857-0.691,4.477-0.691s3.111,0.229,4.479,0.691
		c1.365,0.466,2.548,1.127,3.541,1.992c0.996,0.861,1.772,1.906,2.327,3.136c0.559,1.227,0.834,2.598,0.834,4.11
		s-0.275,2.884-0.834,4.11c-0.555,1.228-1.331,2.274-2.327,3.138c-0.993,0.863-2.176,1.526-3.541,1.988
		c-1.367,0.462-2.858,0.693-4.479,0.693s-3.112-0.231-4.477-0.693c-1.365-0.462-2.547-1.125-3.542-1.988
		c-0.994-0.863-1.769-1.91-2.327-3.138C82.714,29.681,82.435,28.31,82.435,26.797 M87.175,26.797c0,0.89,0.151,1.705,0.455,2.444
		c0.302,0.737,0.736,1.379,1.301,1.92c0.567,0.542,1.244,0.966,2.036,1.27c0.79,0.304,1.673,0.451,2.647,0.451
		c0.976,0,1.859-0.147,2.649-0.451c0.79-0.304,1.469-0.728,2.034-1.27c0.567-0.541,1.002-1.183,1.303-1.92
		c0.302-0.739,0.455-1.555,0.455-2.444c0-0.873-0.153-1.683-0.455-2.428c-0.301-0.748-0.736-1.394-1.303-1.938
		c-0.565-0.542-1.244-0.964-2.034-1.268c-0.79-0.302-1.673-0.451-2.649-0.451c-0.975,0-1.857,0.149-2.647,0.451
		c-0.792,0.304-1.469,0.726-2.036,1.268c-0.565,0.545-0.999,1.19-1.301,1.938C87.326,25.114,87.175,25.924,87.175,26.797"/>
	<polygon fill="#A9A8A8" points="107.166,17.347 114.071,17.347 118.898,29.625 118.958,29.625 123.701,17.347 130.578,17.347 
		130.578,36.247 126.014,36.247 126.014,21.751 125.955,21.751 120.51,34.625 117.029,34.625 111.79,21.751 111.73,21.751 
		111.73,36.247 107.166,36.247 	"/>
	<polygon fill="#A9A8A8" points="134.063,17.347 141.025,17.295 145.795,29.625 145.799,29.681 150.6,17.347 157.475,17.347 
		157.475,36.247 152.912,36.247 152.912,21.751 152.852,21.751 147.406,34.625 143.925,34.625 138.686,21.751 138.626,21.751 
		138.626,36.247 134.063,36.247 	"/>
	<path fill="#A9A8A8" d="M159.847,26.797c0-1.513,0.277-2.884,0.833-4.11c0.558-1.229,1.333-2.274,2.326-3.136
		c0.995-0.865,2.179-1.526,3.543-1.992c1.363-0.462,2.856-0.691,4.478-0.691c1.619,0,3.111,0.229,4.478,0.691
		c1.366,0.466,2.548,1.127,3.541,1.992c0.997,0.861,1.772,1.906,2.328,3.136c0.558,1.227,0.833,2.598,0.833,4.11
		s-0.275,2.884-0.833,4.11c-0.556,1.228-1.331,2.274-2.328,3.138c-0.993,0.863-2.175,1.526-3.541,1.988s-2.858,0.693-4.478,0.693
		c-1.621,0-3.114-0.231-4.478-0.693c-1.364-0.462-2.548-1.125-3.543-1.988c-0.993-0.863-1.769-1.91-2.326-3.138
		C160.124,29.681,159.847,28.31,159.847,26.797 M164.587,26.797c0,0.89,0.151,1.705,0.454,2.444c0.301,0.737,0.736,1.379,1.302,1.92
		c0.566,0.542,1.244,0.966,2.036,1.27c0.79,0.304,1.673,0.451,2.647,0.451c0.977,0,1.859-0.147,2.649-0.451
		c0.789-0.304,1.468-0.728,2.033-1.27c0.566-0.541,1.001-1.183,1.302-1.92c0.303-0.739,0.454-1.555,0.454-2.444
		c0-0.873-0.151-1.683-0.454-2.428c-0.301-0.748-0.735-1.394-1.302-1.938c-0.565-0.542-1.244-0.964-2.033-1.268
		c-0.79-0.302-1.673-0.451-2.649-0.451c-0.975,0-1.857,0.149-2.647,0.451c-0.792,0.304-1.47,0.726-2.036,1.268
		c-0.565,0.545-1.001,1.19-1.302,1.938C164.738,25.114,164.587,25.924,164.587,26.797"/>
	<polygon fill="#A9A8A8" points="184.577,17.347 190.782,17.347 199.593,30.479 199.648,30.479 199.648,17.347 204.216,17.347 
		204.216,36.247 198.245,36.247 189.2,22.792 189.143,22.792 189.143,36.247 184.577,36.247 	"/>
	<path fill="#A9A8A8" d="M209.022,17.349h5.442c0.273,0,0.645,0.01,1.113,0.026c0.468,0.02,0.976,0.071,1.521,0.159
		c0.545,0.092,1.101,0.232,1.669,0.428c0.563,0.196,1.073,0.481,1.521,0.855c0.447,0.374,0.818,0.843,1.113,1.415
		c0.292,0.567,0.438,1.263,0.438,2.082c0,0.907-0.17,1.654-0.513,2.242c-0.342,0.588-0.771,1.063-1.287,1.427
		c-0.519,0.364-1.088,0.638-1.712,0.815s-1.222,0.304-1.785,0.372l6.028,9.078h-2.195l-5.823-8.971h-3.599v8.971h-1.933V17.349z
		 M210.955,25.678h4.096c1.014,0,1.839-0.118,2.474-0.348c0.632-0.231,1.126-0.518,1.478-0.854c0.353-0.338,0.589-0.703,0.718-1.095
		c0.126-0.392,0.188-0.748,0.188-1.067s-0.062-0.676-0.188-1.069c-0.129-0.39-0.365-0.755-0.718-1.093
		c-0.352-0.34-0.846-0.624-1.478-0.855c-0.635-0.231-1.46-0.348-2.474-0.348h-4.096V25.678z"/>
	<polygon fill="#A9A8A8" points="225.646,17.349 238.319,17.349 238.319,18.951 227.578,18.951 227.578,25.678 237.644,25.678 
		237.644,27.278 227.578,27.278 227.578,34.646 238.785,34.646 238.785,36.249 225.646,36.249 	"/>
	<path fill="#A9A8A8" d="M248.618,17.351h1.992l8.721,18.896h-2.166l-2.254-5.018h-10.975l-2.342,5.018h-2.02L248.618,17.351z
		 M249.528,19.271l-4.833,10.358h9.516L249.528,19.271z"/>
	<polygon fill="#A9A8A8" points="261.585,17.349 263.517,17.349 263.517,34.646 273.177,34.646 273.177,36.249 261.585,36.249 	"/>
	<polygon fill="#A9A8A8" points="277.392,18.949 270.308,18.949 270.308,17.347 286.405,17.347 286.405,18.949 279.321,18.949 
		279.321,36.247 277.392,36.247 	"/>
	<polygon fill="#A9A8A8" points="293.46,28.105 285.85,17.349 288.161,17.349 294.422,26.319 300.834,17.349 303,17.349 
		295.388,28.105 295.388,36.249 293.46,36.249 	"/>
	<path fill="#A9A8A8" d="M29.019,52c-0.702,0-1.409-0.029-2.107-0.084c-4.414-0.352-8.659-1.812-12.271-4.227
		C5.095,43.711-0.778,34.272,0.083,24.237C0.591,18.324,3.365,12.862,7.9,8.857C8.52,8.31,9.212,7.765,9.954,7.236
		c0.393-0.407,0.79-0.785,1.17-1.121c4.957-4.38,11.588-6.572,18.287-6.035c6.424,0.512,12.255,3.403,16.423,8.142
		c1.208,1.375,2.25,2.886,3.101,4.501c3.887,4.775,5.757,10.809,5.23,16.93c-0.522,6.129-3.401,11.791-8.101,15.945
		C41.389,49.729,35.336,52,29.019,52 M27.402,0.632c-5.87,0-11.493,2.114-15.836,5.951c-0.368,0.322-0.753,0.691-1.181,1.123
		C9.617,8.26,8.947,8.789,8.343,9.321c-4.414,3.898-7.116,9.212-7.61,14.966c-0.836,9.766,4.88,18.952,14.224,22.855
		c3.573,2.38,7.708,3.801,12.009,4.145c0.679,0.056,1.369,0.084,2.052,0.084c6.153,0,12.049-2.219,16.603-6.239
		c4.581-4.047,7.383-9.561,7.895-15.531c0.512-5.963-1.312-11.839-5.131-16.545c-0.861-1.616-1.876-3.089-3.053-4.422
		c-4.052-4.612-9.727-7.426-15.972-7.926C28.709,0.658,28.052,0.632,27.402,0.632"/>
	<path fill="#A9A8A8" d="M4.355,24.449c0.843-5.432,3.571-10.404,7.796-14.137c3.318-2.934,7.343-4.91,11.661-5.792
		c-5.662,0.126-10.881,2.295-14.845,5.796c-2.539,3.249-4.186,7.192-4.553,11.482C4.338,22.687,4.323,23.569,4.355,24.449"/>
	<path fill="#A9A8A8" d="M4.077,28.018c-0.41-2.042-0.537-4.146-0.354-6.274c0.261-3.042,1.14-5.957,2.558-8.609
		c-2.617,3.262-4.32,7.246-4.691,11.591c-0.503,5.855,1.396,11.555,5.35,16.051c1.023,1.165,2.152,2.208,3.371,3.128
		c-0.111-0.118-0.223-0.234-0.33-0.358C6.123,39.161,4.069,33.705,4.077,28.018"/>
	<path fill="#A9A8A8" d="M26.344,3.46c1.265,0.1,2.5,0.298,3.697,0.577c0.335,0.015,0.67,0.012,1.002,0.038
		c5.717,0.458,10.977,2.74,15.076,6.497c-0.342-0.456-0.696-0.901-1.077-1.331c-3.986-4.536-9.567-7.307-15.715-7.794
		c-0.646-0.052-1.292-0.08-1.928-0.08c-5.09,0-9.847,1.646-13.707,4.421c3.283-1.573,6.917-2.408,10.646-2.408
		C25.005,3.38,25.681,3.406,26.344,3.46"/>
	<path fill="#A9A8A8" d="M51.132,25.518c-0.494,5.762-3.194,11.083-7.606,14.99c-0.871,1.107-1.847,2.148-2.925,3.102
		c-4.448,3.927-10.203,6.091-16.21,6.091c-0.354,0-0.713-0.03-1.072-0.044c1.226,0.296,2.484,0.504,3.766,0.604
		c0.637,0.052,1.288,0.078,1.934,0.078c11.938,0,22.062-8.999,23.047-20.483c0.251-2.92-0.089-5.802-0.972-8.514
		C51.233,22.716,51.253,24.113,51.132,25.518"/>
	<path fill="#A9A8A8" d="M37.979,44.183c-3.248,1.553-6.84,2.378-10.527,2.378c-0.658,0-1.325-0.025-1.983-0.08
		c-6.332-0.503-12.083-3.354-16.188-8.027c-0.729-0.829-1.39-1.702-1.985-2.607c0.926,2.378,2.278,4.606,4.031,6.601
		c1.934,2.198,4.244,3.98,6.808,5.292c1.406,0.381,2.86,0.637,4.348,0.755c0.635,0.052,1.276,0.076,1.908,0.076
		C29.439,48.569,34.157,46.938,37.979,44.183"/>
	<path fill="#A9A8A8" d="M37.865,7.396c6.914,4.547,11.179,12.45,10.442,21.049c-0.264,3.078-1.157,6.031-2.594,8.713
		c2.636-3.293,4.352-7.312,4.727-11.694c0.208-2.426,0.002-4.826-0.579-7.126c-0.845-1.687-1.915-3.281-3.205-4.748
		C44.235,10.834,41.227,8.737,37.865,7.396"/>
	<path fill="#A9A8A8" d="M4.355,24.449c0.843-5.432,3.571-10.404,7.796-14.137c3.318-2.934,7.343-4.91,11.661-5.792
		c-5.662,0.126-10.881,2.295-14.845,5.796c-2.539,3.249-4.186,7.192-4.553,11.482C4.338,22.687,4.323,23.569,4.355,24.449"/>
	<path fill="#A9A8A8" d="M4.077,28.018c-0.41-2.042-0.537-4.146-0.354-6.274c0.261-3.042,1.14-5.957,2.558-8.609
		c-2.617,3.262-4.32,7.246-4.691,11.591c-0.503,5.855,1.396,11.555,5.35,16.051c1.023,1.165,2.152,2.208,3.371,3.128
		c-0.111-0.118-0.223-0.234-0.33-0.358C6.123,39.161,4.069,33.705,4.077,28.018"/>
	<path fill="#A9A8A8" d="M26.344,3.46c1.265,0.1,2.5,0.298,3.697,0.577c0.335,0.015,0.67,0.012,1.002,0.038
		c5.717,0.458,10.977,2.74,15.076,6.497c-0.342-0.456-0.696-0.901-1.077-1.331c-3.986-4.536-9.567-7.307-15.715-7.794
		c-0.646-0.052-1.292-0.08-1.928-0.08c-5.09,0-9.847,1.646-13.707,4.421c3.283-1.573,6.917-2.408,10.646-2.408
		C25.005,3.38,25.681,3.406,26.344,3.46"/>
	<path fill="#A9A8A8" d="M27.432,45.863c-0.63,0-1.276-0.028-1.919-0.08c-6.126-0.485-11.688-3.245-15.662-7.766
		c-1.399-1.591-2.558-3.361-3.447-5.264c-0.504-2.216-0.65-4.416-0.461-6.618c0.98-11.445,11.071-20.41,22.969-20.41
		c0.636,0,1.284,0.026,1.925,0.078c0.545,0.044,1.085,0.11,1.62,0.188c9.495,3.495,15.485,12.669,14.657,22.338
		c-0.419,4.896-2.601,9.584-6.139,13.207C36.946,44.383,32.283,45.863,27.432,45.863 M28.912,6.547
		c-11.457,0-21.173,8.636-22.118,19.658c-0.183,2.12-0.042,4.239,0.417,6.295c0.828,1.749,1.944,3.455,3.29,4.986
		c3.828,4.353,9.184,7.01,15.083,7.479c5.375,0.42,10.508-0.997,14.83-4.042c3.347-3.438,5.449-7.95,5.851-12.662
		c0.798-9.305-4.967-18.138-14.023-21.479c-0.427-0.056-0.947-0.12-1.471-0.16C30.152,6.573,29.525,6.547,28.912,6.547"/>
	<path fill="#A9A8A8" d="M51.132,25.518c-0.494,5.762-3.194,11.083-7.606,14.99c-0.871,1.107-1.847,2.148-2.925,3.102
		c-4.448,3.927-10.203,6.091-16.21,6.091c-0.354,0-0.713-0.03-1.072-0.044c1.226,0.296,2.484,0.504,3.766,0.604
		c0.637,0.052,1.288,0.078,1.934,0.078c11.938,0,22.062-8.999,23.047-20.483c0.251-2.92-0.089-5.802-0.972-8.514
		C51.233,22.716,51.253,24.113,51.132,25.518"/>
	<path fill="#A9A8A8" d="M37.979,44.183c-3.248,1.553-6.84,2.378-10.527,2.378c-0.658,0-1.325-0.025-1.983-0.08
		c-6.332-0.503-12.083-3.354-16.188-8.027c-0.729-0.829-1.39-1.702-1.985-2.607c0.926,2.378,2.278,4.606,4.031,6.601
		c1.934,2.198,4.244,3.98,6.808,5.292c1.406,0.381,2.86,0.637,4.348,0.755c0.635,0.052,1.276,0.076,1.908,0.076
		C29.439,48.569,34.157,46.938,37.979,44.183"/>
	<path fill="#A9A8A8" d="M37.865,7.396c6.914,4.547,11.179,12.45,10.442,21.049c-0.264,3.078-1.157,6.031-2.594,8.713
		c2.636-3.293,4.352-7.312,4.727-11.694c0.208-2.426,0.002-4.826-0.579-7.126c-0.845-1.687-1.915-3.281-3.205-4.748
		C44.235,10.834,41.227,8.737,37.865,7.396"/>
</g>
</svg>
