<?xml version="1.0" encoding="utf-8"?>
<!-- Generator: Adobe Illustrator 16.0.0, SVG Export Plug-In . SVG Version: 6.00 Build 0)  -->
<!DOCTYPE svg PUBLIC "-//W3C//DTD SVG 1.1//EN" "http://www.w3.org/Graphics/SVG/1.1/DTD/svg11.dtd">
<svg version="1.1" xmlns="http://www.w3.org/2000/svg" xmlns:xlink="http://www.w3.org/1999/xlink" x="0px" y="0px" width="16px"
	 height="17px" viewBox="0 0 16 17" enable-background="new 0 0 16 17" xml:space="preserve">
<g id="Layer_1" display="none">
	<g display="inline">
		<path fill="none" d="M2.328,15.215l5.049-1.73c-0.148-0.194-0.298-0.395-0.448-0.6C5.09,10.369,4.158,8.418,4.158,7.087
			c0-3.22,2.62-5.84,5.839-5.84H2v14.427C2,15.467,2.132,15.282,2.328,15.215z"/>
		<path fill="none" d="M16.016,15.674l-4.024-1.385c-0.893,1.117-1.595,1.886-1.635,1.93c-0.092,0.101-0.222,0.158-0.358,0.158
			c-0.136,0-0.266-0.058-0.357-0.158c-0.04-0.044-0.74-0.811-1.631-1.925L3.98,15.675l6.005,2.065L16.016,15.674z"/>
		<path fill="none" d="M9.998,1.247c3.22,0,5.84,2.62,5.84,5.84c0,1.332-0.933,3.282-2.771,5.798
			c-0.149,0.203-0.298,0.402-0.445,0.595l5.046,1.735c0.196,0.067,0.328,0.252,0.328,0.46c0,0.207-0.132,0.392-0.328,0.459
			l-7.526,2.579c-0.051,0.018-0.104,0.025-0.157,0.025c-0.053,0-0.106-0.009-0.158-0.025l-7.5-2.579C2.131,16.065,2,15.881,2,15.674
			v3.079h16V1.247H9.998z"/>
		<path fill="#9FA0A0" d="M2.328,16.134l7.5,2.579c0.051,0.017,0.104,0.025,0.158,0.025c0.054,0,0.106-0.008,0.157-0.025
			l7.526-2.579c0.196-0.067,0.328-0.252,0.328-0.459c0-0.208-0.132-0.393-0.328-0.46l-5.046-1.735
			c0.147-0.192,0.296-0.392,0.445-0.595c1.838-2.516,2.771-4.466,2.771-5.798c0-3.22-2.62-5.84-5.84-5.84
			c-3.22,0-5.839,2.62-5.839,5.84c0,1.332,0.932,3.282,2.771,5.798c0.15,0.205,0.3,0.405,0.448,0.6l-5.049,1.73
			C2.132,15.282,2,15.467,2,15.674S2.131,16.065,2.328,16.134z M9.998,4.702c1.159,0,2.101,0.943,2.101,2.101
			c0,1.159-0.942,2.101-2.101,2.101c-1.158,0-2.101-0.942-2.101-2.101C7.897,5.645,8.839,4.702,9.998,4.702z M8.009,14.294
			C8.9,15.408,9.6,16.175,9.64,16.219c0.092,0.101,0.222,0.158,0.357,0.158c0.137,0,0.267-0.058,0.358-0.158
			c0.04-0.044,0.743-0.812,1.635-1.93l4.024,1.385l-6.03,2.066L3.98,15.675L8.009,14.294z"/>
	</g>
</g>
<g id="Layer_2">
	<path fill="#5F8C97" d="M7.863,2c0.091,0,0.183,0,0.273,0c0.202,0.118,0.41,0.229,0.606,0.356c0.574,0.375,1.145,0.755,1.715,1.136
		c0.952,0.633,1.902,1.27,2.854,1.902c0.377,0.251,0.759,0.494,1.135,0.747C14.664,6.287,14.902,6.413,15,6.687
		c0,0.13,0,0.26,0,0.39c-0.01,0.014-0.021,0.026-0.027,0.042c-0.133,0.37-0.549,0.543-0.893,0.367
		c-0.113-0.058-0.22-0.132-0.332-0.201c0,2.138,0,4.265,0,6.405c0.196,0,0.387,0.007,0.577-0.002
		c0.229-0.01,0.413,0.074,0.554,0.257c0.046,0.06,0.081,0.127,0.121,0.19c0,0.14,0,0.279,0,0.419
		c-0.086,0.211-0.231,0.359-0.438,0.446c-4.376,0-8.75,0-13.125,0C1.231,14.913,1.085,14.765,1,14.554c0-0.14,0-0.279,0-0.419
		c0.01-0.013,0.023-0.025,0.031-0.04c0.138-0.281,0.354-0.426,0.671-0.407c0.181,0.011,0.362,0.002,0.547,0.002
		c0-2.142,0-4.271,0-6.41c-0.075,0.05-0.138,0.091-0.2,0.136C1.759,7.621,1.37,7.608,1.131,7.306C1.082,7.244,1.043,7.172,1,7.105
		c0-0.14,0-0.279,0-0.418c0.077-0.192,0.211-0.332,0.385-0.433c0.096-0.057,0.191-0.118,0.284-0.18
		c0.752-0.497,1.504-0.992,2.254-1.492c0.979-0.651,1.953-1.307,2.933-1.955C7.186,2.409,7.527,2.208,7.863,2z M9.888,13.685
		c0-0.057,0-0.098,0-0.139c0-1.181,0-2.361-0.001-3.542c0-0.33-0.278-0.612-0.602-0.612c-0.856,0-1.714,0-2.57,0
		c-0.324,0-0.602,0.283-0.602,0.612c-0.001,1.182-0.001,2.361,0,3.542c0,0.045,0.004,0.09,0.006,0.139
		C7.377,13.685,8.623,13.685,9.888,13.685z"/>
</g>
</svg>
