<?xml version="1.0" encoding="utf-8"?>
<!-- Generator: Adobe Illustrator 16.0.0, SVG Export Plug-In . SVG Version: 6.00 Build 0)  -->
<!DOCTYPE svg PUBLIC "-//W3C//DTD SVG 1.1//EN" "http://www.w3.org/Graphics/SVG/1.1/DTD/svg11.dtd">
<svg version="1.1" id="Layer_1" xmlns="http://www.w3.org/2000/svg" xmlns:xlink="http://www.w3.org/1999/xlink" x="0px" y="0px"
	 width="40px" height="40px" viewBox="0 0 40 40" enable-background="new 0 0 40 40" xml:space="preserve">
<g>
	<path fill="#35BDB0" d="M-19.656,35.792l-6.74-8.727l3.797-1.316c0.27-0.094,0.462-0.333,0.495-0.616
		c0.034-0.283-0.099-0.56-0.338-0.714l-6.668-4.251c0.856-1.513,1.402-3.164,1.629-4.916c0.459-3.584-0.503-7.133-2.713-9.993
		c-2.21-2.86-5.399-4.689-8.983-5.148c-3.585-0.46-7.134,0.503-9.994,2.712c-2.859,2.209-4.688,5.4-5.147,8.983
		c-0.461,3.584,0.502,7.133,2.712,9.994c2.208,2.859,5.398,4.688,8.983,5.147c0.585,0.075,1.17,0.113,1.75,0.113
		c1.156,0,2.299-0.151,3.416-0.448l2.432,7.527c0.087,0.272,0.321,0.469,0.604,0.508c0.281,0.039,0.562-0.086,0.721-0.323
		l2.231-3.341l6.741,8.726c0.12,0.155,0.298,0.257,0.493,0.283C-24.204,39.998-24.171,40-24.142,40c0.164,0,0.324-0.054,0.456-0.155
		l3.896-3.011C-19.464,36.584-19.404,36.117-19.656,35.792L-19.656,35.792z M-42.436,25.475c-3.19-0.41-6.029-2.037-7.996-4.582
		c-1.968-2.546-2.825-5.705-2.414-8.896c0.408-3.19,2.037-6.03,4.582-7.997c2.547-1.966,5.707-2.824,8.896-2.414
		s6.03,2.038,7.997,4.583c1.966,2.546,2.822,5.705,2.414,8.896c-0.197,1.533-0.672,2.977-1.408,4.305l-1.876-1.196
		c0.765-1.421,1.164-3.012,1.164-4.642c0-5.419-4.406-9.826-9.825-9.826c-5.416,0-9.826,4.407-9.826,9.826
		c0,5.418,4.41,9.827,9.826,9.827c0.781,0,1.553-0.092,2.304-0.274l0.684,2.116C-39.385,25.579-40.901,25.672-42.436,25.475
		L-42.436,25.475z M-41.606,13.759l2.551,7.904c-0.603,0.136-1.22,0.208-1.846,0.208c-4.597,0-8.34-3.742-8.34-8.341
		c0-4.598,3.743-8.339,8.34-8.339c4.598,0,8.341,3.741,8.341,8.339c0,1.347-0.323,2.66-0.937,3.841l-7.005-4.467
		c-0.263-0.168-0.605-0.153-0.854,0.039C-41.603,13.134-41.705,13.461-41.606,13.759L-41.606,13.759z M-24.007,38.214l-6.918-8.955
		c-0.141-0.183-0.358-0.289-0.588-0.289c-0.009,0-0.016,0-0.025,0c-0.239,0.007-0.459,0.131-0.593,0.329l-1.953,2.924l-5.476-16.956
		l15.022,9.581L-27.857,26c-0.228,0.079-0.402,0.261-0.47,0.491c-0.068,0.229-0.023,0.477,0.124,0.667l6.917,8.955L-24.007,38.214z
		 M-24.007,38.214"/>
</g>
<g transform="translate(1 1)">
	<path fill="#34BDB1" d="M-70.906,39c-0.134,0-0.333,0-0.467-0.067c-0.666-0.2-1.134-0.8-1.134-1.533v-6.6
		c0-0.6-0.533-1.133-1.133-1.133h-2.2c-5.134,0-9.334-4.2-9.334-9.333v-12C-85.174,3.2-80.974-1-75.84-1h12
		c5.134,0,9.334,4.2,9.334,9.333v12c0,4.066-2.601,7.6-6.467,8.867c-1.867,0.6-3.467,1.733-4.533,3.333l-4.067,5.8
		C-69.907,38.733-70.373,39-70.906,39z M-75.84,0.333c-4.4,0-8,3.6-8,8v12c0,4.4,3.6,8,8,8h2.2c1.333,0,2.467,1.133,2.467,2.466v6.6
		c0,0.2,0.133,0.2,0.199,0.267c0.067,0,0.2,0.066,0.267-0.066l4.134-5.8c1.267-1.8,3.066-3.066,5.2-3.8
		c3.333-1.067,5.533-4.133,5.533-7.6V8.333c0-4.4-3.6-8-8-8H-75.84z"/>
	<path fill="#34BDB1" d="M-66.507,25.667h-5.333c-1.134,0-2-0.867-2-2s0.866-2,2-2h0.667v-8h-0.667c-1.134,0-2-0.867-2-2
		s0.866-2,2-2h2.666c1.134,0,2.001,0.867,2.001,2v10h0.666c1.133,0,2,0.867,2,2S-65.374,25.667-66.507,25.667z M-71.84,23
		c-0.4,0-0.667,0.266-0.667,0.667c0,0.4,0.267,0.667,0.667,0.667h5.333c0.399,0,0.667-0.267,0.667-0.667
		c0-0.4-0.268-0.667-0.667-0.667h-1.333c-0.399,0-0.667-0.267-0.667-0.667V11.667c0-0.4-0.333-0.667-0.667-0.667h-2.666
		c-0.4,0-0.667,0.266-0.667,0.667c0,0.4,0.267,0.667,0.667,0.667h1.334c0.399,0,0.666,0.266,0.666,0.667v9.333
		c0,0.4-0.267,0.667-0.666,0.667H-71.84z"/>
	<path fill="#34BDB1" d="M-69.84,8.333c-1.466,0-2.667-1.2-2.667-2.667S-71.306,3-69.84,3s2.667,1.2,2.667,2.667
		S-68.374,8.333-69.84,8.333z M-69.84,4.333c-0.733,0-1.333,0.6-1.333,1.333S-70.573,7-69.84,7s1.333-0.6,1.333-1.333
		S-69.106,4.333-69.84,4.333z"/>
</g>
<g>
	<g>
		<defs>
			<rect id="SVGID_1_" x="-102.922" y="46.637" width="39.983" height="37.328"/>
		</defs>
		<clipPath id="SVGID_2_">
			<use xlink:href="#SVGID_1_"  overflow="visible"/>
		</clipPath>
	</g>
	<path fill="#34BDB1" d="M-66.199,71.232h-33.443c-0.353,0-0.639,0.286-0.639,0.638c0,0.353,0.286,0.638,0.639,0.638h33.443
		c0.353,0,0.638-0.285,0.638-0.638C-65.562,71.519-65.847,71.232-66.199,71.232L-66.199,71.232z M-66.199,71.232"/>
	<path fill="#34BDB1" d="M-93.559,69.104h3.403c0.352,0,0.637-0.286,0.637-0.639v-9.26c0-0.353-0.285-0.639-0.637-0.639h-3.403
		c-0.353,0-0.64,0.286-0.64,0.639v9.26C-94.198,68.818-93.911,69.104-93.559,69.104L-93.559,69.104z M-92.921,59.844h2.127v7.984
		h-2.127V59.844z M-92.921,59.844"/>
	<path fill="#34BDB1" d="M-87.603,69.104h3.405c0.353,0,0.639-0.286,0.639-0.639v-12.28c0-0.352-0.286-0.638-0.639-0.638h-3.405
		c-0.352,0-0.638,0.286-0.638,0.638v12.28C-88.24,68.818-87.954,69.104-87.603,69.104L-87.603,69.104z M-86.964,56.824h2.127v11.004
		h-2.127V56.824z M-86.964,56.824"/>
	<path fill="#34BDB1" d="M-81.646,69.104h3.405c0.353,0,0.638-0.286,0.638-0.639V53.331c0-0.352-0.285-0.639-0.638-0.639h-3.405
		c-0.352,0-0.638,0.287-0.638,0.639v15.135C-82.283,68.818-81.997,69.104-81.646,69.104L-81.646,69.104z M-81.006,53.969h2.128
		v13.859h-2.128V53.969z M-81.006,53.969"/>
	<path fill="#34BDB1" d="M-75.687,69.104h3.403c0.352,0,0.639-0.286,0.639-0.639v-6.322c0-0.353-0.287-0.638-0.639-0.638h-3.403
		c-0.353,0-0.639,0.286-0.639,0.638v6.322C-76.325,68.818-76.039,69.104-75.687,69.104L-75.687,69.104z M-75.049,62.781h2.128v5.047
		h-2.128V62.781z M-75.049,62.781"/>
	<g>
		<path fill="none" d="M-64.439,47.924h-36.964c-0.131,0-0.241,0.111-0.241,0.242v28.018c0,0.131,0.11,0.242,0.241,0.242h36.964
			c0.131,0,0.242-0.111,0.242-0.242V48.166C-64.197,48.035-64.309,47.924-64.439,47.924z"/>
		<path fill="#34BDB1" d="M-64.439,46.648h-36.964c-0.837,0-1.519,0.681-1.519,1.518v28.018c0,0.837,0.682,1.519,1.519,1.519h13.942
			v4.884h-6.021c-0.353,0-0.638,0.286-0.638,0.638c0,0.353,0.285,0.639,0.638,0.639h21.122c0.353,0,0.638-0.286,0.638-0.639
			c0-0.352-0.285-0.638-0.638-0.638h-6.02v-4.884h13.94c0.837,0,1.518-0.681,1.518-1.519V48.166
			C-62.922,47.329-63.603,46.648-64.439,46.648z M-64.197,76.184c0,0.131-0.111,0.242-0.242,0.242h-36.964
			c-0.131,0-0.241-0.111-0.241-0.242V48.166c0-0.131,0.11-0.242,0.241-0.242h36.964c0.131,0,0.242,0.111,0.242,0.242V76.184z
			 M-79.657,82.586h-6.527v-4.883h6.527V82.586z"/>
	</g>
</g>
<g>
	<path fill="none" d="M-31.581,52.162h-18.92v4.826c0,0.459,0.373,0.832,0.832,0.832c0.457,0,0.832-0.373,0.832-0.832v-2.997
		c0-0.368,0.297-0.667,0.666-0.667c0.367,0,0.666,0.299,0.666,0.667v2.997c0,1.194-0.971,2.166-2.164,2.166
		c-1.195,0-2.166-0.972-2.166-2.166v-4.826h-2.414v32.667h22.668V52.162z"/>
	<path fill="none" d="M-38.249,67.495h-9.332c-0.369,0-0.668-0.299-0.668-0.667c0-0.369,0.299-0.667,0.668-0.667h9.332
		c0.369,0,0.668,0.298,0.668,0.667C-37.581,67.196-37.88,67.495-38.249,67.495z"/>
	<path fill="none" d="M-38.249,64.828h-9.332c-0.369,0-0.668-0.299-0.668-0.667c0-0.369,0.299-0.667,0.668-0.667h9.332
		c0.369,0,0.668,0.298,0.668,0.667C-37.581,64.529-37.88,64.828-38.249,64.828z"/>
	<path fill="none" d="M-27.575,56.15c-0.002,0-0.004,0-0.006,0v9.697v22.314c0,0.368-0.299,0.667-0.668,0.667"/>
	<path fill="none" d="M-49.669,50.162c-0.402,0-0.738,0.287-0.816,0.667h1.631C-48.931,50.448-49.267,50.162-49.669,50.162z"/>
	<path fill="none" d="M-28.915,54.162h-1.334v31.333c0,0.369-0.299,0.667-0.666,0.667h-21.334v1.333h23.334V54.162z"/>
	<path fill="#34BDB1" d="M-50.247,88.828h21.998c0.369,0,0.668-0.299,0.668-0.667V65.847V56.15v-1.332v-1.323
		c0-0.368-0.299-0.667-0.668-0.667h-1.998v-1.333c0-0.368-0.299-0.667-0.668-0.667h-16.596c-0.086-1.117-1.02-2-2.158-2
		s-2.074,0.883-2.16,2h-3.086c-0.369,0-0.666,0.298-0.666,0.667v34c0,0.369,0.297,0.667,0.666,0.667h1.334v2
		c0,0.368,0.297,0.666,0.666,0.666h1.334L-50.247,88.828z M-49.669,50.162c0.402,0,0.738,0.287,0.814,0.667h-1.631
		C-50.407,50.448-50.071,50.162-49.669,50.162z M-54.249,84.828V52.162h2.414v4.826c0,1.194,0.971,2.166,2.166,2.166
		c1.193,0,2.164-0.972,2.164-2.166v-2.997c0-0.368-0.299-0.667-0.666-0.667c-0.369,0-0.666,0.299-0.666,0.667v2.997
		c0,0.459-0.375,0.832-0.832,0.832c-0.459,0-0.832-0.373-0.832-0.832v-4.826h18.92v32.667H-54.249z M-52.249,87.495v-1.333h21.334
		c0.367,0,0.666-0.298,0.666-0.667V54.162h1.334v33.333H-52.249z"/>
	<path fill="#34BDB1" d="M-38.249,63.495h-9.332c-0.369,0-0.668,0.298-0.668,0.667c0,0.368,0.299,0.667,0.668,0.667h9.332
		c0.369,0,0.668-0.299,0.668-0.667C-37.581,63.793-37.88,63.495-38.249,63.495z"/>
	<path fill="#34BDB1" d="M-38.249,66.162h-9.332c-0.369,0-0.668,0.298-0.668,0.667c0,0.368,0.299,0.667,0.668,0.667h9.332
		c0.369,0,0.668-0.299,0.668-0.667C-37.581,66.46-37.88,66.162-38.249,66.162z"/>
	<path fill="#34BDB1" d="M-38.249,68.724h-9.332c-0.369,0-0.668,0.298-0.668,0.667c0,0.367,0.299,0.666,0.668,0.666h9.332
		c0.369,0,0.668-0.299,0.668-0.666C-37.581,69.022-37.88,68.724-38.249,68.724z"/>
</g>
<g>
	<g>
		<g>
			<g>
				<path fill="#34BDB1" d="M32.479,75.117l-6.344-4.783v-1.92c0-0.264-0.124-0.511-0.333-0.67L13.317,58.33
					c-0.3-0.226-0.712-0.226-1.011,0l-12.484,9.414c-0.21,0.159-0.334,0.406-0.334,0.67v1.92l-6.343,4.783
					c-0.21,0.159-0.334,0.407-0.334,0.67v8.476c0,0.463,0.376,0.839,0.84,0.839h38.321c0.463,0,0.839-0.376,0.839-0.839v-8.476
					C32.812,75.524,32.688,75.276,32.479,75.117L32.479,75.117z M15.396,83.425h-5.17H1.166V68.832l11.646-8.781l11.646,8.781
					v14.593H15.396z M-5.51,76.206l4.998-3.77v10.989H-5.51V76.206z M31.133,83.425h-4.998V72.436l4.998,3.77V83.425z
					 M31.133,83.425"/>
			</g>
			<g>
				<path fill="#34BDB1" d="M-5.844,68.783l18.655-14.068l18.656,14.068c0.151,0.114,0.328,0.169,0.504,0.169
					c0.255,0,0.507-0.115,0.671-0.333c0.279-0.37,0.205-0.897-0.164-1.175L13.317,52.994c-0.3-0.226-0.712-0.226-1.011,0
					L-6.854,67.443c-0.369,0.278-0.444,0.805-0.165,1.175S-6.213,69.062-5.844,68.783L-5.844,68.783z M-5.844,68.783"/>
			</g>
		</g>
	</g>
	<g>
		<path fill="#34BDB1" d="M15.442,85.061h-5.262c-0.39,0-0.705-0.316-0.705-0.705v-7.91c0-0.389,0.315-0.705,0.705-0.705h5.262
			c0.39,0,0.705,0.316,0.705,0.705v7.91C16.147,84.745,15.832,85.061,15.442,85.061z M10.886,83.651h3.852v-6.5h-3.852V83.651z"/>
	</g>
</g>
<g>
	<g>
		<path fill="#FFFFFF" d="M34.897,33.203c3.122-3.518,5.02-8.142,5.02-13.203c0-5.265-2.056-10.058-5.406-13.622
			c-0.003-0.004-0.006-0.007-0.006-0.01C31.013,2.662,26.127,0.287,20.691,0.1l-0.39-0.01c-0.1-0.004-0.201-0.007-0.302-0.007
			s-0.201,0.003-0.301,0.007L19.312,0.1C13.876,0.287,8.987,2.662,5.499,6.367C5.496,6.37,5.493,6.374,5.493,6.377c0,0,0,0-0.004,0
			C2.142,9.942,0.083,14.734,0.083,20c0,5.061,1.901,9.685,5.021,13.203c0.006,0.007,0.006,0.014,0.009,0.021
			c0.015,0.017,0.032,0.023,0.045,0.04c3.507,3.921,8.538,6.446,14.155,6.638l0.387,0.014c0.1,0,0.2,0.002,0.301,0.002
			s0.202-0.002,0.302-0.006l0.386-0.01h0.004c5.62-0.192,10.657-2.723,14.165-6.651c0.008-0.014,0.023-0.017,0.029-0.03
			C34.894,33.216,34.894,33.209,34.897,33.203L34.897,33.203z M1.475,20.687h8.244c0.076,2.912,0.646,5.741,1.659,8.391
			c-1.955,0.708-3.823,1.654-5.574,2.837C3.232,28.854,1.629,24.953,1.475,20.687L1.475,20.687z M6.18,7.655
			c1.71,1.11,3.528,1.999,5.427,2.667c-1.161,2.82-1.805,5.862-1.888,8.99H1.475C1.639,14.845,3.387,10.774,6.18,7.655L6.18,7.655z
			 M38.528,19.312h-8.246c-0.084-3.128-0.725-6.17-1.888-8.99c1.897-0.668,3.72-1.557,5.427-2.667
			C36.614,10.774,38.365,14.845,38.528,19.312L38.528,19.312z M19.312,10.358c-1.985-0.054-3.934-0.353-5.815-0.879
			c1.393-2.857,3.357-5.436,5.815-7.583V10.358z M19.312,11.733v7.579h-8.22c0.085-2.984,0.711-5.881,1.831-8.564
			C14.986,11.344,17.129,11.676,19.312,11.733L19.312,11.733z M20.688,11.733c2.184-0.057,4.326-0.389,6.392-0.986
			c1.12,2.683,1.748,5.581,1.832,8.564h-8.224V11.733z M20.688,10.358V1.896c2.462,2.146,4.427,4.726,5.818,7.583
			C24.621,10.006,22.673,10.304,20.688,10.358L20.688,10.358z M27.838,9.061c-1.321-2.764-3.153-5.282-5.419-7.442
			c4.023,0.527,7.643,2.345,10.429,5.028C31.265,7.648,29.585,8.457,27.838,9.061L27.838,9.061z M12.166,9.061
			c-1.751-0.604-3.431-1.413-5.011-2.415c2.787-2.683,6.406-4.501,10.427-5.028C15.315,3.778,13.483,6.297,12.166,9.061
			L12.166,9.061z M11.093,20.687h8.22v6.895c-2.271,0.061-4.494,0.413-6.633,1.057C11.714,26.13,11.17,23.447,11.093,20.687
			L11.093,20.687z M19.312,28.954v9.148c-2.632-2.297-4.695-5.088-6.1-8.186C15.182,29.336,17.227,29.014,19.312,28.954
			L19.312,28.954z M20.688,38.103v-9.148c2.087,0.06,4.131,0.382,6.1,0.962C25.387,33.015,23.319,35.805,20.688,38.103
			L20.688,38.103z M20.688,27.582v-6.895h8.224c-0.077,2.76-0.622,5.443-1.59,7.955C25.185,27.995,22.959,27.643,20.688,27.582
			L20.688,27.582z M30.282,20.687h8.246c-0.157,4.266-1.757,8.167-4.332,11.228c-1.751-1.184-3.618-2.129-5.571-2.837
			C29.639,26.428,30.205,23.599,30.282,20.687L30.282,20.687z M6.739,32.944c1.624-1.079,3.354-1.948,5.162-2.595
			c1.338,2.991,3.254,5.721,5.681,8.032C13.356,37.828,9.578,35.852,6.739,32.944L6.739,32.944z M22.419,38.381
			c2.427-2.311,4.345-5.038,5.68-8.032c1.808,0.647,3.539,1.516,5.165,2.595C30.423,35.852,26.645,37.828,22.419,38.381
			L22.419,38.381z M22.419,38.381"/>
		<path fill="#FFFFFF" d="M20,40l-0.691-0.016c-5.487-0.187-10.535-2.554-14.214-6.665c-0.021-0.018-0.033-0.027-0.046-0.042
			L5.034,33.25C1.787,29.582,0,24.877,0,20c0-5.094,1.928-9.952,5.428-13.68l0.025-0.026c3.648-3.866,8.567-6.095,13.856-6.277
			l0.412-0.011c0.187-0.006,0.371-0.006,0.561,0l0.411,0.011c5.293,0.183,10.22,2.417,13.872,6.293l0.022,0.028
			C38.078,10.061,40,14.911,40,20c0,4.883-1.786,9.587-5.029,13.247l-0.019,0.029l-0.031,0.026
			c-3.629,4.063-8.813,6.498-14.228,6.682l-0.39,0.01C20.204,39.998,20.102,40,20,40z M5.184,33.174
			c0.016,0.012,0.027,0.022,0.039,0.037c3.645,4.073,8.65,6.42,14.092,6.605L20,39.833c0.101,0,0.199-0.002,0.3-0.005l0.387-0.011
			c5.37-0.182,10.511-2.596,14.108-6.622c0-0.008,0.02-0.021,0.028-0.027l0.014-0.027l0.004,0c3.219-3.63,4.992-8.297,4.992-13.141
			c0-5.055-1.912-9.872-5.383-13.565l-0.023-0.028c-3.62-3.833-8.498-6.042-13.738-6.223l-0.413-0.012
			c-0.183-0.006-0.367-0.006-0.549,0l-0.412,0.012C14.07,0.364,9.191,2.574,5.576,6.407v0.054H5.525
			C2.07,10.154,0.166,14.961,0.166,20c0,4.842,1.776,9.511,5,13.148L5.184,33.174z M22.175,38.497l0.186-0.177
			c2.414-2.296,4.318-4.989,5.662-8.004l0.032-0.072l0.072,0.027c1.813,0.649,3.558,1.526,5.183,2.604l0.085,0.057l-0.071,0.072
			c-2.914,2.983-6.783,4.923-10.894,5.46L22.175,38.497z M28.144,30.454c-1.316,2.929-3.159,5.555-5.481,7.808
			c3.944-0.573,7.651-2.449,10.471-5.304C31.564,31.927,29.887,31.085,28.144,30.454z M17.826,38.497l-0.255-0.033
			c-4.111-0.538-7.979-2.477-10.892-5.46L6.61,32.931l0.084-0.057c1.622-1.078,3.365-1.955,5.18-2.604l0.071-0.025l0.033,0.071
			c1.352,3.022,3.256,5.716,5.661,8.004L17.826,38.497z M6.87,32.958c2.817,2.854,6.522,4.73,10.468,5.304
			c-2.313-2.246-4.156-4.872-5.48-7.808C10.113,31.084,8.437,31.927,6.87,32.958z M20.604,38.287v-9.419l0.086,0.002
			c2.093,0.061,4.152,0.385,6.12,0.966l0.093,0.027l-0.04,0.087c-1.423,3.148-3.482,5.913-6.12,8.215L20.604,38.287z M20.771,29.04
			v8.878c2.529-2.241,4.514-4.914,5.899-7.949C24.772,29.417,22.787,29.105,20.771,29.04z M19.396,38.287l-0.138-0.121
			c-2.631-2.296-4.69-5.06-6.122-8.215l-0.039-0.087l0.092-0.027c1.969-0.581,4.028-0.906,6.121-0.966l0.086-0.002V38.287z
			 M13.328,29.969c1.394,3.041,3.379,5.714,5.9,7.949V29.04C17.213,29.105,15.228,29.417,13.328,29.969z M5.789,32.027L5.74,31.968
			c-2.694-3.207-4.197-7.107-4.349-11.278l-0.003-0.087H9.8l0.002,0.082c0.075,2.874,0.632,5.687,1.654,8.362l0.029,0.08
			l-0.079,0.029c-1.963,0.711-3.832,1.664-5.556,2.829L5.789,32.027z M1.562,20.771c0.165,4.077,1.637,7.888,4.258,11.033
			c1.692-1.137,3.525-2.071,5.449-2.775c-1-2.644-1.549-5.422-1.633-8.257H1.562z M34.211,32.027l-0.062-0.042
			c-1.723-1.165-3.591-2.117-5.552-2.829l-0.079-0.029l0.029-0.08c1.02-2.664,1.575-5.478,1.652-8.362l0.002-0.082h8.414
			l-0.003,0.087c-0.154,4.177-1.659,8.077-4.353,11.278L34.211,32.027z M28.733,29.028c1.921,0.705,3.753,1.638,5.446,2.775
			c2.62-3.14,4.093-6.952,4.263-11.033h-8.079C30.279,23.617,29.73,26.395,28.733,29.028z M27.372,28.745l-0.075-0.022
			c-2.111-0.64-4.336-0.996-6.61-1.057l-0.082-0.001v-7.06h8.393l-0.003,0.086c-0.077,2.75-0.613,5.437-1.595,7.982L27.372,28.745z
			 M20.771,27.501c2.235,0.067,4.421,0.416,6.5,1.039c0.947-2.48,1.469-5.093,1.553-7.77h-8.053V27.501z M12.629,28.741
			l-0.027-0.072c-0.98-2.544-1.516-5.229-1.593-7.979l-0.002-0.086h8.389v7.06l-0.081,0.001c-2.269,0.062-4.492,0.416-6.61,1.054
			L12.629,28.741z M11.18,20.771c0.084,2.675,0.604,5.287,1.55,7.766c2.086-0.62,4.271-0.969,6.499-1.035v-6.73H11.18z
			 M38.615,19.395h-8.414l-0.002-0.081c-0.084-3.122-0.717-6.137-1.883-8.961l-0.033-0.082l0.083-0.029
			c1.91-0.672,3.729-1.566,5.408-2.658l0.061-0.039l0.048,0.053c2.891,3.227,4.57,7.385,4.729,11.709L38.615,19.395z M30.363,19.228
			h8.079c-0.176-4.23-1.819-8.295-4.637-11.464c-1.649,1.065-3.431,1.942-5.302,2.607C29.646,13.166,30.271,16.145,30.363,19.228z
			 M28.997,19.395h-8.393v-7.744l0.082-0.001c2.165-0.057,4.309-0.387,6.369-0.983l0.072-0.021l0.028,0.069
			c1.136,2.717,1.754,5.609,1.838,8.594L28.997,19.395z M20.771,19.228h8.053c-0.092-2.909-0.696-5.728-1.793-8.38
			c-2.028,0.58-4.133,0.904-6.26,0.966V19.228z M19.396,19.395h-8.389l0.002-0.086c0.084-2.983,0.703-5.875,1.838-8.594l0.029-0.069
			l0.071,0.021c2.059,0.596,4.2,0.926,6.367,0.983l0.081,0.001V19.395z M11.18,19.228h8.049v-7.414
			c-2.129-0.062-4.231-0.387-6.256-0.966C11.874,13.502,11.271,16.32,11.18,19.228z M9.8,19.395H1.388l0.004-0.087
			c0.158-4.325,1.837-8.483,4.727-11.709l0.048-0.053l0.06,0.039c1.686,1.094,3.505,1.988,5.408,2.658l0.083,0.029l-0.033,0.081
			c-1.166,2.833-1.799,5.847-1.882,8.961L9.8,19.395z M1.562,19.228h8.074c0.092-3.076,0.717-6.055,1.859-8.857
			C9.633,9.708,7.851,8.832,6.195,7.764C3.38,10.932,1.736,14.997,1.562,19.228z M20.604,10.444V1.713l0.139,0.121
			c2.459,2.146,4.423,4.706,5.838,7.609l0.044,0.09L26.529,9.56c-1.902,0.532-3.866,0.829-5.839,0.882L20.604,10.444z M20.771,2.082
			v8.19c1.896-0.058,3.785-0.343,5.615-0.846C25.013,6.634,23.124,4.164,20.771,2.082z M19.396,10.444l-0.085-0.002
			c-1.974-0.053-3.937-0.35-5.836-0.882l-0.096-0.027l0.044-0.09c1.414-2.902,3.376-5.462,5.835-7.609l0.138-0.121V10.444z
			 M13.617,9.426c1.827,0.503,3.714,0.788,5.611,0.846v-8.19C16.877,4.166,14.99,6.635,13.617,9.426z M27.794,9.164l-0.031-0.067
			c-1.324-2.767-3.142-5.263-5.402-7.417l-0.186-0.176l0.255,0.033c3.959,0.518,7.582,2.265,10.476,5.05l0.076,0.074l-0.089,0.057
			c-1.582,1.001-3.273,1.816-5.027,2.423L27.794,9.164z M22.661,1.736c2.172,2.11,3.927,4.538,5.219,7.221
			c1.684-0.588,3.309-1.37,4.832-2.325C29.919,3.974,26.452,2.285,22.661,1.736z M12.209,9.164l-0.07-0.024
			c-1.758-0.607-3.45-1.422-5.028-2.423L7.021,6.66l0.076-0.074c2.894-2.786,6.516-4.532,10.474-5.05l0.254-0.033L17.64,1.679
			c-2.264,2.157-4.08,4.653-5.398,7.417L12.209,9.164z M7.291,6.632c1.521,0.955,3.146,1.737,4.832,2.325
			c1.287-2.681,3.042-5.108,5.216-7.221C13.55,2.285,10.084,3.974,7.291,6.632z"/>
	</g>
</g>
</svg>
