<?xml version="1.0" encoding="utf-8"?>
<!-- Generator: Adobe Illustrator 16.0.0, SVG Export Plug-In . SVG Version: 6.00 Build 0)  -->
<!DOCTYPE svg PUBLIC "-//W3C//DTD SVG 1.1//EN" "http://www.w3.org/Graphics/SVG/1.1/DTD/svg11.dtd">
<svg version="1.1" id="Layer_1" xmlns="http://www.w3.org/2000/svg" xmlns:xlink="http://www.w3.org/1999/xlink" x="0px" y="0px"
	 width="40px" height="40px" viewBox="0 0 40 40" enable-background="new 0 0 40 40" xml:space="preserve">
<g>
	<path fill="#35BDB0" d="M-19.656,35.792l-6.74-8.727l3.797-1.316c0.27-0.094,0.462-0.333,0.495-0.616
		c0.034-0.283-0.099-0.56-0.338-0.714l-6.668-4.251c0.856-1.513,1.402-3.164,1.629-4.916c0.459-3.584-0.503-7.133-2.713-9.993
		c-2.21-2.86-5.399-4.689-8.983-5.148c-3.585-0.46-7.134,0.503-9.994,2.712c-2.859,2.209-4.688,5.4-5.147,8.983
		c-0.461,3.584,0.502,7.133,2.712,9.994c2.208,2.859,5.398,4.688,8.983,5.147c0.585,0.075,1.17,0.113,1.75,0.113
		c1.156,0,2.299-0.151,3.416-0.448l2.432,7.527c0.087,0.272,0.321,0.469,0.604,0.508c0.281,0.039,0.562-0.086,0.721-0.323
		l2.231-3.341l6.741,8.726c0.12,0.155,0.298,0.257,0.493,0.283C-24.204,39.998-24.171,40-24.142,40c0.164,0,0.324-0.054,0.456-0.155
		l3.896-3.011C-19.464,36.584-19.404,36.117-19.656,35.792L-19.656,35.792z M-42.436,25.475c-3.19-0.41-6.029-2.037-7.996-4.582
		c-1.968-2.546-2.825-5.705-2.414-8.896c0.408-3.19,2.037-6.03,4.582-7.997c2.547-1.966,5.707-2.824,8.896-2.414
		s6.03,2.038,7.997,4.583c1.966,2.546,2.822,5.705,2.414,8.896c-0.197,1.533-0.672,2.977-1.408,4.305l-1.876-1.196
		c0.765-1.421,1.164-3.012,1.164-4.642c0-5.419-4.406-9.826-9.825-9.826c-5.416,0-9.826,4.407-9.826,9.826
		c0,5.418,4.41,9.827,9.826,9.827c0.781,0,1.553-0.092,2.304-0.274l0.684,2.116C-39.385,25.579-40.901,25.672-42.436,25.475
		L-42.436,25.475z M-41.606,13.759l2.551,7.904c-0.603,0.136-1.22,0.208-1.846,0.208c-4.597,0-8.34-3.742-8.34-8.341
		c0-4.598,3.743-8.339,8.34-8.339c4.598,0,8.341,3.741,8.341,8.339c0,1.347-0.323,2.66-0.937,3.841l-7.005-4.467
		c-0.263-0.168-0.605-0.153-0.854,0.039C-41.603,13.134-41.705,13.461-41.606,13.759L-41.606,13.759z M-24.007,38.214l-6.918-8.955
		c-0.141-0.183-0.358-0.289-0.588-0.289c-0.009,0-0.016,0-0.025,0c-0.239,0.007-0.459,0.131-0.593,0.329l-1.953,2.924l-5.476-16.956
		l15.022,9.581L-27.857,26c-0.228,0.079-0.402,0.261-0.47,0.491c-0.068,0.229-0.023,0.477,0.124,0.667l6.917,8.955L-24.007,38.214z
		 M-24.007,38.214"/>
</g>
<g transform="translate(1 1)">
	<path fill="#34BDB1" d="M17.934,39c-0.134,0-0.333,0-0.467-0.067c-0.666-0.2-1.134-0.8-1.134-1.533v-6.6
		c0-0.6-0.533-1.133-1.133-1.133H13c-5.134,0-9.334-4.2-9.334-9.333v-12C3.666,3.2,7.866-1,13-1h12c5.134,0,9.334,4.2,9.334,9.333
		v12c0,4.066-2.601,7.6-6.467,8.867C26,29.8,24.4,30.933,23.334,32.533l-4.067,5.8C18.933,38.733,18.467,39,17.934,39z M13,0.333
		c-4.4,0-8,3.6-8,8v12c0,4.4,3.6,8,8,8h2.2c1.333,0,2.467,1.133,2.467,2.466v6.6c0,0.2,0.133,0.2,0.199,0.267
		c0.067,0,0.2,0.066,0.267-0.066l4.134-5.8c1.267-1.8,3.066-3.066,5.2-3.8C30.8,26.933,33,23.867,33,20.4V8.333c0-4.4-3.6-8-8-8H13z
		"/>
	<path fill="#34BDB1" d="M22.333,25.667H17c-1.134,0-2-0.867-2-2s0.866-2,2-2h0.667v-8H17c-1.134,0-2-0.867-2-2s0.866-2,2-2h2.666
		c1.134,0,2.001,0.867,2.001,2v10h0.666c1.133,0,2,0.867,2,2S23.466,25.667,22.333,25.667z M17,23c-0.4,0-0.667,0.266-0.667,0.667
		c0,0.4,0.267,0.667,0.667,0.667h5.333c0.399,0,0.667-0.267,0.667-0.667c0-0.4-0.268-0.667-0.667-0.667H21
		c-0.399,0-0.667-0.267-0.667-0.667V11.667c0-0.4-0.333-0.667-0.667-0.667H17c-0.4,0-0.667,0.266-0.667,0.667
		c0,0.4,0.267,0.667,0.667,0.667h1.334C18.733,12.333,19,12.6,19,13v9.333c0,0.4-0.267,0.667-0.666,0.667H17z"/>
	<path fill="#34BDB1" d="M19,8.333c-1.466,0-2.667-1.2-2.667-2.667S17.534,3,19,3s2.667,1.2,2.667,2.667S20.466,8.333,19,8.333z
		 M19,4.333c-0.733,0-1.333,0.6-1.333,1.333S18.267,7,19,7s1.333-0.6,1.333-1.333S19.733,4.333,19,4.333z"/>
</g>
</svg>
