<?xml version="1.0" encoding="utf-8"?>
<!-- Generator: Adobe Illustrator 16.0.0, SVG Export Plug-In . SVG Version: 6.00 Build 0)  -->
<!DOCTYPE svg PUBLIC "-//W3C//DTD SVG 1.1//EN" "http://www.w3.org/Graphics/SVG/1.1/DTD/svg11.dtd">
<svg version="1.1" id="Layer_1" xmlns="http://www.w3.org/2000/svg" xmlns:xlink="http://www.w3.org/1999/xlink" x="0px" y="0px"
	 width="40px" height="40px" viewBox="0 0 40 40" enable-background="new 0 0 40 40" xml:space="preserve">
<g>
	<path fill="#35BDB0" d="M-19.656,35.792l-6.74-8.727l3.797-1.316c0.27-0.094,0.462-0.333,0.495-0.616
		c0.034-0.283-0.099-0.56-0.338-0.714l-6.668-4.251c0.856-1.513,1.402-3.164,1.629-4.916c0.459-3.584-0.503-7.133-2.713-9.993
		c-2.21-2.86-5.399-4.689-8.983-5.148c-3.585-0.46-7.134,0.503-9.994,2.712c-2.859,2.209-4.688,5.4-5.147,8.983
		c-0.461,3.584,0.502,7.133,2.712,9.994c2.208,2.859,5.398,4.688,8.983,5.147c0.585,0.075,1.17,0.113,1.75,0.113
		c1.156,0,2.299-0.151,3.416-0.448l2.432,7.527c0.087,0.272,0.321,0.469,0.604,0.508c0.281,0.039,0.562-0.086,0.721-0.323
		l2.231-3.341l6.741,8.726c0.12,0.155,0.298,0.257,0.493,0.283C-24.204,39.998-24.171,40-24.142,40c0.164,0,0.324-0.054,0.456-0.155
		l3.896-3.011C-19.464,36.584-19.404,36.117-19.656,35.792L-19.656,35.792z M-42.436,25.475c-3.19-0.41-6.029-2.037-7.996-4.582
		c-1.968-2.546-2.825-5.705-2.414-8.896c0.408-3.19,2.037-6.03,4.582-7.997c2.547-1.966,5.707-2.824,8.896-2.414
		s6.03,2.038,7.997,4.583c1.966,2.546,2.822,5.705,2.414,8.896c-0.197,1.533-0.672,2.977-1.408,4.305l-1.876-1.196
		c0.765-1.421,1.164-3.012,1.164-4.642c0-5.419-4.406-9.826-9.825-9.826c-5.416,0-9.826,4.407-9.826,9.826
		c0,5.418,4.41,9.827,9.826,9.827c0.781,0,1.553-0.092,2.304-0.274l0.684,2.116C-39.385,25.579-40.901,25.672-42.436,25.475
		L-42.436,25.475z M-41.606,13.759l2.551,7.904c-0.603,0.136-1.22,0.208-1.846,0.208c-4.597,0-8.34-3.742-8.34-8.341
		c0-4.598,3.743-8.339,8.34-8.339c4.598,0,8.341,3.741,8.341,8.339c0,1.347-0.323,2.66-0.937,3.841l-7.005-4.467
		c-0.263-0.168-0.605-0.153-0.854,0.039C-41.603,13.134-41.705,13.461-41.606,13.759L-41.606,13.759z M-24.007,38.214l-6.918-8.955
		c-0.141-0.183-0.358-0.289-0.588-0.289c-0.009,0-0.016,0-0.025,0c-0.239,0.007-0.459,0.131-0.593,0.329l-1.953,2.924l-5.476-16.956
		l15.022,9.581L-27.857,26c-0.228,0.079-0.402,0.261-0.47,0.491c-0.068,0.229-0.023,0.477,0.124,0.667l6.917,8.955L-24.007,38.214z
		 M-24.007,38.214"/>
</g>
<g transform="translate(1 1)">
	<path fill="#34BDB1" d="M-70.906,39c-0.134,0-0.333,0-0.467-0.067c-0.666-0.2-1.134-0.8-1.134-1.533v-6.6
		c0-0.6-0.533-1.133-1.133-1.133h-2.2c-5.134,0-9.334-4.2-9.334-9.333v-12C-85.174,3.2-80.974-1-75.84-1h12
		c5.134,0,9.334,4.2,9.334,9.333v12c0,4.066-2.601,7.6-6.467,8.867c-1.867,0.6-3.467,1.733-4.533,3.333l-4.067,5.8
		C-69.907,38.733-70.373,39-70.906,39z M-75.84,0.333c-4.4,0-8,3.6-8,8v12c0,4.4,3.6,8,8,8h2.2c1.333,0,2.467,1.133,2.467,2.466v6.6
		c0,0.2,0.133,0.2,0.199,0.267c0.067,0,0.2,0.066,0.267-0.066l4.134-5.8c1.267-1.8,3.066-3.066,5.2-3.8
		c3.333-1.067,5.533-4.133,5.533-7.6V8.333c0-4.4-3.6-8-8-8H-75.84z"/>
	<path fill="#34BDB1" d="M-66.507,25.667h-5.333c-1.134,0-2-0.867-2-2s0.866-2,2-2h0.667v-8h-0.667c-1.134,0-2-0.867-2-2
		s0.866-2,2-2h2.666c1.134,0,2.001,0.867,2.001,2v10h0.666c1.133,0,2,0.867,2,2S-65.374,25.667-66.507,25.667z M-71.84,23
		c-0.4,0-0.667,0.266-0.667,0.667c0,0.4,0.267,0.667,0.667,0.667h5.333c0.399,0,0.667-0.267,0.667-0.667
		c0-0.4-0.268-0.667-0.667-0.667h-1.333c-0.399,0-0.667-0.267-0.667-0.667V11.667c0-0.4-0.333-0.667-0.667-0.667h-2.666
		c-0.4,0-0.667,0.266-0.667,0.667c0,0.4,0.267,0.667,0.667,0.667h1.334c0.399,0,0.666,0.266,0.666,0.667v9.333
		c0,0.4-0.267,0.667-0.666,0.667H-71.84z"/>
	<path fill="#34BDB1" d="M-69.84,8.333c-1.466,0-2.667-1.2-2.667-2.667S-71.306,3-69.84,3s2.667,1.2,2.667,2.667
		S-68.374,8.333-69.84,8.333z M-69.84,4.333c-0.733,0-1.333,0.6-1.333,1.333S-70.573,7-69.84,7s1.333-0.6,1.333-1.333
		S-69.106,4.333-69.84,4.333z"/>
</g>
<g>
	<g>
		<defs>
			<rect id="SVGID_1_" y="1.336" width="39.983" height="37.328"/>
		</defs>
		<clipPath id="SVGID_2_">
			<use xlink:href="#SVGID_1_"  overflow="visible"/>
		</clipPath>
	</g>
	<path fill="#34BDB1" d="M36.723,25.931H3.279c-0.353,0-0.639,0.286-0.639,0.638c0,0.353,0.286,0.638,0.639,0.638h33.443
		c0.353,0,0.638-0.285,0.638-0.638C37.36,26.217,37.075,25.931,36.723,25.931L36.723,25.931z M36.723,25.931"/>
	<path fill="#34BDB1" d="M9.363,23.803h3.403c0.352,0,0.637-0.286,0.637-0.639v-9.26c0-0.353-0.285-0.639-0.637-0.639H9.363
		c-0.353,0-0.64,0.286-0.64,0.639v9.26C8.724,23.517,9.011,23.803,9.363,23.803L9.363,23.803z M10.001,14.543h2.127v7.984h-2.127
		V14.543z M10.001,14.543"/>
	<path fill="#34BDB1" d="M15.319,23.803h3.405c0.353,0,0.639-0.286,0.639-0.639v-12.28c0-0.352-0.286-0.638-0.639-0.638h-3.405
		c-0.352,0-0.638,0.286-0.638,0.638v12.28C14.682,23.517,14.968,23.803,15.319,23.803L15.319,23.803z M15.958,11.523h2.127v11.004
		h-2.127V11.523z M15.958,11.523"/>
	<path fill="#34BDB1" d="M21.276,23.803h3.405c0.353,0,0.638-0.286,0.638-0.639V8.029c0-0.352-0.285-0.639-0.638-0.639h-3.405
		c-0.352,0-0.638,0.287-0.638,0.639v15.135C20.639,23.517,20.925,23.803,21.276,23.803L21.276,23.803z M21.916,8.667h2.128v13.859
		h-2.128V8.667z M21.916,8.667"/>
	<path fill="#34BDB1" d="M27.235,23.803h3.403c0.352,0,0.639-0.286,0.639-0.639v-6.322c0-0.353-0.287-0.638-0.639-0.638h-3.403
		c-0.353,0-0.639,0.286-0.639,0.638v6.322C26.597,23.517,26.883,23.803,27.235,23.803L27.235,23.803z M27.873,17.48h2.128v5.047
		h-2.128V17.48z M27.873,17.48"/>
	<g>
		<path fill="none" d="M38.482,2.623H1.519c-0.131,0-0.241,0.111-0.241,0.242v28.018c0,0.131,0.11,0.242,0.241,0.242h36.964
			c0.131,0,0.242-0.111,0.242-0.242V2.865C38.725,2.734,38.613,2.623,38.482,2.623z"/>
		<path fill="#34BDB1" d="M38.482,1.347H1.519C0.682,1.347,0,2.028,0,2.865v28.018c0,0.837,0.682,1.519,1.519,1.519h13.942v4.884
			H9.439c-0.353,0-0.638,0.286-0.638,0.638c0,0.353,0.285,0.639,0.638,0.639h21.122c0.353,0,0.638-0.286,0.638-0.639
			c0-0.352-0.285-0.638-0.638-0.638h-6.02v-4.884h13.94c0.837,0,1.518-0.681,1.518-1.519V2.865C40,2.028,39.319,1.347,38.482,1.347z
			 M38.725,30.883c0,0.131-0.111,0.242-0.242,0.242H1.519c-0.131,0-0.241-0.111-0.241-0.242V2.865c0-0.131,0.11-0.242,0.241-0.242
			h36.964c0.131,0,0.242,0.111,0.242,0.242V30.883z M23.265,37.285h-6.527v-4.883h6.527V37.285z"/>
	</g>
</g>
</svg>
