<?xml version="1.0" encoding="utf-8"?>
<!-- Generator: Adobe Illustrator 16.0.0, SVG Export Plug-In . SVG Version: 6.00 Build 0)  -->
<!DOCTYPE svg PUBLIC "-//W3C//DTD SVG 1.1//EN" "http://www.w3.org/Graphics/SVG/1.1/DTD/svg11.dtd">
<svg version="1.1" id="Layer_1" xmlns="http://www.w3.org/2000/svg" xmlns:xlink="http://www.w3.org/1999/xlink" x="0px" y="0px"
	 width="40px" height="40px" viewBox="0 0 40 40" enable-background="new 0 0 40 40" xml:space="preserve">
<g>
	<path fill="#35BDB0" d="M-19.656,35.792l-6.74-8.727l3.797-1.316c0.27-0.094,0.462-0.333,0.495-0.616
		c0.034-0.283-0.099-0.56-0.338-0.714l-6.668-4.251c0.856-1.513,1.402-3.164,1.629-4.916c0.459-3.584-0.503-7.133-2.713-9.993
		c-2.21-2.86-5.399-4.689-8.983-5.148c-3.585-0.46-7.134,0.503-9.994,2.712c-2.859,2.209-4.688,5.4-5.147,8.983
		c-0.461,3.584,0.502,7.133,2.712,9.994c2.208,2.859,5.398,4.688,8.983,5.147c0.585,0.075,1.17,0.113,1.75,0.113
		c1.156,0,2.299-0.151,3.416-0.448l2.432,7.527c0.087,0.272,0.321,0.469,0.604,0.508c0.281,0.039,0.562-0.086,0.721-0.323
		l2.231-3.341l6.741,8.726c0.12,0.155,0.298,0.257,0.493,0.283C-24.204,39.998-24.171,40-24.142,40c0.164,0,0.324-0.054,0.456-0.155
		l3.896-3.011C-19.464,36.584-19.404,36.117-19.656,35.792L-19.656,35.792z M-42.436,25.475c-3.19-0.41-6.029-2.037-7.996-4.582
		c-1.968-2.546-2.825-5.705-2.414-8.896c0.408-3.19,2.037-6.03,4.582-7.997c2.547-1.966,5.707-2.824,8.896-2.414
		s6.03,2.038,7.997,4.583c1.966,2.546,2.822,5.705,2.414,8.896c-0.197,1.533-0.672,2.977-1.408,4.305l-1.876-1.196
		c0.765-1.421,1.164-3.012,1.164-4.642c0-5.419-4.406-9.826-9.825-9.826c-5.416,0-9.826,4.407-9.826,9.826
		c0,5.418,4.41,9.827,9.826,9.827c0.781,0,1.553-0.092,2.304-0.274l0.684,2.116C-39.385,25.579-40.901,25.672-42.436,25.475
		L-42.436,25.475z M-41.606,13.759l2.551,7.904c-0.603,0.136-1.22,0.208-1.846,0.208c-4.597,0-8.34-3.742-8.34-8.341
		c0-4.598,3.743-8.339,8.34-8.339c4.598,0,8.341,3.741,8.341,8.339c0,1.347-0.323,2.66-0.937,3.841l-7.005-4.467
		c-0.263-0.168-0.605-0.153-0.854,0.039C-41.603,13.134-41.705,13.461-41.606,13.759L-41.606,13.759z M-24.007,38.214l-6.918-8.955
		c-0.141-0.183-0.358-0.289-0.588-0.289c-0.009,0-0.016,0-0.025,0c-0.239,0.007-0.459,0.131-0.593,0.329l-1.953,2.924l-5.476-16.956
		l15.022,9.581L-27.857,26c-0.228,0.079-0.402,0.261-0.47,0.491c-0.068,0.229-0.023,0.477,0.124,0.667l6.917,8.955L-24.007,38.214z
		 M-24.007,38.214"/>
</g>
<g transform="translate(1 1)">
	<path fill="#34BDB1" d="M-70.906,39c-0.134,0-0.333,0-0.467-0.067c-0.666-0.2-1.134-0.8-1.134-1.533v-6.6
		c0-0.6-0.533-1.133-1.133-1.133h-2.2c-5.134,0-9.334-4.2-9.334-9.333v-12C-85.174,3.2-80.974-1-75.84-1h12
		c5.134,0,9.334,4.2,9.334,9.333v12c0,4.066-2.601,7.6-6.467,8.867c-1.867,0.6-3.467,1.733-4.533,3.333l-4.067,5.8
		C-69.907,38.733-70.373,39-70.906,39z M-75.84,0.333c-4.4,0-8,3.6-8,8v12c0,4.4,3.6,8,8,8h2.2c1.333,0,2.467,1.133,2.467,2.466v6.6
		c0,0.2,0.133,0.2,0.199,0.267c0.067,0,0.2,0.066,0.267-0.066l4.134-5.8c1.267-1.8,3.066-3.066,5.2-3.8
		c3.333-1.067,5.533-4.133,5.533-7.6V8.333c0-4.4-3.6-8-8-8H-75.84z"/>
	<path fill="#34BDB1" d="M-66.507,25.667h-5.333c-1.134,0-2-0.867-2-2s0.866-2,2-2h0.667v-8h-0.667c-1.134,0-2-0.867-2-2
		s0.866-2,2-2h2.666c1.134,0,2.001,0.867,2.001,2v10h0.666c1.133,0,2,0.867,2,2S-65.374,25.667-66.507,25.667z M-71.84,23
		c-0.4,0-0.667,0.266-0.667,0.667c0,0.4,0.267,0.667,0.667,0.667h5.333c0.399,0,0.667-0.267,0.667-0.667
		c0-0.4-0.268-0.667-0.667-0.667h-1.333c-0.399,0-0.667-0.267-0.667-0.667V11.667c0-0.4-0.333-0.667-0.667-0.667h-2.666
		c-0.4,0-0.667,0.266-0.667,0.667c0,0.4,0.267,0.667,0.667,0.667h1.334c0.399,0,0.666,0.266,0.666,0.667v9.333
		c0,0.4-0.267,0.667-0.666,0.667H-71.84z"/>
	<path fill="#34BDB1" d="M-69.84,8.333c-1.466,0-2.667-1.2-2.667-2.667S-71.306,3-69.84,3s2.667,1.2,2.667,2.667
		S-68.374,8.333-69.84,8.333z M-69.84,4.333c-0.733,0-1.333,0.6-1.333,1.333S-70.573,7-69.84,7s1.333-0.6,1.333-1.333
		S-69.106,4.333-69.84,4.333z"/>
</g>
<g>
	<g>
		<defs>
			<rect id="SVGID_1_" x="-102.922" y="46.637" width="39.983" height="37.328"/>
		</defs>
		<clipPath id="SVGID_2_">
			<use xlink:href="#SVGID_1_"  overflow="visible"/>
		</clipPath>
	</g>
	<path fill="#34BDB1" d="M-66.199,71.232h-33.443c-0.353,0-0.639,0.286-0.639,0.638c0,0.353,0.286,0.638,0.639,0.638h33.443
		c0.353,0,0.638-0.285,0.638-0.638C-65.562,71.519-65.847,71.232-66.199,71.232L-66.199,71.232z M-66.199,71.232"/>
	<path fill="#34BDB1" d="M-93.559,69.104h3.403c0.352,0,0.637-0.286,0.637-0.639v-9.26c0-0.353-0.285-0.639-0.637-0.639h-3.403
		c-0.353,0-0.64,0.286-0.64,0.639v9.26C-94.198,68.818-93.911,69.104-93.559,69.104L-93.559,69.104z M-92.921,59.844h2.127v7.984
		h-2.127V59.844z M-92.921,59.844"/>
	<path fill="#34BDB1" d="M-87.603,69.104h3.405c0.353,0,0.639-0.286,0.639-0.639v-12.28c0-0.352-0.286-0.638-0.639-0.638h-3.405
		c-0.352,0-0.638,0.286-0.638,0.638v12.28C-88.24,68.818-87.954,69.104-87.603,69.104L-87.603,69.104z M-86.964,56.824h2.127v11.004
		h-2.127V56.824z M-86.964,56.824"/>
	<path fill="#34BDB1" d="M-81.646,69.104h3.405c0.353,0,0.638-0.286,0.638-0.639V53.331c0-0.352-0.285-0.639-0.638-0.639h-3.405
		c-0.352,0-0.638,0.287-0.638,0.639v15.135C-82.283,68.818-81.997,69.104-81.646,69.104L-81.646,69.104z M-81.006,53.969h2.128
		v13.859h-2.128V53.969z M-81.006,53.969"/>
	<path fill="#34BDB1" d="M-75.687,69.104h3.403c0.352,0,0.639-0.286,0.639-0.639v-6.322c0-0.353-0.287-0.638-0.639-0.638h-3.403
		c-0.353,0-0.639,0.286-0.639,0.638v6.322C-76.325,68.818-76.039,69.104-75.687,69.104L-75.687,69.104z M-75.049,62.781h2.128v5.047
		h-2.128V62.781z M-75.049,62.781"/>
	<g>
		<path fill="none" d="M-64.439,47.924h-36.964c-0.131,0-0.241,0.111-0.241,0.242v28.018c0,0.131,0.11,0.242,0.241,0.242h36.964
			c0.131,0,0.242-0.111,0.242-0.242V48.166C-64.197,48.035-64.309,47.924-64.439,47.924z"/>
		<path fill="#34BDB1" d="M-64.439,46.648h-36.964c-0.837,0-1.519,0.681-1.519,1.518v28.018c0,0.837,0.682,1.519,1.519,1.519h13.942
			v4.884h-6.021c-0.353,0-0.638,0.286-0.638,0.638c0,0.353,0.285,0.639,0.638,0.639h21.122c0.353,0,0.638-0.286,0.638-0.639
			c0-0.352-0.285-0.638-0.638-0.638h-6.02v-4.884h13.94c0.837,0,1.518-0.681,1.518-1.519V48.166
			C-62.922,47.329-63.603,46.648-64.439,46.648z M-64.197,76.184c0,0.131-0.111,0.242-0.242,0.242h-36.964
			c-0.131,0-0.241-0.111-0.241-0.242V48.166c0-0.131,0.11-0.242,0.241-0.242h36.964c0.131,0,0.242,0.111,0.242,0.242V76.184z
			 M-79.657,82.586h-6.527v-4.883h6.527V82.586z"/>
	</g>
</g>
<g>
	<path fill="none" d="M-31.581,52.162h-18.92v4.826c0,0.459,0.373,0.832,0.832,0.832c0.457,0,0.832-0.373,0.832-0.832v-2.997
		c0-0.368,0.297-0.667,0.666-0.667c0.367,0,0.666,0.299,0.666,0.667v2.997c0,1.194-0.971,2.166-2.164,2.166
		c-1.195,0-2.166-0.972-2.166-2.166v-4.826h-2.414v32.667h22.668V52.162z"/>
	<path fill="none" d="M-38.249,67.495h-9.332c-0.369,0-0.668-0.299-0.668-0.667c0-0.369,0.299-0.667,0.668-0.667h9.332
		c0.369,0,0.668,0.298,0.668,0.667C-37.581,67.196-37.88,67.495-38.249,67.495z"/>
	<path fill="none" d="M-38.249,64.828h-9.332c-0.369,0-0.668-0.299-0.668-0.667c0-0.369,0.299-0.667,0.668-0.667h9.332
		c0.369,0,0.668,0.298,0.668,0.667C-37.581,64.529-37.88,64.828-38.249,64.828z"/>
	<path fill="none" d="M-27.575,56.15c-0.002,0-0.004,0-0.006,0v9.697v22.314c0,0.368-0.299,0.667-0.668,0.667"/>
	<path fill="none" d="M-49.669,50.162c-0.402,0-0.738,0.287-0.816,0.667h1.631C-48.931,50.448-49.267,50.162-49.669,50.162z"/>
	<path fill="none" d="M-28.915,54.162h-1.334v31.333c0,0.369-0.299,0.667-0.666,0.667h-21.334v1.333h23.334V54.162z"/>
	<path fill="#34BDB1" d="M-50.247,88.828h21.998c0.369,0,0.668-0.299,0.668-0.667V65.847V56.15v-1.332v-1.323
		c0-0.368-0.299-0.667-0.668-0.667h-1.998v-1.333c0-0.368-0.299-0.667-0.668-0.667h-16.596c-0.086-1.117-1.02-2-2.158-2
		s-2.074,0.883-2.16,2h-3.086c-0.369,0-0.666,0.298-0.666,0.667v34c0,0.369,0.297,0.667,0.666,0.667h1.334v2
		c0,0.368,0.297,0.666,0.666,0.666h1.334L-50.247,88.828z M-49.669,50.162c0.402,0,0.738,0.287,0.814,0.667h-1.631
		C-50.407,50.448-50.071,50.162-49.669,50.162z M-54.249,84.828V52.162h2.414v4.826c0,1.194,0.971,2.166,2.166,2.166
		c1.193,0,2.164-0.972,2.164-2.166v-2.997c0-0.368-0.299-0.667-0.666-0.667c-0.369,0-0.666,0.299-0.666,0.667v2.997
		c0,0.459-0.375,0.832-0.832,0.832c-0.459,0-0.832-0.373-0.832-0.832v-4.826h18.92v32.667H-54.249z M-52.249,87.495v-1.333h21.334
		c0.367,0,0.666-0.298,0.666-0.667V54.162h1.334v33.333H-52.249z"/>
	<path fill="#34BDB1" d="M-38.249,63.495h-9.332c-0.369,0-0.668,0.298-0.668,0.667c0,0.368,0.299,0.667,0.668,0.667h9.332
		c0.369,0,0.668-0.299,0.668-0.667C-37.581,63.793-37.88,63.495-38.249,63.495z"/>
	<path fill="#34BDB1" d="M-38.249,66.162h-9.332c-0.369,0-0.668,0.298-0.668,0.667c0,0.368,0.299,0.667,0.668,0.667h9.332
		c0.369,0,0.668-0.299,0.668-0.667C-37.581,66.46-37.88,66.162-38.249,66.162z"/>
	<path fill="#34BDB1" d="M-38.249,68.724h-9.332c-0.369,0-0.668,0.298-0.668,0.667c0,0.367,0.299,0.666,0.668,0.666h9.332
		c0.369,0,0.668-0.299,0.668-0.666C-37.581,69.022-37.88,68.724-38.249,68.724z"/>
</g>
<g>
	<g>
		<g>
			<g>
				<path fill="#34BDB1" d="M39.667,26.153l-6.344-4.783v-1.92c0-0.264-0.124-0.511-0.333-0.67L20.506,9.366
					c-0.3-0.226-0.712-0.226-1.011,0L7.011,18.78c-0.21,0.159-0.334,0.406-0.334,0.67v1.92l-6.343,4.783
					C0.124,26.312,0,26.56,0,26.824V35.3c0,0.463,0.376,0.839,0.84,0.839h38.321c0.463,0,0.839-0.376,0.839-0.839v-8.476
					C40,26.56,39.876,26.312,39.667,26.153L39.667,26.153z M22.585,34.461h-5.17H8.354V19.868L20,11.086l11.646,8.781v14.593H22.585
					z M1.679,27.242l4.998-3.77v10.989H1.679V27.242z M38.321,34.461h-4.998V23.472l4.998,3.77V34.461z M38.321,34.461"/>
			</g>
			<g>
				<path fill="#34BDB1" d="M1.345,19.819L20,5.751l18.656,14.068c0.151,0.114,0.328,0.169,0.504,0.169
					c0.255,0,0.507-0.115,0.671-0.333c0.279-0.37,0.205-0.897-0.164-1.175L20.506,4.03c-0.3-0.226-0.712-0.226-1.011,0L0.334,18.479
					c-0.369,0.278-0.444,0.805-0.165,1.175S0.976,20.098,1.345,19.819L1.345,19.819z M1.345,19.819"/>
			</g>
		</g>
	</g>
	<g>
		<path fill="#34BDB1" d="M22.631,36.097h-5.262c-0.39,0-0.705-0.316-0.705-0.705v-7.91c0-0.389,0.315-0.705,0.705-0.705h5.262
			c0.39,0,0.705,0.316,0.705,0.705v7.91C23.336,35.781,23.021,36.097,22.631,36.097z M18.074,34.687h3.852v-6.5h-3.852V34.687z"/>
	</g>
</g>
</svg>
