<?xml version="1.0" encoding="utf-8"?>
<!-- Generator: Adobe Illustrator 16.0.0, SVG Export Plug-In . SVG Version: 6.00 Build 0)  -->
<!DOCTYPE svg PUBLIC "-//W3C//DTD SVG 1.1//EN" "http://www.w3.org/Graphics/SVG/1.1/DTD/svg11.dtd">
<svg version="1.1" id="Layer_1" xmlns="http://www.w3.org/2000/svg" xmlns:xlink="http://www.w3.org/1999/xlink" x="0px" y="0px"
	 width="40px" height="40px" viewBox="0 0 40 40" enable-background="new 0 0 40 40" xml:space="preserve">
<g>
	<path fill="#35BDB0" d="M-19.656,35.792l-6.74-8.727l3.797-1.316c0.27-0.094,0.462-0.333,0.495-0.616
		c0.034-0.283-0.099-0.56-0.338-0.714l-6.668-4.251c0.856-1.513,1.402-3.164,1.629-4.916c0.459-3.584-0.503-7.133-2.713-9.993
		c-2.21-2.86-5.399-4.689-8.983-5.148c-3.585-0.46-7.134,0.503-9.994,2.712c-2.859,2.209-4.688,5.4-5.147,8.983
		c-0.461,3.584,0.502,7.133,2.712,9.994c2.208,2.859,5.398,4.688,8.983,5.147c0.585,0.075,1.17,0.113,1.75,0.113
		c1.156,0,2.299-0.151,3.416-0.448l2.432,7.527c0.087,0.272,0.321,0.469,0.604,0.508c0.281,0.039,0.562-0.086,0.721-0.323
		l2.231-3.341l6.741,8.726c0.12,0.155,0.298,0.257,0.493,0.283C-24.204,39.998-24.171,40-24.142,40c0.164,0,0.324-0.054,0.456-0.155
		l3.896-3.011C-19.464,36.584-19.404,36.117-19.656,35.792L-19.656,35.792z M-42.436,25.475c-3.19-0.41-6.029-2.037-7.996-4.582
		c-1.968-2.546-2.825-5.705-2.414-8.896c0.408-3.19,2.037-6.03,4.582-7.997c2.547-1.966,5.707-2.824,8.896-2.414
		s6.03,2.038,7.997,4.583c1.966,2.546,2.822,5.705,2.414,8.896c-0.197,1.533-0.672,2.977-1.408,4.305l-1.876-1.196
		c0.765-1.421,1.164-3.012,1.164-4.642c0-5.419-4.406-9.826-9.825-9.826c-5.416,0-9.826,4.407-9.826,9.826
		c0,5.418,4.41,9.827,9.826,9.827c0.781,0,1.553-0.092,2.304-0.274l0.684,2.116C-39.385,25.579-40.901,25.672-42.436,25.475
		L-42.436,25.475z M-41.606,13.759l2.551,7.904c-0.603,0.136-1.22,0.208-1.846,0.208c-4.597,0-8.34-3.742-8.34-8.341
		c0-4.598,3.743-8.339,8.34-8.339c4.598,0,8.341,3.741,8.341,8.339c0,1.347-0.323,2.66-0.937,3.841l-7.005-4.467
		c-0.263-0.168-0.605-0.153-0.854,0.039C-41.603,13.134-41.705,13.461-41.606,13.759L-41.606,13.759z M-24.007,38.214l-6.918-8.955
		c-0.141-0.183-0.358-0.289-0.588-0.289c-0.009,0-0.016,0-0.025,0c-0.239,0.007-0.459,0.131-0.593,0.329l-1.953,2.924l-5.476-16.956
		l15.022,9.581L-27.857,26c-0.228,0.079-0.402,0.261-0.47,0.491c-0.068,0.229-0.023,0.477,0.124,0.667l6.917,8.955L-24.007,38.214z
		 M-24.007,38.214"/>
</g>
<g transform="translate(1 1)">
	<path fill="#34BDB1" d="M-70.906,39c-0.134,0-0.333,0-0.467-0.067c-0.666-0.2-1.134-0.8-1.134-1.533v-6.6
		c0-0.6-0.533-1.133-1.133-1.133h-2.2c-5.134,0-9.334-4.2-9.334-9.333v-12C-85.174,3.2-80.974-1-75.84-1h12
		c5.134,0,9.334,4.2,9.334,9.333v12c0,4.066-2.601,7.6-6.467,8.867c-1.867,0.6-3.467,1.733-4.533,3.333l-4.067,5.8
		C-69.907,38.733-70.373,39-70.906,39z M-75.84,0.333c-4.4,0-8,3.6-8,8v12c0,4.4,3.6,8,8,8h2.2c1.333,0,2.467,1.133,2.467,2.466v6.6
		c0,0.2,0.133,0.2,0.199,0.267c0.067,0,0.2,0.066,0.267-0.066l4.134-5.8c1.267-1.8,3.066-3.066,5.2-3.8
		c3.333-1.067,5.533-4.133,5.533-7.6V8.333c0-4.4-3.6-8-8-8H-75.84z"/>
	<path fill="#34BDB1" d="M-66.507,25.667h-5.333c-1.134,0-2-0.867-2-2s0.866-2,2-2h0.667v-8h-0.667c-1.134,0-2-0.867-2-2
		s0.866-2,2-2h2.666c1.134,0,2.001,0.867,2.001,2v10h0.666c1.133,0,2,0.867,2,2S-65.374,25.667-66.507,25.667z M-71.84,23
		c-0.4,0-0.667,0.266-0.667,0.667c0,0.4,0.267,0.667,0.667,0.667h5.333c0.399,0,0.667-0.267,0.667-0.667
		c0-0.4-0.268-0.667-0.667-0.667h-1.333c-0.399,0-0.667-0.267-0.667-0.667V11.667c0-0.4-0.333-0.667-0.667-0.667h-2.666
		c-0.4,0-0.667,0.266-0.667,0.667c0,0.4,0.267,0.667,0.667,0.667h1.334c0.399,0,0.666,0.266,0.666,0.667v9.333
		c0,0.4-0.267,0.667-0.666,0.667H-71.84z"/>
	<path fill="#34BDB1" d="M-69.84,8.333c-1.466,0-2.667-1.2-2.667-2.667S-71.306,3-69.84,3s2.667,1.2,2.667,2.667
		S-68.374,8.333-69.84,8.333z M-69.84,4.333c-0.733,0-1.333,0.6-1.333,1.333S-70.573,7-69.84,7s1.333-0.6,1.333-1.333
		S-69.106,4.333-69.84,4.333z"/>
</g>
<g>
	<g>
		<defs>
			<rect id="SVGID_1_" x="-102.922" y="46.637" width="39.983" height="37.328"/>
		</defs>
		<clipPath id="SVGID_2_">
			<use xlink:href="#SVGID_1_"  overflow="visible"/>
		</clipPath>
	</g>
	<path fill="#34BDB1" d="M-66.199,71.232h-33.443c-0.353,0-0.639,0.286-0.639,0.638c0,0.353,0.286,0.638,0.639,0.638h33.443
		c0.353,0,0.638-0.285,0.638-0.638C-65.562,71.519-65.847,71.232-66.199,71.232L-66.199,71.232z M-66.199,71.232"/>
	<path fill="#34BDB1" d="M-93.559,69.104h3.403c0.352,0,0.637-0.286,0.637-0.639v-9.26c0-0.353-0.285-0.639-0.637-0.639h-3.403
		c-0.353,0-0.64,0.286-0.64,0.639v9.26C-94.198,68.818-93.911,69.104-93.559,69.104L-93.559,69.104z M-92.921,59.844h2.127v7.984
		h-2.127V59.844z M-92.921,59.844"/>
	<path fill="#34BDB1" d="M-87.603,69.104h3.405c0.353,0,0.639-0.286,0.639-0.639v-12.28c0-0.352-0.286-0.638-0.639-0.638h-3.405
		c-0.352,0-0.638,0.286-0.638,0.638v12.28C-88.24,68.818-87.954,69.104-87.603,69.104L-87.603,69.104z M-86.964,56.824h2.127v11.004
		h-2.127V56.824z M-86.964,56.824"/>
	<path fill="#34BDB1" d="M-81.646,69.104h3.405c0.353,0,0.638-0.286,0.638-0.639V53.331c0-0.352-0.285-0.639-0.638-0.639h-3.405
		c-0.352,0-0.638,0.287-0.638,0.639v15.135C-82.283,68.818-81.997,69.104-81.646,69.104L-81.646,69.104z M-81.006,53.969h2.128
		v13.859h-2.128V53.969z M-81.006,53.969"/>
	<path fill="#34BDB1" d="M-75.687,69.104h3.403c0.352,0,0.639-0.286,0.639-0.639v-6.322c0-0.353-0.287-0.638-0.639-0.638h-3.403
		c-0.353,0-0.639,0.286-0.639,0.638v6.322C-76.325,68.818-76.039,69.104-75.687,69.104L-75.687,69.104z M-75.049,62.781h2.128v5.047
		h-2.128V62.781z M-75.049,62.781"/>
	<g>
		<path fill="none" d="M-64.439,47.924h-36.964c-0.131,0-0.241,0.111-0.241,0.242v28.018c0,0.131,0.11,0.242,0.241,0.242h36.964
			c0.131,0,0.242-0.111,0.242-0.242V48.166C-64.197,48.035-64.309,47.924-64.439,47.924z"/>
		<path fill="#34BDB1" d="M-64.439,46.648h-36.964c-0.837,0-1.519,0.681-1.519,1.518v28.018c0,0.837,0.682,1.519,1.519,1.519h13.942
			v4.884h-6.021c-0.353,0-0.638,0.286-0.638,0.638c0,0.353,0.285,0.639,0.638,0.639h21.122c0.353,0,0.638-0.286,0.638-0.639
			c0-0.352-0.285-0.638-0.638-0.638h-6.02v-4.884h13.94c0.837,0,1.518-0.681,1.518-1.519V48.166
			C-62.922,47.329-63.603,46.648-64.439,46.648z M-64.197,76.184c0,0.131-0.111,0.242-0.242,0.242h-36.964
			c-0.131,0-0.241-0.111-0.241-0.242V48.166c0-0.131,0.11-0.242,0.241-0.242h36.964c0.131,0,0.242,0.111,0.242,0.242V76.184z
			 M-79.657,82.586h-6.527v-4.883h6.527V82.586z"/>
	</g>
</g>
<g>
	<path fill="none" d="M29.997,3.333h-18.92V8.16c0,0.459,0.373,0.832,0.832,0.832c0.457,0,0.832-0.373,0.832-0.832V5.163
		c0-0.368,0.297-0.667,0.666-0.667c0.367,0,0.666,0.299,0.666,0.667V8.16c0,1.194-0.971,2.166-2.164,2.166
		c-1.195,0-2.166-0.972-2.166-2.166V3.333H7.329V36h22.668V3.333z"/>
	<path fill="none" d="M23.329,18.667h-9.332c-0.369,0-0.668-0.299-0.668-0.667c0-0.369,0.299-0.667,0.668-0.667h9.332
		c0.369,0,0.668,0.298,0.668,0.667C23.997,18.368,23.698,18.667,23.329,18.667z"/>
	<path fill="none" d="M23.329,16h-9.332c-0.369,0-0.668-0.299-0.668-0.667c0-0.369,0.299-0.667,0.668-0.667h9.332
		c0.369,0,0.668,0.298,0.668,0.667C23.997,15.701,23.698,16,23.329,16z"/>
	<path fill="none" d="M34.003,7.322c-0.002,0-0.004,0-0.006,0v9.697v22.314c0,0.368-0.299,0.667-0.668,0.667"/>
	<path fill="none" d="M11.909,1.333c-0.402,0-0.738,0.287-0.816,0.667h1.631C12.647,1.62,12.312,1.333,11.909,1.333z"/>
	<path fill="none" d="M32.663,5.333h-1.334v31.333c0,0.369-0.299,0.667-0.666,0.667H9.329v1.333h23.334V5.333z"/>
	<path fill="#FFFFFF" d="M11.331,40h21.998c0.369,0,0.668-0.299,0.668-0.667V17.019V7.322V5.99V4.667
		C33.997,4.299,33.698,4,33.329,4h-1.998V2.667C31.331,2.298,31.032,2,30.663,2H14.067c-0.086-1.117-1.02-2-2.158-2
		s-2.074,0.883-2.16,2H6.663C6.294,2,5.997,2.298,5.997,2.667v34c0,0.369,0.297,0.667,0.666,0.667h1.334v2
		C7.997,39.701,8.294,40,8.663,40h1.334L11.331,40z M11.909,1.333c0.402,0,0.738,0.287,0.814,0.667h-1.631
		C11.171,1.62,11.507,1.333,11.909,1.333z M7.329,36V3.333h2.414V8.16c0,1.194,0.971,2.166,2.166,2.166
		c1.193,0,2.164-0.972,2.164-2.166V5.163c0-0.368-0.299-0.667-0.666-0.667c-0.369,0-0.666,0.299-0.666,0.667V8.16
		c0,0.459-0.375,0.832-0.832,0.832c-0.459,0-0.832-0.373-0.832-0.832V3.333h18.92V36H7.329z M9.329,38.667v-1.333h21.334
		c0.367,0,0.666-0.298,0.666-0.667V5.333h1.334v33.333H9.329z"/>
	<path fill="#FFFFFF" d="M23.329,14.667h-9.332c-0.369,0-0.668,0.298-0.668,0.667c0,0.368,0.299,0.667,0.668,0.667h9.332
		c0.369,0,0.668-0.299,0.668-0.667C23.997,14.965,23.698,14.667,23.329,14.667z"/>
	<path fill="#FFFFFF" d="M23.329,17.333h-9.332c-0.369,0-0.668,0.298-0.668,0.667c0,0.368,0.299,0.667,0.668,0.667h9.332
		c0.369,0,0.668-0.299,0.668-0.667C23.997,17.632,23.698,17.333,23.329,17.333z"/>
	<path fill="#FFFFFF" d="M23.329,19.896h-9.332c-0.369,0-0.668,0.298-0.668,0.667c0,0.367,0.299,0.666,0.668,0.666h9.332
		c0.369,0,0.668-0.299,0.668-0.666C23.997,20.194,23.698,19.896,23.329,19.896z"/>
</g>
<g>
	<g>
		<g>
			<g>
				<path fill="#FFFFFF" d="M104.093,79.864l-6.344-4.783v-1.92c0-0.264-0.124-0.511-0.333-0.67l-12.484-9.414
					c-0.3-0.226-0.712-0.226-1.011,0l-12.484,9.414c-0.21,0.159-0.334,0.406-0.334,0.67v1.92l-6.343,4.783
					c-0.21,0.159-0.334,0.407-0.334,0.67v8.476c0,0.463,0.376,0.839,0.84,0.839h38.321c0.463,0,0.839-0.376,0.839-0.839v-8.476
					C104.426,80.271,104.302,80.023,104.093,79.864L104.093,79.864z M87.011,88.172h-5.17H72.78V73.579l11.646-8.781l11.646,8.781
					v14.593H87.011z M66.104,80.953l4.998-3.77v10.989h-4.998V80.953z M102.747,88.172h-4.998V77.183l4.998,3.77V88.172z
					 M102.747,88.172"/>
			</g>
			<g>
				<path fill="#FFFFFF" d="M65.771,73.53l18.655-14.068l18.656,14.068c0.151,0.114,0.328,0.169,0.504,0.169
					c0.255,0,0.507-0.115,0.671-0.333c0.279-0.37,0.205-0.897-0.164-1.175L84.932,57.741c-0.3-0.226-0.712-0.226-1.011,0
					L64.76,72.19c-0.369,0.278-0.444,0.805-0.165,1.175S65.401,73.809,65.771,73.53L65.771,73.53z M65.771,73.53"/>
			</g>
		</g>
	</g>
	<g>
		<path fill="#FFFFFF" d="M87.057,89.808h-5.262c-0.39,0-0.705-0.316-0.705-0.705v-7.91c0-0.389,0.315-0.705,0.705-0.705h5.262
			c0.39,0,0.705,0.316,0.705,0.705v7.91C87.762,89.492,87.446,89.808,87.057,89.808z M82.5,88.398h3.852v-6.5H82.5V88.398z"/>
	</g>
</g>
<g>
	<g>
		<path fill="#FFFFFF" d="M91.046,36.306c3.122-3.518,5.02-8.142,5.02-13.203c0-5.265-2.056-10.058-5.406-13.622
			c-0.003-0.004-0.006-0.007-0.006-0.01C87.161,5.765,82.275,3.39,76.84,3.203l-0.39-0.01c-0.1-0.004-0.201-0.007-0.302-0.007
			s-0.201,0.003-0.301,0.007l-0.387,0.01C70.024,3.39,65.136,5.765,61.647,9.471c-0.003,0.003-0.006,0.006-0.006,0.01
			c0,0,0,0-0.004,0c-3.348,3.564-5.406,8.357-5.406,13.622c0,5.061,1.901,9.685,5.021,13.203c0.006,0.007,0.006,0.014,0.009,0.021
			c0.015,0.017,0.032,0.023,0.045,0.04c3.507,3.921,8.538,6.446,14.155,6.638l0.387,0.014c0.1,0,0.2,0.002,0.301,0.002
			s0.202-0.002,0.302-0.006l0.386-0.01h0.004c5.62-0.192,10.657-2.723,14.165-6.651c0.008-0.014,0.023-0.017,0.029-0.03
			C91.042,36.32,91.042,36.313,91.046,36.306L91.046,36.306z M57.623,23.791h8.244c0.076,2.912,0.646,5.741,1.659,8.391
			c-1.955,0.708-3.823,1.654-5.574,2.837C59.381,31.957,57.777,28.057,57.623,23.791L57.623,23.791z M62.328,10.758
			c1.71,1.11,3.528,1.999,5.427,2.667c-1.161,2.82-1.805,5.862-1.888,8.99h-8.244C57.787,17.948,59.535,13.877,62.328,10.758
			L62.328,10.758z M94.677,22.415h-8.246c-0.084-3.128-0.725-6.17-1.888-8.99c1.897-0.668,3.72-1.557,5.427-2.667
			C92.763,13.877,94.514,17.948,94.677,22.415L94.677,22.415z M75.461,13.462c-1.985-0.054-3.934-0.353-5.815-0.879
			C71.038,9.726,73.003,7.146,75.461,5V13.462z M75.461,14.836v7.579h-8.22c0.085-2.984,0.711-5.881,1.831-8.564
			C71.135,14.448,73.277,14.78,75.461,14.836L75.461,14.836z M76.836,14.836c2.184-0.057,4.326-0.389,6.392-0.986
			c1.12,2.683,1.748,5.581,1.832,8.564h-8.224V14.836z M76.836,13.462V5c2.462,2.146,4.427,4.726,5.818,7.583
			C80.77,13.109,78.821,13.408,76.836,13.462L76.836,13.462z M83.986,12.164c-1.321-2.764-3.153-5.282-5.419-7.442
			c4.023,0.527,7.643,2.345,10.429,5.028C87.413,10.751,85.733,11.56,83.986,12.164L83.986,12.164z M68.314,12.164
			c-1.751-0.604-3.431-1.413-5.011-2.415c2.787-2.683,6.406-4.501,10.427-5.028C71.464,6.882,69.632,9.4,68.314,12.164
			L68.314,12.164z M67.241,23.791h8.22v6.895c-2.271,0.061-4.494,0.413-6.633,1.057C67.862,29.234,67.318,26.551,67.241,23.791
			L67.241,23.791z M75.461,32.058v9.148c-2.632-2.297-4.695-5.088-6.1-8.186C71.33,32.439,73.375,32.118,75.461,32.058
			L75.461,32.058z M76.836,41.206v-9.148c2.087,0.06,4.131,0.382,6.1,0.962C81.535,36.118,79.468,38.909,76.836,41.206
			L76.836,41.206z M76.836,30.686v-6.895h8.224c-0.077,2.76-0.622,5.443-1.59,7.955C81.333,31.099,79.107,30.746,76.836,30.686
			L76.836,30.686z M86.431,23.791h8.246c-0.157,4.266-1.757,8.167-4.332,11.228c-1.751-1.184-3.618-2.129-5.571-2.837
			C85.787,29.531,86.354,26.702,86.431,23.791L86.431,23.791z M62.888,36.048c1.624-1.079,3.354-1.948,5.162-2.595
			c1.338,2.991,3.254,5.721,5.681,8.032C69.505,40.931,65.727,38.956,62.888,36.048L62.888,36.048z M78.567,41.484
			c2.427-2.311,4.345-5.038,5.68-8.032c1.808,0.647,3.539,1.516,5.165,2.595C86.571,38.956,82.793,40.931,78.567,41.484
			L78.567,41.484z M78.567,41.484"/>
		<path fill="#FFFFFF" d="M76.148,43.104l-0.691-0.016c-5.487-0.187-10.535-2.554-14.214-6.665
			c-0.021-0.018-0.033-0.027-0.046-0.042l-0.015-0.027c-3.247-3.667-5.034-8.373-5.034-13.25c0-5.094,1.928-9.952,5.428-13.68
			l0.025-0.026c3.648-3.866,8.567-6.095,13.856-6.277l0.412-0.011c0.187-0.006,0.371-0.006,0.561,0l0.411,0.011
			c5.293,0.183,10.22,2.417,13.872,6.293l0.022,0.028c3.49,3.723,5.412,8.573,5.412,13.662c0,4.883-1.786,9.587-5.029,13.247
			l-0.019,0.029l-0.031,0.026c-3.629,4.063-8.813,6.498-14.228,6.682l-0.39,0.01C76.353,43.101,76.25,43.104,76.148,43.104z
			 M61.332,36.278c0.016,0.012,0.027,0.022,0.039,0.037c3.645,4.073,8.65,6.42,14.092,6.605l0.686,0.016
			c0.101,0,0.199-0.002,0.3-0.005l0.387-0.011c5.37-0.182,10.511-2.596,14.108-6.622c0-0.008,0.02-0.021,0.028-0.027l0.014-0.027
			l0.004,0c3.219-3.63,4.992-8.297,4.992-13.141c0-5.055-1.912-9.872-5.383-13.565L90.575,9.51
			c-3.62-3.833-8.498-6.042-13.738-6.223l-0.413-0.012c-0.183-0.006-0.367-0.006-0.549,0l-0.412,0.012
			c-5.244,0.18-10.123,2.391-13.738,6.224v0.054h-0.051c-3.455,3.693-5.359,8.5-5.359,13.539c0,4.842,1.776,9.511,5,13.148
			L61.332,36.278z M78.323,41.6l0.186-0.177c2.414-2.296,4.318-4.989,5.662-8.004l0.032-0.072l0.072,0.027
			c1.813,0.649,3.558,1.526,5.183,2.604l0.085,0.057l-0.071,0.072c-2.914,2.983-6.783,4.923-10.894,5.46L78.323,41.6z
			 M84.292,33.558c-1.316,2.929-3.159,5.555-5.481,7.808c3.944-0.573,7.651-2.449,10.471-5.304
			C87.713,35.03,86.035,34.188,84.292,33.558z M73.975,41.6l-0.255-0.033c-4.111-0.538-7.979-2.477-10.892-5.46l-0.069-0.072
			l0.084-0.057c1.622-1.078,3.365-1.955,5.18-2.604l0.071-0.025l0.033,0.071c1.352,3.022,3.256,5.716,5.661,8.004L73.975,41.6z
			 M63.019,36.062c2.817,2.854,6.522,4.73,10.468,5.304c-2.313-2.246-4.156-4.872-5.48-7.808
			C66.262,34.188,64.585,35.03,63.019,36.062z M76.753,41.39v-9.419l0.086,0.002c2.093,0.061,4.152,0.385,6.12,0.966l0.093,0.027
			l-0.04,0.087c-1.423,3.148-3.482,5.913-6.12,8.215L76.753,41.39z M76.92,32.144v8.878c2.529-2.241,4.514-4.914,5.899-7.949
			C80.921,32.521,78.936,32.209,76.92,32.144z M75.544,41.39l-0.138-0.121c-2.631-2.296-4.69-5.06-6.122-8.215l-0.039-0.087
			l0.092-0.027c1.969-0.581,4.028-0.906,6.121-0.966l0.086-0.002V41.39z M69.477,33.073c1.394,3.041,3.379,5.714,5.9,7.949v-8.878
			C73.361,32.209,71.376,32.521,69.477,33.073z M61.938,35.13l-0.049-0.059c-2.694-3.207-4.197-7.107-4.349-11.278l-0.003-0.087
			h8.411l0.002,0.082c0.075,2.874,0.632,5.687,1.654,8.362l0.029,0.08l-0.079,0.029c-1.963,0.711-3.832,1.664-5.556,2.829
			L61.938,35.13z M57.711,23.874c0.165,4.077,1.637,7.888,4.258,11.033c1.692-1.137,3.525-2.071,5.449-2.775
			c-1-2.644-1.549-5.422-1.633-8.257H57.711z M90.359,35.13l-0.062-0.042c-1.723-1.165-3.591-2.117-5.552-2.829l-0.079-0.029
			l0.029-0.08c1.02-2.664,1.575-5.478,1.652-8.362l0.002-0.082h8.414l-0.003,0.087c-0.154,4.177-1.659,8.077-4.353,11.278
			L90.359,35.13z M84.882,32.131c1.921,0.705,3.753,1.638,5.446,2.775c2.62-3.14,4.093-6.952,4.263-11.033h-8.079
			C86.428,26.721,85.879,29.498,84.882,32.131z M83.521,31.848l-0.075-0.022c-2.111-0.64-4.336-0.996-6.61-1.057l-0.082-0.001v-7.06
			h8.393l-0.003,0.086c-0.077,2.75-0.613,5.437-1.595,7.982L83.521,31.848z M76.92,30.604c2.235,0.067,4.421,0.416,6.5,1.039
			c0.947-2.48,1.469-5.093,1.553-7.77H76.92V30.604z M68.777,31.845l-0.027-0.072c-0.98-2.544-1.516-5.229-1.593-7.979l-0.002-0.086
			h8.389v7.06l-0.081,0.001c-2.269,0.062-4.492,0.416-6.61,1.054L68.777,31.845z M67.328,23.874c0.084,2.675,0.604,5.287,1.55,7.766
			c2.086-0.62,4.271-0.969,6.499-1.035v-6.73H67.328z M94.764,22.499H86.35l-0.002-0.081c-0.084-3.122-0.717-6.137-1.883-8.961
			l-0.033-0.082l0.083-0.029c1.91-0.672,3.729-1.566,5.408-2.658l0.061-0.039l0.048,0.053c2.891,3.227,4.57,7.385,4.729,11.709
			L94.764,22.499z M86.512,22.332h8.079c-0.176-4.23-1.819-8.295-4.637-11.464c-1.649,1.065-3.431,1.942-5.302,2.607
			C85.795,16.269,86.42,19.248,86.512,22.332z M85.146,22.499h-8.393v-7.744l0.082-0.001c2.165-0.057,4.309-0.387,6.369-0.983
			l0.072-0.021l0.028,0.069c1.136,2.717,1.754,5.609,1.838,8.594L85.146,22.499z M76.92,22.332h8.053
			c-0.092-2.909-0.696-5.728-1.793-8.38c-2.028,0.58-4.133,0.904-6.26,0.966V22.332z M75.544,22.499h-8.389l0.002-0.086
			c0.084-2.983,0.703-5.875,1.838-8.594l0.029-0.069l0.071,0.021c2.059,0.596,4.2,0.926,6.367,0.983l0.081,0.001V22.499z
			 M67.328,22.332h8.049v-7.414c-2.129-0.062-4.231-0.387-6.256-0.966C68.022,16.606,67.419,19.424,67.328,22.332z M65.948,22.499
			h-8.412l0.004-0.087c0.158-4.325,1.837-8.483,4.727-11.709l0.048-0.053l0.06,0.039c1.686,1.094,3.505,1.988,5.408,2.658
			l0.083,0.029l-0.033,0.081c-1.166,2.833-1.799,5.847-1.882,8.961L65.948,22.499z M57.711,22.332h8.074
			c0.092-3.076,0.717-6.055,1.859-8.857c-1.863-0.663-3.646-1.539-5.301-2.607C59.528,14.035,57.885,18.1,57.711,22.332z
			 M76.753,13.547V4.816l0.139,0.121c2.459,2.146,4.423,4.706,5.838,7.609l0.044,0.09l-0.096,0.027
			c-1.902,0.532-3.866,0.829-5.839,0.882L76.753,13.547z M76.92,5.185v8.19c1.896-0.058,3.785-0.343,5.615-0.846
			C81.161,9.737,79.272,7.268,76.92,5.185z M75.544,13.547l-0.085-0.002c-1.974-0.053-3.937-0.35-5.836-0.882l-0.096-0.027
			l0.044-0.09c1.414-2.902,3.376-5.462,5.835-7.609l0.138-0.121V13.547z M69.766,12.529c1.827,0.503,3.714,0.788,5.611,0.846v-8.19
			C73.025,7.269,71.139,9.739,69.766,12.529z M83.942,12.267L83.911,12.2c-1.324-2.767-3.142-5.263-5.402-7.417l-0.186-0.176
			l0.255,0.033c3.959,0.518,7.582,2.265,10.476,5.05l0.076,0.074L89.041,9.82c-1.582,1.001-3.273,1.816-5.027,2.423L83.942,12.267z
			 M78.81,4.84c2.172,2.11,3.927,4.538,5.219,7.221c1.684-0.588,3.309-1.37,4.832-2.325C86.067,7.077,82.601,5.388,78.81,4.84z
			 M68.357,12.267l-0.07-0.024c-1.758-0.607-3.45-1.422-5.028-2.423L63.17,9.764l0.076-0.074c2.894-2.786,6.516-4.532,10.474-5.05
			l0.254-0.033l-0.186,0.176c-2.264,2.157-4.08,4.653-5.398,7.417L68.357,12.267z M63.439,9.736
			c1.521,0.955,3.146,1.737,4.832,2.325c1.287-2.681,3.042-5.108,5.216-7.221C69.698,5.388,66.232,7.077,63.439,9.736z"/>
	</g>
</g>
</svg>
