<?xml version="1.0" encoding="utf-8"?>
<!-- Generator: Adobe Illustrator 16.0.0, SVG Export Plug-In . SVG Version: 6.00 Build 0)  -->
<!DOCTYPE svg PUBLIC "-//W3C//DTD SVG 1.1//EN" "http://www.w3.org/Graphics/SVG/1.1/DTD/svg11.dtd">
<svg version="1.1" id="Layer_1" xmlns="http://www.w3.org/2000/svg" xmlns:xlink="http://www.w3.org/1999/xlink" x="0px" y="0px"
	 width="340px" height="60px" viewBox="0 0 340 60" enable-background="new 0 0 340 60" xml:space="preserve">
<g>
	<path fill="#FFFFFF" d="M87.279,25.682c-0.503-0.574-1.123-1.015-1.856-1.323c-0.734-0.309-1.582-0.464-2.546-0.464
		c-0.962,0-1.853,0.173-2.675,0.524c-0.822,0.351-1.534,0.839-2.136,1.464c-0.6,0.625-1.073,1.37-1.41,2.234
		c-0.341,0.862-0.511,1.796-0.511,2.799c0,1.028,0.17,1.969,0.511,2.82c0.337,0.851,0.805,1.591,1.396,2.221
		c0.591,0.625,1.287,1.111,2.086,1.462c0.798,0.348,1.655,0.521,2.578,0.521c1.05,0,1.982-0.203,2.789-0.613
		c0.81-0.413,1.479-0.987,2.005-1.728l4.269,2.991c-0.986,1.291-2.234,2.246-3.744,2.864c-1.511,0.613-3.066,0.922-4.664,0.922
		c-1.818,0-3.493-0.268-5.023-0.802c-1.532-0.533-2.859-1.296-3.976-2.292c-1.115-0.998-1.984-2.202-2.611-3.62
		c-0.623-1.416-0.934-2.998-0.934-4.746c0-1.743,0.312-3.325,0.934-4.741c0.627-1.416,1.496-2.624,2.611-3.62
		c1.117-0.996,2.444-1.762,3.976-2.294c1.531-0.532,3.206-0.8,5.023-0.8c0.657,0,1.343,0.055,2.053,0.17
		c0.711,0.111,1.413,0.291,2.104,0.538c0.688,0.247,1.351,0.576,1.984,0.985c0.635,0.412,1.205,0.913,1.71,1.513L87.279,25.682z"/>
	<path fill="#FFFFFF" d="M92.501,30.918c0-1.745,0.313-3.327,0.934-4.743c0.627-1.418,1.496-2.624,2.611-3.618
		c1.116-0.998,2.443-1.762,3.975-2.299c1.532-0.532,3.206-0.798,5.023-0.798s3.492,0.266,5.026,0.798
		c1.532,0.537,2.859,1.301,3.973,2.299c1.118,0.994,1.989,2.2,2.611,3.618c0.627,1.416,0.937,2.998,0.937,4.743
		c0,1.746-0.31,3.328-0.937,4.744c-0.622,1.416-1.493,2.624-2.611,3.62c-1.114,0.997-2.441,1.762-3.973,2.295
		c-1.534,0.532-3.208,0.8-5.026,0.8s-3.492-0.268-5.023-0.8c-1.532-0.533-2.859-1.298-3.975-2.295
		c-1.116-0.996-1.984-2.204-2.611-3.62C92.814,34.246,92.501,32.665,92.501,30.918 M97.82,30.918c0,1.026,0.17,1.967,0.511,2.82
		c0.338,0.851,0.826,1.591,1.459,2.216c0.636,0.625,1.396,1.114,2.284,1.464c0.887,0.351,1.877,0.521,2.971,0.521
		c1.096,0,2.087-0.171,2.973-0.521s1.648-0.839,2.282-1.464c0.636-0.625,1.125-1.365,1.462-2.216
		c0.338-0.853,0.511-1.794,0.511-2.82c0-1.007-0.172-1.941-0.511-2.801c-0.337-0.862-0.826-1.607-1.462-2.237
		c-0.634-0.625-1.396-1.111-2.282-1.461c-0.886-0.349-1.877-0.521-2.973-0.521c-1.093,0-2.084,0.173-2.971,0.521
		c-0.888,0.351-1.648,0.837-2.284,1.461c-0.634,0.63-1.121,1.375-1.459,2.237C97.99,28.977,97.82,29.911,97.82,30.918"/>
	<polygon fill="#FFFFFF" points="120.252,20.014 128.001,20.014 133.417,34.181 133.485,34.181 138.806,20.014 146.523,20.014 
		146.523,41.823 141.402,41.823 141.402,25.097 141.336,25.097 135.226,39.951 131.319,39.951 125.441,25.097 125.374,25.097 
		125.374,41.823 120.252,41.823 	"/>
	<polygon fill="#FFFFFF" points="150.434,20.014 158.246,19.955 163.599,34.181 163.604,34.246 168.989,20.014 176.704,20.014 
		176.704,41.823 171.585,41.823 171.585,25.097 171.517,25.097 165.407,39.951 161.501,39.951 155.621,25.097 155.555,25.097 
		155.555,41.823 150.434,41.823 	"/>
	<path fill="#FFFFFF" d="M179.365,30.918c0-1.745,0.312-3.327,0.936-4.743c0.626-1.418,1.496-2.624,2.61-3.618
		c1.116-0.998,2.444-1.762,3.975-2.299c1.531-0.532,3.206-0.798,5.025-0.798c1.816,0,3.491,0.266,5.024,0.798
		c1.532,0.537,2.858,1.301,3.973,2.299c1.119,0.994,1.989,2.2,2.612,3.618c0.626,1.416,0.936,2.998,0.936,4.743
		c0,1.746-0.31,3.328-0.936,4.744c-0.623,1.416-1.493,2.624-2.612,3.62c-1.114,0.997-2.44,1.762-3.973,2.295
		c-1.533,0.532-3.208,0.8-5.024,0.8c-1.819,0-3.494-0.268-5.025-0.8c-1.53-0.533-2.858-1.298-3.975-2.295
		c-1.114-0.996-1.984-2.204-2.61-3.62C179.678,34.246,179.365,32.665,179.365,30.918 M184.686,30.918c0,1.026,0.17,1.967,0.51,2.82
		c0.337,0.851,0.825,1.591,1.461,2.216c0.635,0.625,1.396,1.114,2.284,1.464c0.886,0.351,1.877,0.521,2.971,0.521
		c1.095,0,2.086-0.171,2.973-0.521c0.886-0.351,1.646-0.839,2.282-1.464c0.635-0.625,1.123-1.365,1.46-2.216
		c0.34-0.853,0.51-1.794,0.51-2.82c0-1.007-0.17-1.941-0.51-2.801c-0.337-0.862-0.825-1.607-1.46-2.237
		c-0.636-0.625-1.396-1.111-2.282-1.461c-0.887-0.349-1.878-0.521-2.973-0.521c-1.094,0-2.085,0.173-2.971,0.521
		c-0.889,0.351-1.649,0.837-2.284,1.461c-0.636,0.63-1.124,1.375-1.461,2.237C184.855,28.977,184.686,29.911,184.686,30.918"/>
	<polygon fill="#FFFFFF" points="207.117,20.014 214.079,20.014 223.966,35.168 224.028,35.168 224.028,20.014 229.152,20.014 
		229.152,41.823 222.453,41.823 212.305,26.298 212.239,26.298 212.239,41.823 207.117,41.823 	"/>
	<path fill="#FFFFFF" d="M234.547,20.017h6.106c0.307,0,0.724,0.012,1.249,0.03c0.525,0.023,1.096,0.083,1.708,0.185
		c0.611,0.106,1.234,0.268,1.872,0.494c0.633,0.226,1.205,0.556,1.707,0.987c0.503,0.431,0.919,0.973,1.25,1.632
		c0.327,0.655,0.49,1.457,0.49,2.403c0,1.047-0.19,1.909-0.574,2.587c-0.384,0.678-0.865,1.227-1.444,1.646
		c-0.582,0.42-1.222,0.736-1.922,0.941c-0.7,0.206-1.37,0.351-2.003,0.429l6.765,10.475h-2.464l-6.534-10.351h-4.038v10.351h-2.168
		V20.017z M236.715,29.627h4.597c1.138,0,2.063-0.136,2.775-0.401c0.709-0.268,1.263-0.597,1.658-0.985
		c0.396-0.39,0.661-0.812,0.805-1.263c0.143-0.452,0.212-0.863,0.212-1.231c0-0.369-0.069-0.78-0.212-1.234
		c-0.144-0.45-0.409-0.872-0.805-1.261c-0.396-0.392-0.949-0.719-1.658-0.987c-0.712-0.268-1.638-0.401-2.775-0.401h-4.597V29.627z"
		/>
	<polygon fill="#FFFFFF" points="253.201,20.017 267.421,20.017 267.421,21.866 255.369,21.866 255.369,29.627 266.662,29.627 
		266.662,31.474 255.369,31.474 255.369,39.976 267.944,39.976 267.944,41.825 253.201,41.825 	"/>
	<path fill="#FFFFFF" d="M278.978,20.019h2.235l9.786,21.804h-2.431l-2.529-5.79h-12.314l-2.629,5.79h-2.266L278.978,20.019z
		 M279.998,22.235l-5.422,11.951h10.677L279.998,22.235z"/>
	<polygon fill="#FFFFFF" points="293.527,20.017 295.695,20.017 295.695,39.976 306.535,39.976 306.535,41.825 293.527,41.825 	"/>
	<polygon fill="#FFFFFF" points="311.265,21.864 303.316,21.864 303.316,20.014 321.379,20.014 321.379,21.864 313.431,21.864 
		313.431,41.823 311.265,41.823 	"/>
	<polygon fill="#FFFFFF" points="329.295,32.429 320.755,20.017 323.349,20.017 330.374,30.368 337.569,20.017 340,20.017 
		331.458,32.429 331.458,41.825 329.295,41.825 	"/>
	<path fill="#FFFFFF" d="M32.562,60c-0.788,0-1.581-0.035-2.365-0.097c-4.953-0.406-9.716-2.092-13.769-4.877
		C5.717,50.436-0.873,39.545,0.093,27.965c0.57-6.823,3.683-13.125,8.771-17.746c0.696-0.632,1.473-1.261,2.305-1.87
		c0.441-0.47,0.886-0.906,1.313-1.293c5.562-5.054,13.003-7.583,20.52-6.964c7.209,0.591,13.751,3.927,18.428,9.395
		c1.355,1.586,2.525,3.33,3.48,5.192c4.362,5.511,6.46,12.472,5.869,19.535c-0.586,7.072-3.816,13.604-9.09,18.398
		C46.443,57.378,39.651,60,32.562,60 M30.748,0.729c-6.587,0-12.896,2.439-17.77,6.867c-0.413,0.371-0.845,0.798-1.325,1.296
		c-0.862,0.639-1.614,1.25-2.291,1.863c-4.953,4.499-7.985,10.63-8.54,17.269c-0.938,11.268,5.476,21.869,15.961,26.372
		c4.009,2.747,8.65,4.386,13.476,4.782c0.762,0.065,1.537,0.097,2.303,0.097c6.904,0,13.521-2.56,18.63-7.199
		c5.14-4.669,8.285-11.031,8.858-17.921c0.575-6.881-1.471-13.66-5.757-19.09c-0.966-1.865-2.105-3.565-3.425-5.103
		c-4.546-5.322-10.915-8.568-17.922-9.145C32.214,0.758,31.477,0.729,30.748,0.729"/>
	<path fill="#FFFFFF" d="M4.887,28.209c0.945-6.267,4.007-12.004,8.749-16.312c3.723-3.385,8.239-5.665,13.085-6.682
		c-6.353,0.145-12.21,2.647-16.658,6.687c-2.849,3.75-4.697,8.299-5.11,13.25C4.868,26.176,4.851,27.195,4.887,28.209"/>
	<path fill="#FFFFFF" d="M4.575,32.328c-0.459-2.356-0.603-4.785-0.397-7.24c0.293-3.51,1.279-6.874,2.87-9.934
		C4.111,18.917,2.2,23.515,1.783,28.528C1.218,35.284,3.35,41.86,7.786,47.048c1.148,1.344,2.415,2.548,3.782,3.608
		c-0.125-0.136-0.25-0.27-0.37-0.413C6.871,45.185,4.565,38.89,4.575,32.328"/>
	<path fill="#FFFFFF" d="M29.561,3.991c1.419,0.115,2.805,0.344,4.148,0.667c0.377,0.016,0.752,0.014,1.125,0.043
		c6.414,0.528,12.317,3.162,16.917,7.497c-0.384-0.526-0.782-1.04-1.208-1.536c-4.473-5.234-10.735-8.43-17.634-8.992
		c-0.725-0.06-1.45-0.092-2.163-0.092c-5.712,0-11.049,1.9-15.381,5.1c3.684-1.814,7.761-2.778,11.946-2.778
		C28.059,3.899,28.817,3.929,29.561,3.991"/>
	<path fill="#FFFFFF" d="M57.375,29.443c-0.555,6.648-3.584,12.789-8.535,17.296c-0.977,1.278-2.072,2.479-3.282,3.579
		c-4.991,4.531-11.448,7.028-18.189,7.028c-0.398,0-0.8-0.035-1.203-0.051c1.375,0.341,2.787,0.581,4.226,0.696
		c0.715,0.06,1.446,0.09,2.17,0.09c13.396,0,24.756-10.384,25.861-23.635c0.281-3.369-0.1-6.694-1.091-9.823
		C57.49,26.21,57.512,27.822,57.375,29.443"/>
	<path fill="#FFFFFF" d="M42.617,50.979c-3.644,1.792-7.675,2.744-11.812,2.744c-0.738,0-1.486-0.03-2.225-0.092
		c-7.105-0.582-13.558-3.872-18.166-9.263c-0.819-0.957-1.56-1.964-2.227-3.009c1.039,2.744,2.557,5.315,4.523,7.616
		c2.17,2.537,4.762,4.593,7.64,6.106c1.577,0.44,3.208,0.735,4.879,0.871c0.712,0.06,1.432,0.087,2.141,0.087
		C33.035,56.041,38.328,54.159,42.617,50.979"/>
	<path fill="#FFFFFF" d="M42.488,8.534c7.758,5.246,12.544,14.365,11.717,24.288c-0.295,3.551-1.298,6.958-2.91,10.053
		c2.958-3.8,4.883-8.437,5.304-13.494c0.234-2.799,0.002-5.568-0.65-8.223C55,19.212,53.8,17.372,52.353,15.68
		C49.637,12.5,46.261,10.081,42.488,8.534"/>
	<path fill="#FFFFFF" d="M4.887,28.209c0.945-6.267,4.007-12.004,8.749-16.312c3.723-3.385,8.239-5.665,13.085-6.682
		c-6.353,0.145-12.21,2.647-16.658,6.687c-2.849,3.75-4.697,8.299-5.11,13.25C4.868,26.176,4.851,27.195,4.887,28.209"/>
	<path fill="#FFFFFF" d="M4.575,32.328c-0.459-2.356-0.603-4.785-0.397-7.24c0.293-3.51,1.279-6.874,2.87-9.934
		C4.111,18.917,2.2,23.515,1.783,28.528C1.218,35.284,3.35,41.86,7.786,47.048c1.148,1.344,2.415,2.548,3.782,3.608
		c-0.125-0.136-0.25-0.27-0.37-0.413C6.871,45.185,4.565,38.89,4.575,32.328"/>
	<path fill="#FFFFFF" d="M29.561,3.991c1.419,0.115,2.805,0.344,4.148,0.667c0.377,0.016,0.752,0.014,1.125,0.043
		c6.414,0.528,12.317,3.162,16.917,7.497c-0.384-0.526-0.782-1.04-1.208-1.536c-4.473-5.234-10.735-8.43-17.634-8.992
		c-0.725-0.06-1.45-0.092-2.163-0.092c-5.712,0-11.049,1.9-15.381,5.1c3.684-1.814,7.761-2.778,11.946-2.778
		C28.059,3.899,28.817,3.929,29.561,3.991"/>
	<path fill="#FFFFFF" d="M30.782,52.919c-0.707,0-1.432-0.033-2.153-0.093c-6.875-0.56-13.116-3.744-17.574-8.96
		c-1.57-1.835-2.871-3.878-3.869-6.073c-0.565-2.557-0.729-5.096-0.518-7.637C7.769,16.95,19.091,6.606,32.442,6.606
		c0.714,0,1.441,0.03,2.16,0.09c0.612,0.051,1.218,0.127,1.818,0.217c10.654,4.033,17.376,14.619,16.447,25.774
		c-0.471,5.649-2.918,11.06-6.889,15.24C41.458,51.21,36.225,52.919,30.782,52.919 M32.442,7.554
		c-12.855,0-23.758,9.963-24.819,22.682c-0.205,2.447-0.047,4.891,0.467,7.263c0.929,2.018,2.182,3.987,3.692,5.753
		c4.295,5.022,10.305,8.088,16.924,8.631c6.032,0.484,11.792-1.151,16.642-4.665c3.756-3.966,6.114-9.172,6.564-14.61
		c0.896-10.736-5.573-20.928-15.735-24.783c-0.479-0.065-1.063-0.139-1.65-0.185C33.833,7.583,33.13,7.554,32.442,7.554"/>
	<path fill="#FFFFFF" d="M57.375,29.443c-0.555,6.648-3.584,12.789-8.535,17.296c-0.977,1.278-2.072,2.479-3.282,3.579
		c-4.991,4.531-11.448,7.028-18.189,7.028c-0.398,0-0.8-0.035-1.203-0.051c1.375,0.341,2.787,0.581,4.226,0.696
		c0.715,0.06,1.446,0.09,2.17,0.09c13.396,0,24.756-10.384,25.861-23.635c0.281-3.369-0.1-6.694-1.091-9.823
		C57.49,26.21,57.512,27.822,57.375,29.443"/>
	<path fill="#FFFFFF" d="M42.617,50.979c-3.644,1.792-7.675,2.744-11.812,2.744c-0.738,0-1.486-0.03-2.225-0.092
		c-7.105-0.582-13.558-3.872-18.166-9.263c-0.819-0.957-1.56-1.964-2.227-3.009c1.039,2.744,2.557,5.315,4.523,7.616
		c2.17,2.537,4.762,4.593,7.64,6.106c1.577,0.44,3.208,0.735,4.879,0.871c0.712,0.06,1.432,0.087,2.141,0.087
		C33.035,56.041,38.328,54.159,42.617,50.979"/>
	<path fill="#FFFFFF" d="M42.488,8.534c7.758,5.246,12.544,14.365,11.717,24.288c-0.295,3.551-1.298,6.958-2.91,10.053
		c2.958-3.8,4.883-8.437,5.304-13.494c0.234-2.799,0.002-5.568-0.65-8.223C55,19.212,53.8,17.372,52.353,15.68
		C49.637,12.5,46.261,10.081,42.488,8.534"/>
</g>
</svg>
