<?xml version="1.0" encoding="utf-8"?>
<!-- Generator: Adobe Illustrator 16.0.0, SVG Export Plug-In . SVG Version: 6.00 Build 0)  -->
<!DOCTYPE svg PUBLIC "-//W3C//DTD SVG 1.1//EN" "http://www.w3.org/Graphics/SVG/1.1/DTD/svg11.dtd">
<svg version="1.1" id="Layer_1" xmlns="http://www.w3.org/2000/svg" xmlns:xlink="http://www.w3.org/1999/xlink" x="0px" y="0px"
	 width="255px" height="44px" viewBox="0 0 255 44" enable-background="new 0 0 255 44" xml:space="preserve">
<g>
	<path fill="#00AE9E" d="M65.459,18.835c-0.377-0.425-0.842-0.747-1.392-0.973s-1.187-0.338-1.91-0.338
		c-0.721,0-1.39,0.124-2.006,0.381S59,18.524,58.549,18.98c-0.45,0.457-0.805,1.005-1.058,1.639
		c-0.255,0.634-0.383,1.316-0.383,2.052c0,0.752,0.127,1.445,0.383,2.068c0.253,0.628,0.604,1.166,1.047,1.627
		c0.443,0.462,0.965,0.816,1.565,1.074c0.599,0.258,1.241,0.382,1.933,0.382c0.788,0,1.486-0.15,2.092-0.452
		c0.607-0.301,1.109-0.72,1.504-1.262l3.201,2.191c-0.739,0.946-1.675,1.649-2.808,2.101c-1.133,0.451-2.3,0.677-3.498,0.677
		c-1.363,0-2.62-0.199-3.768-0.585c-1.149-0.392-2.144-0.956-2.981-1.687c-0.837-0.731-1.488-1.612-1.958-2.654
		c-0.467-1.037-0.701-2.197-0.701-3.48c0-1.278,0.234-2.438,0.701-3.475c0.47-1.037,1.122-1.923,1.958-2.654
		c0.837-0.73,1.833-1.294,2.981-1.687c1.148-0.387,2.404-0.585,3.768-0.585c0.493,0,1.007,0.043,1.54,0.124
		c0.533,0.086,1.06,0.215,1.578,0.397c0.516,0.177,1.013,0.424,1.488,0.72c0.476,0.306,0.903,0.671,1.282,1.112L65.459,18.835z"/>
	<path fill="#00AE9E" d="M69.376,22.676c0-1.284,0.234-2.444,0.7-3.48c0.47-1.042,1.122-1.923,1.958-2.654
		c0.837-0.73,1.833-1.294,2.981-1.687s2.404-0.585,3.768-0.585s2.619,0.193,3.77,0.585c1.149,0.392,2.144,0.956,2.979,1.687
		c0.838,0.73,1.492,1.611,1.958,2.654c0.47,1.037,0.702,2.197,0.702,3.48c0,1.278-0.232,2.438-0.702,3.475
		c-0.467,1.042-1.12,1.923-1.958,2.654c-0.835,0.73-1.831,1.294-2.979,1.687c-1.151,0.392-2.406,0.585-3.77,0.585
		s-2.619-0.193-3.768-0.585s-2.144-0.956-2.981-1.687c-0.836-0.731-1.488-1.612-1.958-2.654
		C69.61,25.114,69.376,23.954,69.376,22.676 M73.365,22.676c0,0.752,0.127,1.439,0.383,2.062c0.254,0.628,0.619,1.171,1.095,1.627
		c0.477,0.462,1.047,0.816,1.713,1.074c0.665,0.258,1.408,0.382,2.228,0.382c0.822,0,1.565-0.124,2.229-0.382
		c0.665-0.258,1.236-0.612,1.712-1.074c0.477-0.457,0.843-0.999,1.096-1.627c0.254-0.623,0.383-1.311,0.383-2.062
		c0-0.741-0.129-1.429-0.383-2.057c-0.253-0.634-0.619-1.176-1.096-1.639c-0.476-0.462-1.047-0.816-1.712-1.074
		c-0.665-0.252-1.408-0.381-2.229-0.381c-0.82,0-1.563,0.129-2.228,0.381c-0.666,0.258-1.236,0.612-1.713,1.074
		c-0.476,0.462-0.841,1.005-1.095,1.639C73.492,21.247,73.365,21.935,73.365,22.676"/>
	<polygon fill="#00AE9E" points="90.189,14.678 96,14.678 100.063,25.066 100.114,25.066 104.104,14.678 109.893,14.678 
		109.893,30.668 106.052,30.668 106.052,18.406 106.002,18.406 101.419,29.299 98.489,29.299 94.081,18.406 94.03,18.406 
		94.03,30.668 90.189,30.668 	"/>
	<polygon fill="#00AE9E" points="112.825,14.678 118.685,14.629 122.699,25.066 122.702,25.114 126.742,14.678 132.528,14.678 
		132.528,30.668 128.688,30.668 128.688,18.406 128.638,18.406 124.055,29.299 121.125,29.299 116.716,18.406 116.666,18.406 
		116.666,30.668 112.825,30.668 	"/>
	<path fill="#00AE9E" d="M134.524,22.676c0-1.284,0.233-2.444,0.701-3.48c0.469-1.042,1.122-1.923,1.957-2.654
		c0.838-0.73,1.834-1.294,2.981-1.687c1.148-0.392,2.404-0.585,3.769-0.585c1.362,0,2.619,0.193,3.769,0.585
		s2.145,0.956,2.979,1.687c0.84,0.73,1.492,1.611,1.96,2.654c0.469,1.037,0.701,2.197,0.701,3.48c0,1.278-0.232,2.438-0.701,3.475
		c-0.468,1.042-1.12,1.923-1.96,2.654c-0.835,0.73-1.83,1.294-2.979,1.687s-2.406,0.585-3.769,0.585
		c-1.364,0-2.62-0.193-3.769-0.585c-1.147-0.392-2.144-0.956-2.981-1.687c-0.835-0.731-1.488-1.612-1.957-2.654
		C134.758,25.114,134.524,23.954,134.524,22.676 M138.514,22.676c0,0.752,0.128,1.439,0.383,2.062
		c0.253,0.628,0.619,1.171,1.096,1.627c0.476,0.462,1.046,0.816,1.713,1.074c0.665,0.258,1.408,0.382,2.228,0.382
		c0.822,0,1.565-0.124,2.229-0.382c0.665-0.258,1.235-0.612,1.712-1.074c0.477-0.457,0.843-0.999,1.096-1.627
		c0.255-0.623,0.382-1.311,0.382-2.062c0-0.741-0.127-1.429-0.382-2.057c-0.253-0.634-0.619-1.176-1.096-1.639
		c-0.477-0.462-1.047-0.816-1.712-1.074c-0.664-0.252-1.407-0.381-2.229-0.381c-0.819,0-1.562,0.129-2.228,0.381
		c-0.667,0.258-1.237,0.612-1.713,1.074c-0.477,0.462-0.843,1.005-1.096,1.639C138.642,21.247,138.514,21.935,138.514,22.676"/>
	<polygon fill="#00AE9E" points="155.338,14.678 160.56,14.678 167.974,25.791 168.021,25.791 168.021,14.678 171.864,14.678 
		171.864,30.668 166.84,30.668 159.229,19.287 159.18,19.287 159.18,30.668 155.338,30.668 	"/>
	<path fill="#00AE9E" d="M175.91,14.678h4.58c0.23,0,0.542,0.005,0.937,0.021s0.821,0.064,1.28,0.14s0.927,0.193,1.404,0.36
		c0.475,0.161,0.904,0.408,1.281,0.72c0.377,0.317,0.688,0.714,0.937,1.198c0.246,0.483,0.368,1.069,0.368,1.762
		c0,0.768-0.143,1.402-0.431,1.896c-0.288,0.5-0.649,0.902-1.084,1.214c-0.436,0.306-0.915,0.537-1.44,0.688
		s-1.027,0.258-1.502,0.317l5.073,7.681h-1.848l-4.9-7.59h-3.029v7.59h-1.626V14.678z M177.536,21.725h3.447
		c0.854,0,1.548-0.097,2.082-0.295c0.531-0.193,0.947-0.435,1.243-0.72c0.297-0.285,0.496-0.596,0.604-0.924
		c0.106-0.333,0.159-0.634,0.159-0.908c0-0.269-0.053-0.569-0.159-0.902c-0.107-0.333-0.307-0.64-0.604-0.924
		c-0.296-0.29-0.712-0.526-1.243-0.725c-0.534-0.193-1.229-0.295-2.082-0.295h-3.447V21.725z"/>
	<polygon fill="#00AE9E" points="189.9,14.678 200.565,14.678 200.565,16.037 191.526,16.037 191.526,21.725 199.997,21.725 
		199.997,23.084 191.526,23.084 191.526,29.315 200.958,29.315 200.958,30.674 189.9,30.674 	"/>
	<path fill="#00AE9E" d="M209.232,14.678h1.677l7.34,15.991h-1.823l-1.896-4.244h-9.236l-1.971,4.244h-1.699L209.232,14.678z
		 M209.999,16.305l-4.067,8.761h8.008L209.999,16.305z"/>
	<polygon fill="#00AE9E" points="220.146,14.678 221.771,14.678 221.771,29.315 229.901,29.315 229.901,30.674 220.146,30.674 	"/>
	<polygon fill="#00AE9E" points="233.448,16.031 227.487,16.031 227.487,14.678 241.034,14.678 241.034,16.031 235.072,16.031 
		235.072,30.668 233.448,30.668 	"/>
	<polygon fill="#00AE9E" points="246.971,23.782 240.566,14.678 242.512,14.678 247.78,22.268 253.177,14.678 255,14.678 
		248.594,23.782 248.594,30.674 246.971,30.674 	"/>
	<path fill="#00AE9E" d="M24.422,44c-0.591,0-1.186-0.021-1.773-0.07c-3.714-0.301-7.288-1.536-10.327-3.577
		C4.288,36.985-0.655,28.998,0.07,20.506c0.427-5.001,2.762-9.625,6.578-13.015c0.521-0.462,1.104-0.924,1.729-1.37
		C8.708,5.777,9.042,5.455,9.362,5.17c4.171-3.706,9.752-5.56,15.39-5.103c5.407,0.43,10.313,2.879,13.821,6.886
		c1.017,1.166,1.894,2.444,2.61,3.809c3.271,4.044,4.845,9.147,4.401,14.325c-0.439,5.189-2.862,9.98-6.817,13.493
		C34.832,42.078,29.739,44,24.422,44 M23.061,0.53c-4.94,0-9.672,1.789-13.327,5.038C9.424,5.842,9.1,6.153,8.74,6.519
		c-0.646,0.467-1.211,0.918-1.719,1.37c-3.714,3.298-5.988,7.794-6.404,12.661c-0.704,8.267,4.107,16.039,11.971,19.342
		c3.007,2.015,6.487,3.218,10.107,3.508c0.571,0.043,1.152,0.069,1.727,0.069c5.178,0,10.141-1.875,13.973-5.28
		c3.855-3.421,6.213-8.089,6.644-13.144c0.431-5.043-1.104-10.018-4.318-13.998c-0.725-1.37-1.579-2.616-2.569-3.744
		c-3.41-3.905-8.186-6.284-13.442-6.703C24.161,0.557,23.608,0.53,23.061,0.53"/>
	<path fill="#00AE9E" d="M3.665,20.683c0.709-4.593,3.005-8.798,6.562-11.962c2.792-2.482,6.18-4.152,9.813-4.899
		C15.275,3.93,10.882,5.767,7.547,8.726c-2.136,2.75-3.522,6.086-3.832,9.717C3.651,19.195,3.638,19.942,3.665,20.683"/>
	<path fill="#00AE9E" d="M3.431,23.707c-0.345-1.729-0.452-3.507-0.298-5.312c0.22-2.573,0.959-5.039,2.153-7.284
		c-2.203,2.761-3.636,6.134-3.948,9.808c-0.424,4.958,1.175,9.781,4.502,13.584c0.861,0.983,1.811,1.869,2.836,2.643
		c-0.093-0.097-0.188-0.193-0.277-0.301C5.153,33.134,3.424,28.52,3.431,23.707"/>
	<path fill="#00AE9E" d="M22.17,2.925c1.064,0.086,2.104,0.252,3.111,0.489c0.283,0.011,0.564,0.011,0.844,0.032
		c4.811,0.387,9.238,2.32,12.688,5.495c-0.288-0.381-0.586-0.757-0.907-1.123c-3.355-3.84-8.051-6.182-13.225-6.596
		c-0.543-0.043-1.088-0.064-1.623-0.064c-4.284,0-8.287,1.391-11.536,3.738c2.763-1.332,5.821-2.041,8.96-2.041
		C21.044,2.855,21.613,2.882,22.17,2.925"/>
	<path fill="#00AE9E" d="M43.032,21.591c-0.416,4.877-2.688,9.378-6.401,12.687c-0.733,0.935-1.555,1.815-2.462,2.621
		c-3.743,3.325-8.586,5.157-13.642,5.157c-0.298,0-0.6-0.027-0.902-0.038c1.031,0.247,2.09,0.425,3.169,0.511
		c0.537,0.043,1.084,0.064,1.628,0.064c10.047,0,18.567-7.612,19.396-17.334c0.211-2.471-0.075-4.909-0.818-7.203
		C43.117,19.222,43.134,20.404,43.032,21.591"/>
	<path fill="#00AE9E" d="M31.963,37.388c-2.733,1.311-5.756,2.009-8.859,2.009c-0.554,0-1.115-0.021-1.668-0.064
		c-5.329-0.43-10.168-2.842-13.624-6.795c-0.614-0.704-1.17-1.439-1.67-2.208c0.779,2.014,1.917,3.899,3.393,5.586
		c1.627,1.859,3.571,3.368,5.729,4.48c1.183,0.322,2.407,0.537,3.66,0.639c0.534,0.043,1.074,0.064,1.606,0.064
		C24.776,41.099,28.746,39.719,31.963,37.388"/>
	<path fill="#00AE9E" d="M31.866,6.255c5.818,3.846,9.408,10.539,8.788,17.812c-0.222,2.605-0.974,5.103-2.183,7.375
		c2.218-2.788,3.662-6.188,3.978-9.894c0.175-2.057,0.001-4.088-0.488-6.032c-0.711-1.429-1.611-2.777-2.697-4.018
		C37.228,9.167,34.696,7.389,31.866,6.255"/>
	<path fill="#00AE9E" d="M3.665,20.683c0.709-4.593,3.005-8.798,6.562-11.962c2.792-2.482,6.18-4.152,9.813-4.899
		C15.275,3.93,10.882,5.767,7.547,8.726c-2.136,2.75-3.522,6.086-3.832,9.717C3.651,19.195,3.638,19.942,3.665,20.683"/>
	<path fill="#00AE9E" d="M3.431,23.707c-0.345-1.729-0.452-3.507-0.298-5.312c0.22-2.573,0.959-5.039,2.153-7.284
		c-2.203,2.761-3.636,6.134-3.948,9.808c-0.424,4.958,1.175,9.781,4.502,13.584c0.861,0.983,1.811,1.869,2.836,2.643
		c-0.093-0.097-0.188-0.193-0.277-0.301C5.153,33.134,3.424,28.52,3.431,23.707"/>
	<path fill="#00AE9E" d="M22.17,2.925c1.064,0.086,2.104,0.252,3.111,0.489c0.283,0.011,0.564,0.011,0.844,0.032
		c4.811,0.387,9.238,2.32,12.688,5.495c-0.288-0.381-0.586-0.757-0.907-1.123c-3.355-3.84-8.051-6.182-13.225-6.596
		c-0.543-0.043-1.088-0.064-1.623-0.064c-4.284,0-8.287,1.391-11.536,3.738c2.763-1.332,5.821-2.041,8.96-2.041
		C21.044,2.855,21.613,2.882,22.17,2.925"/>
	<path fill="#00AE9E" d="M23.086,38.806c-0.531,0-1.074-0.021-1.615-0.064c-5.156-0.414-9.837-2.745-13.181-6.575
		c-1.178-1.343-2.153-2.841-2.901-4.453c-0.424-1.875-0.547-3.739-0.388-5.603c0.825-9.685,9.317-17.269,19.331-17.269
		c0.536,0,1.081,0.021,1.62,0.064c0.459,0.038,0.914,0.097,1.364,0.161c7.99,2.959,13.032,10.721,12.335,18.902
		c-0.354,4.142-2.189,8.111-5.167,11.178C31.093,37.554,27.169,38.806,23.086,38.806 M24.332,5.541
		c-9.642,0-17.819,7.305-18.614,16.63c-0.154,1.794-0.035,3.588,0.351,5.329c0.697,1.482,1.636,2.922,2.769,4.222
		c3.222,3.679,7.729,5.93,12.693,6.327c4.523,0.354,8.843-0.843,12.481-3.421c2.817-2.911,4.586-6.725,4.923-10.716
		c0.672-7.869-4.18-15.346-11.802-18.171c-0.359-0.048-0.797-0.102-1.238-0.14C25.375,5.562,24.848,5.541,24.332,5.541"/>
	<path fill="#00AE9E" d="M43.032,21.591c-0.416,4.877-2.688,9.378-6.401,12.687c-0.733,0.935-1.555,1.815-2.462,2.621
		c-3.743,3.325-8.586,5.157-13.642,5.157c-0.298,0-0.6-0.027-0.902-0.038c1.031,0.247,2.09,0.425,3.169,0.511
		c0.537,0.043,1.084,0.064,1.628,0.064c10.047,0,18.567-7.612,19.396-17.334c0.211-2.471-0.075-4.909-0.818-7.203
		C43.117,19.222,43.134,20.404,43.032,21.591"/>
	<path fill="#00AE9E" d="M31.963,37.388c-2.733,1.311-5.756,2.009-8.859,2.009c-0.554,0-1.115-0.021-1.668-0.064
		c-5.329-0.43-10.168-2.842-13.624-6.795c-0.614-0.704-1.17-1.439-1.67-2.208c0.779,2.014,1.917,3.899,3.393,5.586
		c1.627,1.859,3.571,3.368,5.729,4.48c1.183,0.322,2.407,0.537,3.66,0.639c0.534,0.043,1.074,0.064,1.606,0.064
		C24.776,41.099,28.746,39.719,31.963,37.388"/>
	<path fill="#00AE9E" d="M31.866,6.255c5.818,3.846,9.408,10.539,8.788,17.812c-0.222,2.605-0.974,5.103-2.183,7.375
		c2.218-2.788,3.662-6.188,3.978-9.894c0.175-2.057,0.001-4.088-0.488-6.032c-0.711-1.429-1.611-2.777-2.697-4.018
		C37.228,9.167,34.696,7.389,31.866,6.255"/>
</g>
</svg>
