<?xml version="1.0" encoding="utf-8"?>
<!-- Generator: Adobe Illustrator 16.0.0, SVG Export Plug-In . SVG Version: 6.00 Build 0)  -->
<!DOCTYPE svg PUBLIC "-//W3C//DTD SVG 1.1//EN" "http://www.w3.org/Graphics/SVG/1.1/DTD/svg11.dtd">
<svg version="1.1" id="Layer_1" xmlns="http://www.w3.org/2000/svg" xmlns:xlink="http://www.w3.org/1999/xlink" x="0px" y="0px"
	 width="22px" height="24px" viewBox="0 0 22 24" enable-background="new 0 0 22 24" xml:space="preserve">
<g>
	<path fill="none" d="M0.451,19.149l6.942-2.373c-0.204-0.266-0.41-0.541-0.616-0.822c-2.528-3.449-3.81-6.123-3.81-7.948
		C2.968,3.592,6.569,0,10.997,0H0v19.778C0,19.494,0.182,19.241,0.451,19.149z"/>
	<path fill="none" d="M19.271,19.778l-5.533-1.898c-1.229,1.531-2.194,2.586-2.249,2.646c-0.126,0.137-0.305,0.216-0.492,0.216
		s-0.366-0.079-0.492-0.216c-0.055-0.06-1.018-1.112-2.243-2.639L2.723,19.78l8.257,2.832L19.271,19.778z"/>
	<path fill="none" d="M10.997,0c4.428,0,8.029,3.592,8.029,8.006c0,1.825-1.281,4.5-3.81,7.948
		c-0.205,0.279-0.408,0.551-0.611,0.816l6.938,2.379c0.269,0.092,0.45,0.345,0.45,0.629s-0.182,0.537-0.451,0.629l-10.348,3.536
		c-0.069,0.024-0.143,0.036-0.216,0.036s-0.146-0.013-0.218-0.036L0.451,20.408C0.181,20.315,0,20.062,0,19.778V24h22V0H10.997z"/>
	<path fill="#35BDB0" d="M0.451,20.408l10.311,3.536c0.071,0.023,0.145,0.036,0.218,0.036s0.146-0.012,0.216-0.036l10.348-3.536
		c0.27-0.092,0.451-0.344,0.451-0.629s-0.182-0.538-0.45-0.629l-6.938-2.379c0.203-0.265,0.406-0.537,0.611-0.816
		c2.528-3.449,3.81-6.123,3.81-7.948C19.026,3.592,15.425,0,10.997,0S2.968,3.592,2.968,8.006c0,1.825,1.281,4.5,3.81,7.948
		c0.206,0.281,0.412,0.556,0.616,0.822l-6.942,2.373C0.182,19.241,0,19.494,0,19.778S0.181,20.315,0.451,20.408z M10.997,4.736
		c1.593,0,2.889,1.292,2.889,2.88s-1.296,2.88-2.889,2.88s-2.889-1.292-2.889-2.88S9.404,4.736,10.997,4.736z M8.262,17.887
		c1.226,1.527,2.188,2.579,2.243,2.639c0.126,0.137,0.305,0.216,0.492,0.216s0.366-0.079,0.492-0.216
		c0.055-0.06,1.021-1.115,2.249-2.646l5.533,1.898l-8.292,2.833L2.723,19.78L8.262,17.887z"/>
</g>
</svg>
