<?xml version="1.0" encoding="utf-8"?>
<!-- Generator: Adobe Illustrator 16.0.0, SVG Export Plug-In . SVG Version: 6.00 Build 0)  -->
<!DOCTYPE svg PUBLIC "-//W3C//DTD SVG 1.1//EN" "http://www.w3.org/Graphics/SVG/1.1/DTD/svg11.dtd">
<svg version="1.1" id="Layer_1" xmlns="http://www.w3.org/2000/svg" xmlns:xlink="http://www.w3.org/1999/xlink" x="0px" y="0px"
	 width="20px" height="19px" viewBox="0 0 20 19" enable-background="new 0 0 20 19" xml:space="preserve">
<g id="Layer_1_1_" display="none">
	<g display="inline">
		<path fill="#35BDB0" d="M12.975,11.984c1.631-0.991,2.692-2.763,2.692-4.817C15.667,4.05,13.116,1.5,10,1.5
			c-3.117,0-5.667,2.55-5.667,5.667c0,2.054,1.062,3.826,2.691,4.817C4.192,13.045,2.067,15.526,1.5,18.5h1.417
			c0.708-3.26,3.613-5.668,7.083-5.668c3.471,0,6.375,2.408,7.083,5.668H18.5C17.934,15.456,15.809,12.975,12.975,11.984
			L12.975,11.984z M5.75,7.167c0-2.337,1.912-4.25,4.25-4.25s4.25,1.913,4.25,4.25c0,2.338-1.912,4.25-4.25,4.25
			S5.75,9.505,5.75,7.167L5.75,7.167z"/>
	</g>
</g>
<g id="Layer_2">
	<g>
		<path fill="#35BDB0" d="M15.296,19L15.296,19c-0.242,0-0.482-0.066-0.698-0.192l-4.376-2.566
			c-0.134-0.077-0.307-0.077-0.445,0.002l-4.373,2.562c-0.213,0.126-0.453,0.191-0.694,0.191c-0.415,0-0.819-0.197-1.081-0.529
			c-0.262-0.327-0.355-0.752-0.258-1.164L4.56,12.44c0.035-0.157-0.014-0.312-0.141-0.422L0.463,8.554
			C0.047,8.18-0.103,7.624,0.071,7.095C0.244,6.571,0.692,6.212,1.24,6.16l5.249-0.495C6.653,5.65,6.792,5.55,6.845,5.41
			l1.869-4.557C8.923,0.336,9.422,0,9.985,0c0.562,0,1.062,0.336,1.269,0.857l1.88,4.541c0.064,0.15,0.2,0.253,0.359,0.267
			l5.252,0.496c0.549,0.053,1.003,0.412,1.18,0.939c0.177,0.523,0.036,1.078-0.364,1.446l-3.964,3.473
			c-0.122,0.11-0.175,0.268-0.138,0.429l1.172,4.855c0.096,0.42,0.001,0.847-0.259,1.175C16.111,18.806,15.708,19,15.296,19z
			 M10.001,15.246c0.242,0,0.482,0.063,0.694,0.188L15.073,18c0.193,0.113,0.429,0.062,0.562-0.104
			c0.06-0.075,0.121-0.2,0.079-0.378l-1.17-4.854c-0.116-0.506,0.044-1.007,0.431-1.346l3.955-3.468
			c0.181-0.166,0.126-0.388,0.104-0.451c-0.022-0.065-0.114-0.279-0.379-0.305l-5.248-0.494c-0.5-0.046-0.937-0.365-1.141-0.837
			l-1.882-4.553c-0.102-0.253-0.331-0.272-0.399-0.272S9.688,0.957,9.587,1.205L7.721,5.753C7.545,6.215,7.094,6.55,6.575,6.597
			L1.329,7.093C1.072,7.119,0.984,7.325,0.965,7.388C0.943,7.453,0.89,7.675,1.087,7.853l3.951,3.462
			c0.386,0.343,0.547,0.843,0.435,1.343l-1.19,4.867c-0.039,0.166,0.024,0.292,0.081,0.365c0.136,0.169,0.369,0.225,0.563,0.11
			l4.376-2.565C9.517,15.309,9.759,15.246,10.001,15.246z"/>
	</g>
</g>
</svg>
