<?xml version="1.0" encoding="utf-8"?>
<!-- Generator: Adobe Illustrator 16.0.0, SVG Export Plug-In . SVG Version: 6.00 Build 0)  -->
<!DOCTYPE svg PUBLIC "-//W3C//DTD SVG 1.1//EN" "http://www.w3.org/Graphics/SVG/1.1/DTD/svg11.dtd">
<svg version="1.1" id="Layer_1" xmlns="http://www.w3.org/2000/svg" xmlns:xlink="http://www.w3.org/1999/xlink" x="0px" y="0px"
	 width="25px" height="35px" viewBox="0 0 25 35" enable-background="new 0 0 25 35" xml:space="preserve">
<g>
	<path fill="#35BDB0" d="M23.933,8.834c-0.124-0.465-0.376-0.96-0.563-1.395c-2.229-5.356-7.099-7.277-11.032-7.277
		C7.074,0.162,1.275,3.693,0.5,10.97v1.485c0,0.062,0.021,0.62,0.051,0.9c0.435,3.466,3.172,7.152,5.215,10.62
		c2.198,3.717,4.479,7.372,6.74,11.025c1.395-2.385,2.784-4.801,4.145-7.123c0.372-0.681,0.804-1.361,1.174-2.012
		c0.247-0.435,0.722-0.867,0.938-1.27c2.198-4.026,5.738-8.083,5.738-12.078v-1.641C24.5,10.444,23.963,8.927,23.933,8.834
		L23.933,8.834z M12.434,16.296c-1.548,0-3.242-0.773-4.077-2.911c-0.125-0.34-0.115-1.022-0.115-1.084V11.34
		c0-2.724,2.313-3.963,4.326-3.963c2.476,0,4.393,1.983,4.393,4.46S14.911,16.296,12.434,16.296L12.434,16.296z M12.434,16.296"/>
</g>
</svg>
