<?xml version="1.0" encoding="utf-8"?>
<!-- Generator: Adobe Illustrator 16.0.0, SVG Export Plug-In . SVG Version: 6.00 Build 0)  -->
<!DOCTYPE svg PUBLIC "-//W3C//DTD SVG 1.1//EN" "http://www.w3.org/Graphics/SVG/1.1/DTD/svg11.dtd">
<svg version="1.1" id="Layer_1" xmlns="http://www.w3.org/2000/svg" xmlns:xlink="http://www.w3.org/1999/xlink" x="0px" y="0px"
	 width="16px" height="17px" viewBox="0 0 16 17" enable-background="new 0 0 16 17" xml:space="preserve">
<g id="Layer_1_1_" display="none">
	<g display="inline">
		<path fill="none" d="M2.328,15.215l5.049-1.73c-0.148-0.193-0.298-0.395-0.448-0.6C5.09,10.369,4.158,8.418,4.158,7.087
			c0-3.22,2.62-5.84,5.839-5.84H2v14.427C2,15.467,2.132,15.282,2.328,15.215z"/>
		<path fill="none" d="M16.016,15.674l-4.023-1.385c-0.893,1.117-1.596,1.886-1.635,1.93c-0.092,0.102-0.223,0.158-0.358,0.158
			s-0.267-0.059-0.356-0.158c-0.041-0.044-0.74-0.811-1.631-1.925L3.98,15.675l6.004,2.065L16.016,15.674z"/>
		<path fill="none" d="M9.998,1.247c3.22,0,5.84,2.62,5.84,5.84c0,1.332-0.934,3.282-2.771,5.798
			c-0.148,0.203-0.297,0.402-0.444,0.596l5.046,1.734c0.195,0.067,0.328,0.252,0.328,0.46c0,0.207-0.133,0.392-0.328,0.459
			l-7.525,2.579c-0.052,0.018-0.104,0.025-0.158,0.025c-0.053,0-0.105-0.01-0.157-0.025l-7.5-2.579C2.131,16.064,2,15.881,2,15.674
			v3.079h16V1.247H9.998z"/>
		<path fill="#9FA0A0" d="M2.328,16.134l7.5,2.579c0.051,0.018,0.104,0.025,0.158,0.025c0.054,0,0.105-0.008,0.156-0.025
			l7.526-2.579c0.196-0.067,0.328-0.252,0.328-0.459c0-0.208-0.132-0.393-0.328-0.46l-5.046-1.734
			c0.146-0.192,0.296-0.393,0.445-0.596c1.838-2.516,2.771-4.466,2.771-5.798c0-3.22-2.62-5.84-5.84-5.84
			c-3.22,0-5.839,2.62-5.839,5.84c0,1.332,0.932,3.282,2.771,5.798c0.15,0.205,0.3,0.405,0.448,0.6l-5.049,1.73
			C2.132,15.282,2,15.467,2,15.674S2.131,16.064,2.328,16.134z M9.998,4.702c1.159,0,2.102,0.943,2.102,2.101
			c0,1.159-0.942,2.101-2.102,2.101c-1.158,0-2.101-0.942-2.101-2.101C7.897,5.645,8.839,4.702,9.998,4.702z M8.009,14.294
			C8.9,15.408,9.6,16.175,9.641,16.219c0.092,0.102,0.221,0.158,0.356,0.158c0.137,0,0.267-0.059,0.358-0.158
			c0.039-0.044,0.742-0.812,1.635-1.93l4.023,1.385L9.984,17.74L3.98,15.675L8.009,14.294z"/>
	</g>
</g>
<g>
	<path fill="none" d="M2.291,12.367l3.757-1.287c-0.11-0.145-0.221-0.294-0.333-0.446C4.347,8.762,3.652,7.31,3.652,6.319
		c0-2.396,1.95-4.346,4.346-4.346H2.046v10.736C2.046,12.555,2.145,12.416,2.291,12.367z"/>
	<path fill="none" d="M12.477,12.709l-2.994-1.031c-0.664,0.832-1.188,1.404-1.218,1.437C8.197,13.189,8.1,13.23,7.999,13.23
		s-0.198-0.041-0.267-0.116c-0.029-0.032-0.55-0.603-1.213-1.432L3.52,12.71l4.47,1.537L12.477,12.709z"/>
	<path fill="none" d="M7.999,1.973c2.396,0,4.345,1.95,4.345,4.346c0,0.99-0.695,2.442-2.061,4.314
		c-0.111,0.151-0.223,0.3-0.33,0.443l3.754,1.29c0.145,0.051,0.242,0.188,0.242,0.342s-0.098,0.292-0.242,0.342l-5.602,1.92
		c-0.037,0.013-0.076,0.02-0.115,0.02c-0.041,0-0.081-0.007-0.119-0.02l-5.58-1.92c-0.146-0.05-0.244-0.188-0.244-0.342V15h11.907
		V1.973H7.999z"/>
	<path fill="#9FA1A1" d="M2.291,13.051l5.58,1.92c0.038,0.013,0.078,0.02,0.119,0.02c0.039,0,0.078-0.007,0.115-0.02l5.602-1.92
		c0.145-0.05,0.242-0.188,0.242-0.342s-0.098-0.291-0.242-0.342l-3.754-1.29c0.107-0.144,0.219-0.292,0.33-0.443
		c1.365-1.872,2.061-3.324,2.061-4.314c0-2.396-1.949-4.346-4.345-4.346c-2.396,0-4.346,1.95-4.346,4.346
		c0,0.99,0.694,2.442,2.062,4.314c0.112,0.152,0.223,0.302,0.333,0.446l-3.757,1.287c-0.146,0.049-0.244,0.188-0.244,0.342
		C2.046,12.862,2.145,13.001,2.291,13.051z M7.999,4.544c0.861,0,1.564,0.701,1.564,1.563c0,0.863-0.703,1.564-1.564,1.564
		c-0.862,0-1.563-0.701-1.563-1.564C6.435,5.246,7.137,4.544,7.999,4.544z M6.518,11.683c0.663,0.829,1.185,1.399,1.213,1.432
		c0.069,0.075,0.166,0.116,0.267,0.116s0.198-0.041,0.266-0.116c0.03-0.032,0.554-0.604,1.218-1.437l2.994,1.031L7.99,14.247
		L3.52,12.71L6.518,11.683z"/>
</g>
</svg>
