<?xml version="1.0" encoding="utf-8"?>
<!-- Generator: Adobe Illustrator 16.0.0, SVG Export Plug-In . SVG Version: 6.00 Build 0)  -->
<!DOCTYPE svg PUBLIC "-//W3C//DTD SVG 1.1//EN" "http://www.w3.org/Graphics/SVG/1.1/DTD/svg11.dtd">
<svg version="1.1" id="Layer_1" xmlns="http://www.w3.org/2000/svg" xmlns:xlink="http://www.w3.org/1999/xlink" x="0px" y="0px"
	 width="20px" height="20px" viewBox="0 0 20 20" enable-background="new 0 0 20 20" xml:space="preserve">
<g>
	<g>
		<path fill="#C3E6E6" d="M-16.976,15.9c-0.074,0-0.15-0.027-0.209-0.084l-3.534-3.313c-0.123-0.117-0.129-0.309-0.015-0.435
			c0.117-0.123,0.312-0.129,0.434-0.012l3.536,3.314c0.123,0.117,0.129,0.312,0.012,0.435C-16.811,15.868-16.892,15.9-16.976,15.9
			L-16.976,15.9z M-16.976,15.9"/>
		<path fill="#C3E6E6" d="M-16.976,16.376c-0.203,0-0.395-0.078-0.541-0.219l-3.527-3.308c-0.315-0.3-0.332-0.784-0.042-1.103
			c0.303-0.319,0.815-0.322,1.116-0.037l3.533,3.311c0.315,0.301,0.328,0.798,0.032,1.11
			C-16.553,16.289-16.756,16.376-16.976,16.376z"/>
	</g>
	<g>
		<path fill="#C3E6E6" d="M-28.771,15.9c-0.084,0-0.165-0.032-0.225-0.096c-0.118-0.124-0.111-0.318,0.012-0.435l3.536-3.314
			c0.126-0.117,0.321-0.111,0.435,0.012c0.118,0.126,0.112,0.318-0.012,0.435l-3.536,3.313C-28.621,15.873-28.697,15.9-28.771,15.9
			L-28.771,15.9z M-28.771,15.9"/>
		<path fill="#C3E6E6" d="M-28.771,16.376c-0.219,0-0.421-0.087-0.571-0.244c-0.296-0.312-0.284-0.81,0.028-1.108l3.54-3.316
			c0.308-0.288,0.829-0.269,1.11,0.036c0.292,0.312,0.278,0.808-0.033,1.104l-3.539,3.315
			C-28.377,16.299-28.569,16.376-28.771,16.376z"/>
	</g>
	<g>
		<path fill="#C3E6E6" d="M-14.885,18.983h-15.977c-0.846,0-1.536-0.687-1.536-1.536V6.978c0-0.845,0.689-1.536,1.536-1.536h15.977
			c0.845,0,1.536,0.691,1.536,1.536v10.47C-13.35,18.297-14.04,18.983-14.885,18.983L-14.885,18.983z M-30.862,6.057
			c-0.507,0-0.921,0.414-0.921,0.921v10.47c0,0.51,0.414,0.921,0.921,0.921h15.977c0.51,0,0.921-0.411,0.921-0.921V6.978
			c0-0.507-0.411-0.921-0.921-0.921H-30.862z M-30.862,6.057"/>
		<path fill="#C3E6E6" d="M-14.885,19.459h-15.977c-1.109,0-2.012-0.903-2.012-2.012V6.978c0-1.109,0.903-2.012,2.012-2.012h15.977
			c1.109,0,2.012,0.903,2.012,2.012v10.47C-12.874,18.557-13.776,19.459-14.885,19.459z M-30.862,6.533
			c-0.245,0-0.444,0.199-0.444,0.444v10.47c0,0.245,0.199,0.444,0.444,0.444h15.977c0.245,0,0.444-0.199,0.444-0.444V6.978
			c0-0.245-0.199-0.444-0.444-0.444H-30.862z"/>
	</g>
	<g>
		<path fill="#C3E6E6" d="M-22.873,13.756c-0.41,0-0.818-0.135-1.127-0.406l-7.888-6.88c-0.129-0.111-0.141-0.306-0.03-0.435
			c0.111-0.128,0.306-0.138,0.435-0.029l7.885,6.88c0.394,0.341,1.056,0.341,1.449,0l7.875-6.869c0.128-0.11,0.321-0.099,0.435,0.03
			c0.111,0.129,0.1,0.321-0.03,0.433l-7.876,6.868C-22.056,13.622-22.464,13.756-22.873,13.756L-22.873,13.756z M-22.873,13.756"/>
		<path fill="#C3E6E6" d="M-22.873,14.232c-0.544,0-1.056-0.186-1.441-0.523l-7.887-6.879c-0.156-0.134-0.251-0.323-0.267-0.532
			c-0.015-0.21,0.052-0.414,0.19-0.573c0.269-0.311,0.783-0.351,1.101-0.083l7.892,6.886c0.203,0.176,0.62,0.176,0.824,0
			l7.875-6.868c0.319-0.274,0.831-0.237,1.104,0.074c0.286,0.331,0.25,0.826-0.076,1.107l-7.874,6.867
			C-21.817,14.045-22.33,14.232-22.873,14.232z"/>
	</g>
</g>
<g>
	<g>
		<path fill="#C3E6E6" d="M13.084,0.154c-3.727,0-6.759,2.986-6.759,6.655c0,0.816,0.147,1.609,0.438,2.362L0.3,15.536
			c-0.092,0.091-0.144,0.214-0.144,0.343v3.482c0,0.269,0.221,0.485,0.493,0.485h2.915c0.13,0,0.255-0.051,0.348-0.142l0.982-0.965
			c0.092-0.091,0.145-0.214,0.145-0.343v-1.188h1.204c0.272,0,0.493-0.217,0.493-0.485v-0.475h0.483
			c0.272,0,0.493-0.217,0.493-0.485v-1.044h1.06c0.13,0,0.256-0.051,0.348-0.142l1.567-1.543c0.765,0.286,1.57,0.432,2.399,0.432
			c3.727,0,6.759-2.986,6.759-6.656C19.844,3.14,16.812,0.154,13.084,0.154z M13.084,12.495c-0.806,0-1.586-0.16-2.317-0.477
			c-0.189-0.082-0.402-0.037-0.542,0.097c-0.001,0.001-0.003,0.002-0.004,0.004l-1.654,1.629H7.218
			c-0.272,0-0.492,0.217-0.492,0.484v1.044H6.243c-0.272,0-0.493,0.217-0.493,0.485v0.476H4.545c-0.272,0-0.493,0.217-0.493,0.484
			v1.472l-0.693,0.682H1.142v-0.686l6.021-5.929c0.173-0.171,0.173-0.447,0-0.617c-0.173-0.171-0.454-0.171-0.627,0l-5.394,5.311
			V16.08l6.55-6.451c0.001-0.001,0.003-0.003,0.004-0.004c0.136-0.137,0.182-0.347,0.099-0.533C7.473,8.371,7.311,7.603,7.311,6.81
			c0-3.135,2.59-5.686,5.774-5.686c3.184,0,5.774,2.551,5.774,5.686C18.858,9.945,16.269,12.495,13.084,12.495z"/>
		<path fill="#C3E6E6" d="M3.563,20H0.649C0.291,20,0,19.713,0,19.361v-3.482c0-0.171,0.067-0.331,0.19-0.452l6.392-6.294
			C6.308,8.39,6.169,7.609,6.169,6.809C6.169,3.055,9.271,0,13.084,0C16.898,0,20,3.055,20,6.809c0,3.755-3.102,6.81-6.916,6.81
			c-0.812,0-1.605-0.137-2.359-0.407l-1.496,1.473c-0.123,0.121-0.286,0.187-0.458,0.187H7.867v0.89
			c0,0.353-0.291,0.639-0.649,0.639H6.891v0.321c0,0.353-0.291,0.639-0.649,0.639H5.194v1.034c0,0.171-0.068,0.331-0.19,0.452
			l-0.982,0.966C3.899,19.934,3.736,20,3.563,20z M13.084,0.308c-3.641,0-6.603,2.917-6.603,6.501c0,0.796,0.144,1.572,0.428,2.308
			l0.036,0.093l-6.534,6.435c-0.063,0.063-0.099,0.146-0.099,0.234v3.482c0,0.183,0.151,0.332,0.336,0.332h2.915
			c0.089,0,0.174-0.034,0.237-0.097l0.982-0.966c0.063-0.062,0.099-0.146,0.099-0.234v-1.341h1.36c0.186,0,0.336-0.149,0.336-0.332
			v-0.629h0.639c0.186,0,0.336-0.148,0.336-0.331v-1.198h1.216c0.09,0,0.174-0.034,0.238-0.097l1.639-1.613l0.094,0.035
			c0.747,0.28,1.535,0.422,2.343,0.422c3.641,0,6.603-2.917,6.603-6.502C19.688,3.224,16.726,0.308,13.084,0.308z M3.424,19.03
			H0.985v-0.903l6.066-5.974c0.054-0.054,0.084-0.125,0.084-0.2c0-0.076-0.03-0.146-0.084-0.2c-0.054-0.053-0.126-0.083-0.203-0.083
			S6.7,11.7,6.646,11.753l-5.66,5.574v-1.312l6.597-6.498C7.68,9.42,7.707,9.277,7.651,9.153c-0.33-0.74-0.497-1.528-0.497-2.344
			c0-3.22,2.661-5.839,5.93-5.839c3.27,0,5.931,2.62,5.931,5.839c0,3.22-2.661,5.839-5.931,5.839c-0.828,0-1.629-0.165-2.38-0.49
			c-0.124-0.053-0.274-0.025-0.37,0.066L10.33,12.23l-1.699,1.673H7.218c-0.186,0-0.336,0.148-0.336,0.331v1.198H6.243
			c-0.186,0-0.336,0.149-0.336,0.332v0.629H4.545c-0.186,0-0.336,0.148-0.336,0.331v1.535L3.424,19.03z M1.298,18.723h1.997
			l0.602-0.592v-1.408c0-0.352,0.291-0.638,0.649-0.638h1.048v-0.322c0-0.353,0.291-0.639,0.649-0.639h0.327v-0.89
			c0-0.352,0.291-0.638,0.648-0.638h1.284l1.616-1.592c0.121-0.114,0.285-0.18,0.452-0.18c0.09,0,0.177,0.018,0.26,0.054
			c0.712,0.308,1.471,0.464,2.255,0.464c3.098,0,5.618-2.482,5.618-5.532c0-3.05-2.521-5.532-5.618-5.532
			c-3.097,0-5.618,2.482-5.618,5.532c0,0.772,0.158,1.52,0.471,2.22c0.106,0.239,0.056,0.515-0.13,0.703
			c0,0-0.002,0.002-0.005,0.005l-6.504,6.406v0.441l5.127-5.049c0.113-0.111,0.264-0.173,0.424-0.173s0.311,0.062,0.424,0.173
			c0.113,0.112,0.176,0.26,0.176,0.417s-0.062,0.306-0.176,0.417l-5.975,5.883V18.723z"/>
	</g>
	<g>
		<path fill="#C3E6E6" d="M15.142,2.967c-1.017,0-1.845,0.815-1.845,1.816c0,1.002,0.828,1.817,1.845,1.817
			c1.018,0,1.845-0.815,1.845-1.817C16.987,3.782,16.159,2.967,15.142,2.967z M15.142,5.63c-0.474,0-0.86-0.38-0.86-0.847
			s0.386-0.847,0.86-0.847s0.86,0.38,0.86,0.847S15.616,5.63,15.142,5.63z"/>
	</g>
</g>
</svg>
