<?xml version="1.0" encoding="utf-8"?>
<!-- Generator: Adobe Illustrator 16.0.0, SVG Export Plug-In . SVG Version: 6.00 Build 0)  -->
<!DOCTYPE svg PUBLIC "-//W3C//DTD SVG 1.1//EN" "http://www.w3.org/Graphics/SVG/1.1/DTD/svg11.dtd">
<svg version="1.1" id="Layer_1" xmlns="http://www.w3.org/2000/svg" xmlns:xlink="http://www.w3.org/1999/xlink" x="0px" y="0px"
	 width="17px" height="17px" viewBox="0 0 17 17" enable-background="new 0 0 17 17" xml:space="preserve">
<g>
	<path fill="none" d="M7.164,1.424C3.997,1.424,1.422,4,1.422,7.166c0,3.164,2.574,5.737,5.741,5.737
		c3.166,0,5.741-2.574,5.741-5.737C12.905,4,10.33,1.424,7.164,1.424z"/>
	<path fill="#FFFFFF" d="M16.791,15.792l-4.085-4.087c1.013-1.234,1.624-2.815,1.624-4.54C14.329,3.209,11.12,0,7.164,0
		C3.206,0,0,3.209,0,7.166c0,3.954,3.206,7.163,7.164,7.163c1.725,0,3.304-0.607,4.539-1.619l4.085,4.083
		c0.279,0.277,0.727,0.277,1.003,0C17.07,16.517,17.07,16.066,16.791,15.792z M7.164,12.903c-3.167,0-5.741-2.574-5.741-5.737
		c0-3.165,2.574-5.742,5.741-5.742c3.166,0,5.741,2.577,5.741,5.742C12.905,10.329,10.33,12.903,7.164,12.903z"/>
</g>
</svg>
