<?xml version="1.0" encoding="utf-8"?>
<!-- Generator: Adobe Illustrator 16.0.0, SVG Export Plug-In . SVG Version: 6.00 Build 0)  -->
<!DOCTYPE svg PUBLIC "-//W3C//DTD SVG 1.1//EN" "http://www.w3.org/Graphics/SVG/1.1/DTD/svg11.dtd">
<svg version="1.1" xmlns="http://www.w3.org/2000/svg" xmlns:xlink="http://www.w3.org/1999/xlink" x="0px" y="0px" width="20px"
	 height="20.001px" viewBox="0 0 20 20.001" enable-background="new 0 0 20 20.001" xml:space="preserve">
<g id="Layer_1" display="none">
	<g display="inline">
		<path fill="#35BDB0" d="M12.975,11.984c1.63-0.992,2.692-2.763,2.692-4.817C15.667,4.05,13.116,1.5,10,1.5
			c-3.117,0-5.667,2.55-5.667,5.667c0,2.054,1.062,3.825,2.691,4.817C4.192,13.046,2.067,15.526,1.5,18.5h1.417
			c0.708-3.259,3.613-5.667,7.083-5.667s6.375,2.408,7.083,5.667H18.5C17.934,15.455,15.809,12.975,12.975,11.984L12.975,11.984z
			 M5.75,7.167c0-2.337,1.912-4.25,4.25-4.25s4.25,1.913,4.25,4.25c0,2.338-1.912,4.25-4.25,4.25S5.75,9.505,5.75,7.167L5.75,7.167z
			 M5.75,7.167"/>
	</g>
</g>
<g id="Layer_2">
	<g>
		<path fill="#35BDB0" d="M14.693,18.44L14.693,18.44c-0.214,0-0.428-0.059-0.619-0.171l-3.878-2.28
			c-0.119-0.068-0.272-0.069-0.394,0.001l-3.875,2.277c-0.189,0.112-0.401,0.17-0.615,0.17c-0.367,0-0.726-0.175-0.958-0.469
			c-0.232-0.292-0.315-0.669-0.229-1.035l1.054-4.321c0.031-0.14-0.012-0.277-0.125-0.375L1.549,9.16
			C1.18,8.828,1.047,8.333,1.201,7.864C1.354,7.398,1.752,7.08,2.237,7.033l4.651-0.44c0.146-0.013,0.269-0.102,0.316-0.227
			l1.657-4.047C9.046,1.86,9.488,1.561,9.987,1.561c0.499,0,0.941,0.299,1.125,0.762l1.665,4.034
			c0.057,0.133,0.177,0.225,0.319,0.237l4.654,0.44c0.487,0.047,0.888,0.367,1.045,0.835c0.157,0.465,0.032,0.958-0.323,1.285
			l-3.512,3.085c-0.109,0.097-0.156,0.237-0.122,0.381l1.038,4.313c0.085,0.373,0.001,0.752-0.23,1.044
			C15.416,18.267,15.059,18.44,14.693,18.44z M10.001,15.104c0.214,0,0.427,0.057,0.615,0.167l3.88,2.28
			c0.171,0.101,0.38,0.056,0.498-0.092c0.053-0.066,0.108-0.177,0.071-0.335l-1.038-4.313c-0.102-0.449,0.04-0.894,0.382-1.196
			l3.505-3.08c0.16-0.147,0.111-0.344,0.092-0.4c-0.019-0.059-0.101-0.249-0.336-0.271l-4.65-0.439
			c-0.444-0.041-0.831-0.325-1.011-0.744l-1.668-4.044c-0.09-0.225-0.293-0.242-0.354-0.242S9.723,2.41,9.634,2.631L7.98,6.672
			c-0.156,0.41-0.555,0.708-1.015,0.75L2.316,7.862C2.088,7.885,2.011,8.068,1.993,8.124C1.974,8.181,1.927,8.379,2.102,8.537
			l3.501,3.076c0.342,0.303,0.485,0.748,0.385,1.192l-1.055,4.325c-0.034,0.147,0.021,0.258,0.072,0.324
			c0.12,0.15,0.327,0.199,0.499,0.098l3.878-2.279C9.572,15.161,9.786,15.104,10.001,15.104z"/>
	</g>
</g>
</svg>
