<?xml version="1.0" encoding="utf-8"?>
<!-- Generator: Adobe Illustrator 16.0.0, SVG Export Plug-In . SVG Version: 6.00 Build 0)  -->
<!DOCTYPE svg PUBLIC "-//W3C//DTD SVG 1.1//EN" "http://www.w3.org/Graphics/SVG/1.1/DTD/svg11.dtd">
<svg version="1.1" id="Layer_1" xmlns="http://www.w3.org/2000/svg" xmlns:xlink="http://www.w3.org/1999/xlink" x="0px" y="0px"
	 width="20px" height="20px" viewBox="0 0 20 20" enable-background="new 0 0 20 20" xml:space="preserve">
<g>
	<path fill="#C3E6E6" d="M13.5,12.333c1.917-1.166,3.167-3.25,3.167-5.666C16.667,3,13.667,0,10,0C6.333,0,3.333,3,3.333,6.667
		c0,2.417,1.25,4.5,3.167,5.666C3.167,13.583,0.667,16.5,0,20h1.667C2.5,16.167,5.917,13.333,10,13.333s7.5,2.834,8.333,6.667H20
		C19.333,16.417,16.833,13.5,13.5,12.333L13.5,12.333z M5,6.667c0-2.75,2.25-5,5-5s5,2.25,5,5c0,2.75-2.25,5-5,5S5,9.417,5,6.667
		L5,6.667z M5,6.667"/>
</g>
</svg>
