<?xml version="1.0" encoding="utf-8"?>
<!-- Generator: Adobe Illustrator 16.0.0, SVG Export Plug-In . SVG Version: 6.00 Build 0)  -->
<!DOCTYPE svg PUBLIC "-//W3C//DTD SVG 1.1//EN" "http://www.w3.org/Graphics/SVG/1.1/DTD/svg11.dtd">
<svg version="1.1" id="Layer_1" xmlns="http://www.w3.org/2000/svg" xmlns:xlink="http://www.w3.org/1999/xlink" x="0px" y="0px"
	 width="18px" height="18px" viewBox="0 0 18 18" enable-background="new 0 0 18 18" xml:space="preserve">
<g id="Layer_1_1_">
	<g>
		<path fill="#35BDB0" d="M12.149,11.1C13.876,10.051,15,8.175,15,6c0-3.301-2.7-6-6-6C5.699,0,3,2.7,3,6
			c0,2.175,1.125,4.051,2.849,5.1C2.85,12.224,0.6,14.851,0,18h1.5C2.25,14.548,5.326,12,9,12c3.675,0,6.75,2.549,7.5,6.001H18
			C17.4,14.776,15.15,12.15,12.149,11.1L12.149,11.1z M4.5,6c0-2.475,2.024-4.5,4.5-4.5s4.5,2.025,4.5,4.5S11.476,10.5,9,10.5
			S4.5,8.475,4.5,6L4.5,6z"/>
	</g>
</g>
<g id="Layer_2" display="none">
	<g display="inline">
		<path fill="#35BDB0" d="M14.693,18.44L14.693,18.44c-0.215,0-0.428-0.059-0.619-0.171l-3.878-2.28
			c-0.119-0.068-0.272-0.068-0.394,0.002l-3.875,2.276c-0.189,0.112-0.401,0.17-0.615,0.17c-0.367,0-0.726-0.175-0.958-0.47
			c-0.232-0.291-0.315-0.668-0.229-1.034l1.054-4.321c0.031-0.14-0.012-0.277-0.125-0.375L1.549,9.16
			C1.18,8.828,1.047,8.333,1.201,7.864C1.354,7.398,1.752,7.08,2.237,7.033l4.651-0.44C7.034,6.58,7.157,6.491,7.204,6.366
			l1.657-4.047C9.046,1.86,9.488,1.561,9.987,1.561s0.941,0.299,1.125,0.762l1.666,4.034c0.057,0.133,0.177,0.225,0.318,0.237
			l4.654,0.44c0.486,0.047,0.889,0.367,1.045,0.835c0.157,0.465,0.032,0.958-0.322,1.285l-3.513,3.085
			c-0.108,0.098-0.155,0.237-0.122,0.381l1.038,4.313c0.085,0.373,0.001,0.752-0.229,1.044C15.416,18.267,15.059,18.44,14.693,18.44
			z M10.001,15.104c0.214,0,0.427,0.057,0.615,0.167l3.88,2.28c0.171,0.101,0.38,0.056,0.498-0.092
			c0.053-0.066,0.107-0.178,0.07-0.336l-1.037-4.312c-0.103-0.449,0.039-0.895,0.382-1.195l3.505-3.081
			c0.16-0.147,0.111-0.344,0.092-0.4c-0.02-0.059-0.102-0.249-0.336-0.271l-4.65-0.439c-0.443-0.041-0.83-0.325-1.011-0.744
			l-1.668-4.044c-0.09-0.225-0.293-0.242-0.354-0.242S9.723,2.41,9.634,2.631L7.98,6.672c-0.156,0.41-0.555,0.708-1.015,0.75
			l-4.649,0.44C2.088,7.885,2.011,8.068,1.993,8.124C1.974,8.181,1.927,8.379,2.102,8.537l3.501,3.076
			c0.342,0.304,0.485,0.748,0.385,1.192l-1.055,4.324c-0.034,0.147,0.021,0.259,0.072,0.324c0.12,0.15,0.327,0.199,0.499,0.098
			l3.878-2.278C9.572,15.161,9.786,15.104,10.001,15.104z"/>
	</g>
</g>
</svg>
