<?xml version="1.0" encoding="utf-8"?>
<!-- Generator: Adobe Illustrator 16.0.0, SVG Export Plug-In . SVG Version: 6.00 Build 0)  -->
<!DOCTYPE svg PUBLIC "-//W3C//DTD SVG 1.1//EN" "http://www.w3.org/Graphics/SVG/1.1/DTD/svg11.dtd">
<svg version="1.1" id="Isolation_Mode" xmlns="http://www.w3.org/2000/svg" xmlns:xlink="http://www.w3.org/1999/xlink" x="0px"
	 y="0px" width="26px" height="25px" viewBox="0 0 26 25" enable-background="new 0 0 26 25" xml:space="preserve">
<g>
	<path fill="#FFFFFF" d="M19.885,25L19.885,25c-0.314,0-0.629-0.088-0.908-0.255l-5.688-3.375c-0.174-0.102-0.399-0.104-0.577,0.002
		l-5.686,3.373c-0.278,0.165-0.59,0.251-0.902,0.251c-0.539,0-1.064-0.259-1.406-0.694c-0.34-0.433-0.462-0.991-0.336-1.532
		l1.546-6.399c0.046-0.208-0.018-0.409-0.184-0.558l-5.14-4.559c-0.542-0.491-0.736-1.226-0.51-1.92
		c0.225-0.689,0.807-1.16,1.52-1.229l6.823-0.652C8.65,7.432,8.831,7.302,8.9,7.118l2.431-5.995C11.601,0.442,12.249,0,12.981,0
		s1.38,0.443,1.652,1.128l2.44,5.974c0.085,0.197,0.261,0.333,0.468,0.352l6.826,0.652c0.716,0.068,1.304,0.543,1.535,1.237
		c0.229,0.689,0.047,1.417-0.476,1.903l-5.151,4.568c-0.162,0.146-0.229,0.352-0.18,0.565l1.522,6.388
		c0.127,0.552,0.003,1.114-0.337,1.546C20.943,24.742,20.421,25,19.885,25z M13,20.058c0.315,0,0.628,0.087,0.902,0.247l5.691,3.378
		c0.254,0.149,0.559,0.083,0.731-0.139c0.075-0.098,0.157-0.262,0.104-0.493l-1.523-6.39c-0.15-0.664,0.061-1.323,0.561-1.771
		l5.145-4.561c0.232-0.219,0.16-0.511,0.134-0.595c-0.028-0.085-0.147-0.368-0.492-0.4L17.43,8.682
		c-0.648-0.059-1.218-0.482-1.48-1.102L13.5,1.593c-0.132-0.333-0.431-0.357-0.52-0.357s-0.389,0.025-0.518,0.353l-2.427,5.984
		C9.807,8.181,9.222,8.623,8.547,8.685l-6.82,0.652C1.393,9.367,1.28,9.64,1.252,9.723c-0.027,0.085-0.097,0.379,0.161,0.612
		L6.55,14.89c0.501,0.448,0.711,1.107,0.564,1.765L5.567,23.06c-0.051,0.219,0.029,0.382,0.105,0.48
		c0.175,0.223,0.479,0.294,0.731,0.146l5.688-3.375C12.372,20.145,12.685,20.058,13,20.058z"/>
</g>
</svg>
