<?xml version="1.0" encoding="utf-8"?>
<!-- Generator: Adobe Illustrator 16.0.0, SVG Export Plug-In . SVG Version: 6.00 Build 0)  -->
<!DOCTYPE svg PUBLIC "-//W3C//DTD SVG 1.1//EN" "http://www.w3.org/Graphics/SVG/1.1/DTD/svg11.dtd">
<svg version="1.1" id="Isolation_Mode" xmlns="http://www.w3.org/2000/svg" xmlns:xlink="http://www.w3.org/1999/xlink" x="0px"
	 y="0px" width="26px" height="25px" viewBox="0 0 26 25" enable-background="new 0 0 26 25" xml:space="preserve">
<g>
	<g>
		<path fill="none" d="M24.61,10.349c0.233-0.216,0.161-0.505,0.134-0.588c-0.028-0.085-0.148-0.365-0.492-0.397l-6.823-0.646
			c-0.649-0.059-1.218-0.478-1.481-1.091L13.5,1.696c-0.132-0.33-0.431-0.354-0.52-0.354s-0.389,0.025-0.518,0.349l-2.427,5.928
			c-0.228,0.602-0.813,1.04-1.488,1.101l-6.82,0.646C1.394,9.395,1.28,9.665,1.253,9.747c-0.027,0.084-0.097,0.375,0.161,0.606
			l5.137,4.512c0.501,0.443,0.711,1.097,0.564,1.748l-1.547,6.344c-0.051,0.217,0.029,0.379,0.105,0.476
			c0.175,0.221,0.479,0.292,0.731,0.144l5.688-3.343c0.278-0.161,0.591-0.246,0.906-0.246s0.628,0.085,0.903,0.244l5.691,3.345
			c0.253,0.148,0.558,0.082,0.731-0.136c0.076-0.097,0.157-0.26,0.104-0.49l-1.523-6.328c-0.15-0.658,0.061-1.312,0.561-1.755
			L24.61,10.349z"/>
		<g>
			<path fill="none" d="M24.61,10.349c0.233-0.216,0.161-0.505,0.134-0.588c-0.028-0.085-0.148-0.365-0.492-0.397l-6.823-0.646
				c-0.649-0.059-1.218-0.478-1.481-1.091L13.5,1.696c-0.132-0.33-0.431-0.354-0.52-0.354s-0.389,0.025-0.518,0.349l-2.427,5.928
				c-0.228,0.602-0.813,1.04-1.488,1.101l-6.82,0.646C1.394,9.395,1.28,9.665,1.253,9.747c-0.027,0.084-0.097,0.375,0.161,0.606
				l5.137,4.512c0.501,0.443,0.711,1.097,0.564,1.748l-1.547,6.344c-0.051,0.217,0.029,0.379,0.105,0.476
				c0.175,0.221,0.479,0.292,0.731,0.144l5.688-3.343c0.278-0.161,0.591-0.246,0.906-0.246s0.628,0.085,0.903,0.244l5.691,3.345
				c0.253,0.148,0.558,0.082,0.731-0.136c0.076-0.097,0.157-0.26,0.104-0.49l-1.523-6.328c-0.15-0.658,0.061-1.312,0.561-1.755
				L24.61,10.349z"/>
			<g>
				<path fill="#2CBCB1" d="M25.428,11.246c0.521-0.486,0.704-1.215,0.475-1.904c-0.231-0.693-0.819-1.167-1.535-1.236l-6.826-0.652
					c-0.207-0.019-0.383-0.154-0.468-0.351l-2.44-5.974C14.361,0.444,13.713,0,12.98,0S11.6,0.443,11.33,1.124L8.899,7.119
					C8.83,7.303,8.649,7.434,8.436,7.454L1.612,8.105c-0.713,0.069-1.295,0.54-1.52,1.229c-0.227,0.695-0.032,1.429,0.51,1.92
					l5.14,4.559c0.166,0.148,0.229,0.349,0.184,0.557l-1.546,6.4c-0.126,0.54-0.004,1.099,0.336,1.532
					c0.342,0.436,0.867,0.695,1.406,0.695c0.312,0,0.624-0.087,0.902-0.251l5.686-3.373c0.178-0.105,0.403-0.104,0.577-0.002
					l5.688,3.375C19.256,24.912,19.57,25,19.885,25c0.536,0,1.059-0.257,1.397-0.687c0.34-0.432,0.464-0.994,0.337-1.546
					l-1.522-6.388c-0.049-0.214,0.017-0.42,0.179-0.565L25.428,11.246z"/>
				<path fill="none" d="M24.61,10.329c0.233-0.218,0.161-0.51,0.134-0.594c-0.028-0.085-0.148-0.369-0.492-0.401l-6.823-0.651
					c-0.649-0.059-1.218-0.482-1.481-1.102L13.5,1.592c-0.132-0.333-0.431-0.358-0.52-0.358s-0.389,0.025-0.518,0.352l-2.427,5.984
					c-0.228,0.607-0.813,1.05-1.488,1.111l-6.82,0.651C1.394,9.365,1.28,9.637,1.253,9.72c-0.027,0.085-0.097,0.378,0.161,0.612
					l5.137,4.555c0.501,0.448,0.711,1.107,0.564,1.765l-1.547,6.404c-0.051,0.219,0.029,0.383,0.105,0.48
					c0.175,0.223,0.479,0.294,0.731,0.145l5.688-3.375c0.278-0.163,0.591-0.249,0.906-0.249s0.628,0.086,0.903,0.247l5.691,3.376
					c0.253,0.15,0.558,0.083,0.731-0.137c0.076-0.098,0.157-0.262,0.104-0.495l-1.523-6.389c-0.15-0.665,0.061-1.324,0.561-1.772
					L24.61,10.329z"/>
				<path fill="#FFFFFF" d="M25.428,11.246c0.521-0.486,0.704-1.215,0.475-1.904c-0.231-0.693-0.819-1.167-1.535-1.236l-6.826-0.652
					c-0.207-0.019-0.383-0.154-0.468-0.351l-2.44-5.974C14.362,0.444,13.713,0,12.981,0s-1.381,0.443-1.65,1.124L8.9,7.119
					C8.831,7.303,8.65,7.434,8.436,7.454L1.613,8.105C0.9,8.174,0.318,8.646,0.093,9.334c-0.227,0.695-0.032,1.429,0.51,1.92
					l5.14,4.559c0.166,0.148,0.229,0.349,0.184,0.557l-1.546,6.4c-0.126,0.54-0.004,1.099,0.336,1.532
					c0.342,0.436,0.867,0.695,1.406,0.695c0.312,0,0.624-0.087,0.902-0.251l5.686-3.373c0.178-0.105,0.403-0.104,0.577-0.002
					l5.688,3.375C19.256,24.912,19.571,25,19.885,25c0.536,0,1.059-0.257,1.397-0.687c0.34-0.432,0.464-0.994,0.337-1.546
					l-1.522-6.388c-0.049-0.214,0.017-0.42,0.179-0.565L25.428,11.246z M18.907,16.661l1.523,6.389
					c0.054,0.233-0.027,0.397-0.104,0.495c-0.174,0.22-0.479,0.287-0.731,0.137l-5.691-3.376c-0.275-0.161-0.588-0.247-0.903-0.247
					s-0.628,0.086-0.906,0.249l-5.688,3.375c-0.253,0.15-0.557,0.078-0.731-0.145c-0.076-0.098-0.156-0.262-0.105-0.48l1.547-6.404
					c0.146-0.658-0.063-1.317-0.564-1.765l-5.137-4.555C1.157,10.099,1.226,9.805,1.253,9.72c0.027-0.083,0.141-0.355,0.475-0.387
					l6.82-0.651c0.675-0.061,1.261-0.504,1.488-1.111l2.427-5.984c0.129-0.327,0.429-0.352,0.518-0.352s0.388,0.024,0.52,0.358
					l2.447,5.988c0.264,0.619,0.832,1.042,1.481,1.102l6.823,0.651c0.344,0.033,0.464,0.316,0.492,0.401
					c0.027,0.084,0.1,0.376-0.134,0.594l-5.144,4.561C18.967,15.337,18.756,15.997,18.907,16.661z"/>
			</g>
		</g>
	</g>
</g>
</svg>
